<?xml version="1.0" encoding="utf-8"?>
<!-- Generator: Adobe Illustrator 21.1.0, SVG Export Plug-In . SVG Version: 6.00 Build 0)  -->
<svg version="1.1" id="Layer_1" xmlns="http://www.w3.org/2000/svg" xmlns:xlink="http://www.w3.org/1999/xlink" x="0px" y="0px"
	 viewBox="0 0 280 280" style="enable-background:new 0 0 280 280;" xml:space="preserve">
<style type="text/css">
	.st0{fill:#3BB9C5;}
	.st1{fill:none;stroke:#3BB9C5;stroke-miterlimit:10;}
	.st2{fill:none;stroke:#3BB9C5;stroke-miterlimit:10;stroke-dasharray:6;}
	.st3{fill:none;stroke:#3BB9C5;stroke-miterlimit:10;stroke-dasharray:6.2166,6.2166;}
	.st4{fill:none;stroke:#3BB9C5;stroke-miterlimit:10;stroke-dasharray:5.9545,5.9545;}
	.st5{fill:none;stroke:#FFFFFF;stroke-width:6;stroke-linecap:round;stroke-linejoin:round;stroke-miterlimit:10;}
	.st6{fill:none;stroke:#3BB9C5;stroke-miterlimit:10;stroke-dasharray:6.5587,6.5587;}
	.st7{fill:none;stroke:#3BB9C5;stroke-miterlimit:10;stroke-dasharray:6.3062,6.3062;}
	.st8{fill:none;stroke:#3BB9C5;stroke-miterlimit:10;stroke-dasharray:5.76,5.76;}
	.st9{fill:none;stroke:#3BB9C5;stroke-miterlimit:10;stroke-dasharray:6.2812,6.2812;}
	.st10{fill:none;stroke:#3BB9C5;stroke-miterlimit:10;stroke-dasharray:6.5502,6.5502;}
	.st11{fill:url(#);stroke:#00A9B7;stroke-miterlimit:10;}
	.st12{fill:#00A9B7;}
</style>
<g>
	<g>
		<path class="st0" d="M104.5,87.8l70.5,0l35.3,61.1L175,209.9l-70.5,0l-35.3-61.1L104.5,87.8 M103.9,86.8l-35.8,62.1l35.8,62.1
			l71.7,0l35.8-62.1l-35.8-62.1L103.9,86.8L103.9,86.8z"/>
	</g>
	<g>
		<circle class="st0" cx="68.1" cy="148.9" r="6.7"/>
	</g>
	<g>
		<circle class="st0" cx="175.6" cy="86.8" r="6.7"/>
	</g>
	<g>
		<circle class="st0" cx="113.5" cy="194.3" r="6.7"/>
	</g>
	<g>
		<circle class="st0" cx="180.1" cy="172.1" r="6.7"/>
	</g>
	<g>
		<circle class="st0" cx="195.2" cy="153.9" r="6.7"/>
	</g>
	<g>
		<circle class="st0" cx="175.6" cy="152.8" r="6.7"/>
	</g>
	<g>
		<circle class="st0" cx="164.9" cy="100.1" r="6.7"/>
	</g>
	<g>
		<circle class="st0" cx="146.4" cy="97.1" r="6.7"/>
	</g>
	<g>
		<circle class="st0" cx="148.2" cy="115.6" r="6.7"/>
	</g>
	<g>
		<circle class="st0" cx="125.1" cy="106.8" r="6.7"/>
	</g>
	<g>
		<circle class="st0" cx="86.7" cy="137.9" r="6.7"/>
	</g>
	<g>
		<circle class="st0" cx="86.1" cy="155.5" r="6.7"/>
	</g>
	<g>
		<circle class="st0" cx="104.1" cy="131.2" r="6.7"/>
	</g>
	<g>
		<circle class="st0" cx="97.4" cy="170.9" r="6.7"/>
	</g>
	<g>
		<circle class="st0" cx="104.1" cy="151.7" r="6.7"/>
	</g>
	<g>
		<circle class="st0" cx="104.1" cy="210.6" r="6.7"/>
	</g>
</g>
</svg>
