<?xml version="1.0" encoding="utf-8"?>
<!-- Generator: Adobe Illustrator 21.1.0, SVG Export Plug-In . SVG Version: 6.00 Build 0)  -->
<svg version="1.1" id="Layer_1" xmlns="http://www.w3.org/2000/svg" xmlns:xlink="http://www.w3.org/1999/xlink" x="0px" y="0px"
	 viewBox="0 0 280 280" style="enable-background:new 0 0 280 280;" xml:space="preserve">
<style type="text/css">
	.st0{fill:#3BB9C5;}
	.st1{fill:none;stroke:#3BB9C5;stroke-miterlimit:10;}
	.st2{fill:none;stroke:#3BB9C5;stroke-miterlimit:10;stroke-dasharray:6;}
	.st3{fill:none;stroke:#3BB9C5;stroke-miterlimit:10;stroke-dasharray:6.2166,6.2166;}
	.st4{fill:none;stroke:#3BB9C5;stroke-miterlimit:10;stroke-dasharray:5.9545,5.9545;}
	.st5{fill:none;stroke:#FFFFFF;stroke-width:6;stroke-linecap:round;stroke-linejoin:round;stroke-miterlimit:10;}
	.st6{fill:none;stroke:#3BB9C5;stroke-miterlimit:10;stroke-dasharray:6.5587,6.5587;}
	.st7{fill:none;stroke:#3BB9C5;stroke-miterlimit:10;stroke-dasharray:6.3062,6.3062;}
	.st8{fill:none;stroke:#3BB9C5;stroke-miterlimit:10;stroke-dasharray:5.76,5.76;}
	.st9{fill:none;stroke:#3BB9C5;stroke-miterlimit:10;stroke-dasharray:6.2812,6.2812;}
	.st10{fill:none;stroke:#3BB9C5;stroke-miterlimit:10;stroke-dasharray:6.5502,6.5502;}
	.st11{fill:url(#);stroke:#00A9B7;stroke-miterlimit:10;}
	.st12{fill:#00A9B7;}
</style>
<g>
	<g>
		<path class="st0" d="M107.7,79.1l70.5,0l35.3,61.1l-35.3,61.1l-70.5,0l-35.3-61.1L107.7,79.1 M107.1,78.1l-35.8,62.1l35.8,62.1
			l71.7,0l35.8-62.1l-35.8-62.1L107.1,78.1L107.1,78.1z"/>
	</g>
	<g>
		<circle class="st0" cx="71.3" cy="140.1" r="6.7"/>
	</g>
	<g>
		<circle class="st0" cx="178.8" cy="78.1" r="6.7"/>
	</g>
	<g>
		<circle class="st0" cx="187.1" cy="122.3" r="6"/>
	</g>
	<g>
		<circle class="st0" cx="112.2" cy="122.3" r="6"/>
	</g>
	<g>
		<circle class="st0" cx="107.3" cy="201.9" r="6.7"/>
	</g>
	<g>
		<path class="st0" d="M145.6,109.3l40.9,13.4l8.9,42.1l-32,28.8l-40.9-13.4l-8.9-42.1L145.6,109.3 M145.4,108.2l-32.9,29.5
			l9.1,43.3l42,13.7l32.9-29.5l-9.1-43.3L145.4,108.2L145.4,108.2z"/>
	</g>
	<g>
		<path class="st0" d="M125.7,84.3L138.3,99l-6.5,18.3l-19,3.5l-12.6-14.7l6.5-18.3L125.7,84.3 M126.1,83.2l-20.2,3.8L99,106.3
			l13.3,15.6l20.2-3.8l6.8-19.4L126.1,83.2L126.1,83.2z"/>
	</g>
</g>
</svg>
