<?xml version="1.0" encoding="utf-8"?>
<!-- Generator: Adobe Illustrator 21.1.0, SVG Export Plug-In . SVG Version: 6.00 Build 0)  -->
<svg version="1.1" id="Layer_1" xmlns="http://www.w3.org/2000/svg" xmlns:xlink="http://www.w3.org/1999/xlink" x="0px" y="0px"
	 viewBox="0 0 280 280" style="enable-background:new 0 0 280 280;" xml:space="preserve">
<style type="text/css">
	.st0{fill:#3BB9C5;}
	.st1{fill:none;stroke:#3BB9C5;stroke-miterlimit:10;}
	.st2{fill:none;stroke:#3BB9C5;stroke-miterlimit:10;stroke-dasharray:6;}
	.st3{fill:none;stroke:#3BB9C5;stroke-miterlimit:10;stroke-dasharray:6.2166,6.2166;}
	.st4{fill:none;stroke:#3BB9C5;stroke-miterlimit:10;stroke-dasharray:5.9545,5.9545;}
	.st5{fill:none;stroke:#FFFFFF;stroke-width:6;stroke-linecap:round;stroke-linejoin:round;stroke-miterlimit:10;}
	.st6{fill:none;stroke:#3BB9C5;stroke-miterlimit:10;stroke-dasharray:6.5587,6.5587;}
	.st7{fill:none;stroke:#3BB9C5;stroke-miterlimit:10;stroke-dasharray:6.3062,6.3062;}
	.st8{fill:none;stroke:#3BB9C5;stroke-miterlimit:10;stroke-dasharray:5.76,5.76;}
	.st9{fill:none;stroke:#3BB9C5;stroke-miterlimit:10;stroke-dasharray:6.2812,6.2812;}
	.st10{fill:none;stroke:#3BB9C5;stroke-miterlimit:10;stroke-dasharray:6.5502,6.5502;}
	.st11{fill:url(#);stroke:#00A9B7;stroke-miterlimit:10;}
	.st12{fill:#00A9B7;}
</style>
<g>
	<line class="st5" x1="103" y1="199" x2="103.2" y2="199"/>
	<polyline class="st1" points="65.5,134 99.6,74.9 103,69 103.2,69 110.2,69 170.5,69 177.4,69 178,69 181.7,75.5 215.5,134 	"/>
	<line class="st5" x1="178" y1="199" x2="177.4" y2="199"/>
	<g>
		<circle class="st0" cx="177.4" cy="70.1" r="7"/>
	</g>
	<g>
		<circle class="st0" cx="177.4" cy="198.1" r="7"/>
	</g>
	<g>
		<circle class="st0" cx="103.2" cy="69" r="7"/>
	</g>
	<g>
		<circle class="st0" cx="103" cy="199" r="7"/>
	</g>
	<line class="st1" x1="103.2" y1="69" x2="103.2" y2="134"/>
	<line class="st1" x1="177.4" y1="69" x2="177.4" y2="134"/>
	<g>
		<g>
			<line class="st1" x1="177.4" y1="134" x2="177.4" y2="137"/>
			<line class="st6" x1="177.4" y1="143.6" x2="177.4" y2="192.7"/>
			<polyline class="st1" points="177.4,196 177.4,199 178.9,196.4 			"/>
			<line class="st7" x1="182.1" y1="191" x2="212.4" y2="139.3"/>
			<polyline class="st1" points="214,136.6 215.5,134 212.5,134 			"/>
			<line class="st8" x1="206.7" y1="134" x2="71.4" y2="134"/>
			<polyline class="st1" points="68.5,134 65.5,134 67,136.6 			"/>
			<line class="st9" x1="70.2" y1="142" x2="100.1" y2="193.6"/>
			<polyline class="st1" points="101.7,196.4 103.2,199 103.2,196 			"/>
			<line class="st10" x1="103.2" y1="189.4" x2="103.2" y2="140.3"/>
			<line class="st1" x1="103.2" y1="137" x2="103.2" y2="134"/>
		</g>
	</g>
	<line class="st1" x1="110.2" y1="182.4" x2="110.2" y2="188.2"/>
	<line class="st1" x1="113.3" y1="182.4" x2="113.3" y2="188.2"/>
	<line class="st1" x1="110.2" y1="78.4" x2="110.2" y2="84.2"/>
	<line class="st1" x1="170.5" y1="81.3" x2="164.7" y2="81.3"/>
	<line class="st1" x1="170.5" y1="183.7" x2="164.7" y2="183.7"/>
	<line class="st1" x1="170.5" y1="187.5" x2="164.7" y2="187.5"/>
	<line class="st2" x1="103.2" y1="199" x2="177.4" y2="199"/>
	<line class="st1" x1="65.5" y1="134" x2="215.5" y2="134"/>
</g>
</svg>
