<?xml version="1.0" encoding="utf-8"?>
<!-- Generator: Adobe Illustrator 21.1.0, SVG Export Plug-In . SVG Version: 6.00 Build 0)  -->
<svg version="1.1" id="Layer_1" xmlns="http://www.w3.org/2000/svg" xmlns:xlink="http://www.w3.org/1999/xlink" x="0px" y="0px"
	 viewBox="0 0 280 280" style="enable-background:new 0 0 280 280;" xml:space="preserve">
<style type="text/css">
	.st0{fill:#3BB9C5;}
	.st1{fill:none;stroke:#3BB9C5;stroke-miterlimit:10;}
	.st2{fill:none;stroke:#3BB9C5;stroke-miterlimit:10;stroke-dasharray:6;}
	.st3{fill:none;stroke:#3BB9C5;stroke-miterlimit:10;stroke-dasharray:6.2166,6.2166;}
	.st4{fill:none;stroke:#3BB9C5;stroke-miterlimit:10;stroke-dasharray:5.9545,5.9545;}
	.st5{fill:none;stroke:#FFFFFF;stroke-width:6;stroke-linecap:round;stroke-linejoin:round;stroke-miterlimit:10;}
	.st6{fill:none;stroke:#3BB9C5;stroke-miterlimit:10;stroke-dasharray:6.5587,6.5587;}
	.st7{fill:none;stroke:#3BB9C5;stroke-miterlimit:10;stroke-dasharray:6.3062,6.3062;}
	.st8{fill:none;stroke:#3BB9C5;stroke-miterlimit:10;stroke-dasharray:5.76,5.76;}
	.st9{fill:none;stroke:#3BB9C5;stroke-miterlimit:10;stroke-dasharray:6.2812,6.2812;}
	.st10{fill:none;stroke:#3BB9C5;stroke-miterlimit:10;stroke-dasharray:6.5502,6.5502;}
	.st11{fill:url(#);stroke:#00A9B7;stroke-miterlimit:10;}
	.st12{fill:#00A9B7;}
</style>
<g>
	<circle class="st0" cx="129.9" cy="179.5" r="7"/>
	<circle class="st0" cx="153.3" cy="198.6" r="7"/>
	<circle class="st0" cx="136.9" cy="161.7" r="7"/>
	<path class="st0" d="M104,79.8c0.9-3.8,4.6-6.1,8.4-5.2s6.1,4.6,5.2,8.4c-0.9,3.8-4.6,6.1-8.4,5.2"/>
	<circle class="st0" cx="126.7" cy="81.4" r="7"/>
	<circle class="st0" cx="141.6" cy="81.4" r="7"/>
	<circle class="st0" cx="156.6" cy="81.4" r="7"/>
	<path class="st0" d="M168.4,87.7c-2.3-1.1-3.9-3.5-3.9-6.3c0-3.2,2.1-5.9,5.1-6.7c0.6-0.2,1.2-0.3,1.9-0.3s1.3,0.1,1.9,0.3
		c0.7,0.2,1.4,0.5,2,0.9h0L168.4,87.7z"/>
	<path class="st0" d="M118.8,97.7c0,1.8-0.7,3.5-1.9,4.8l-6.7-11.6c0.5-0.1,1.1-0.2,1.6-0.2C115.6,90.7,118.8,93.8,118.8,97.7z"/>
	<circle class="st0" cx="126.7" cy="97.7" r="7"/>
	<circle class="st0" cx="141.6" cy="97.7" r="7"/>
	<path class="st0" d="M159.3,104.4c-3.7,1-7.5-1.2-8.5-5c-1-3.7,1.2-7.5,5-8.5c3.7-1,7.5,1.2,8.5,5"/>
	<path class="st0" d="M127.5,120.8c3.5-0.4,6.2-3.3,6.2-6.9c0-3.9-3.1-7-7-7c-2.3,0-4.4,1.1-5.6,2.9L127.5,120.8z"/>
	<circle class="st0" cx="141.6" cy="113.9" r="7"/>
	<path class="st0" d="M150.9,118L150.9,118c-0.9-1.2-1.4-2.6-1.4-4.1c0-3.9,3.1-7,7-7c0.3,0,0.5,0,0.8,0h0L150.9,118z"/>
	<path class="st0" d="M140,136.9C140,136.9,140,136.9,140,136.9c-3.1-0.7-5.4-3.5-5.4-6.8c0-3.9,3.1-7,7-7c2,0,3.8,0.8,5.1,2.2
		L140,136.9z"/>
	<path class="st1" d="M175.5,75.4l-0.1,0.2l-1.5,2.6l-5.5,9.5l-5,8.7l-4.5,7.9l-1.6,2.7l-6.4,11.1l-4.2,7.3l-6.7,11.6l-1.2,2.1
		c0,0.1-0.1,0.1-0.2,0.2c-0.2,0.1-0.5,0.1-0.7-0.2l-10.5-18.2l-6.4-11.1l-4.2-7.3l-6.7-11.6l-2-3.4v0l-3.4-5.9v0l-3.5-6.1
		c0-0.1-0.1-0.2-0.1-0.2c0-0.3,0.2-0.5,0.5-0.5h73.4c0.1,0,0.2,0,0.2,0.1C175.6,74.9,175.6,75.2,175.5,75.4z"/>
	<path class="st1" d="M110.2,90.9l-2-3.4v0l-3.4-5.9v0v0l-3.5-6.1c-0.1-0.2-0.4-0.3-0.7-0.2c-0.1,0-0.1,0.1-0.2,0.2l-37,64
		c-0.1,0.2-0.1,0.3,0,0.5l37,64c0.1,0.2,0.4,0.3,0.7,0.2c0.1,0,0.1-0.1,0.2-0.2l37-64c0.1-0.2,0.1-0.3,0-0.5L138,139l-10.5-18.2
		l-6.4-11.1l-4.2-7.3"/>
	<path class="st1" d="M175.5,75.4l-37,64c-0.1,0.1-0.1,0.3,0,0.5l37,64c0.1,0.2,0.4,0.3,0.7,0.2c0.1,0,0.1-0.1,0.2-0.2l37-64
		c0.1-0.1,0.1-0.3,0-0.5l-37-64c-0.1-0.2-0.4-0.3-0.7-0.2C175.6,75.3,175.6,75.4,175.5,75.4z"/>
	<path class="st1" d="M101.7,204.8h73.4c0.3,0,0.5-0.2,0.5-0.5c0-0.1,0-0.2-0.1-0.2l-36.7-63.6c-0.1-0.2-0.4-0.3-0.7-0.2
		c-0.1,0-0.1,0.1-0.2,0.2L101.3,204c-0.1,0.2-0.1,0.5,0.2,0.7C101.5,204.7,101.6,204.8,101.7,204.8z"/>
	<line class="st1" x1="173.9" y1="78.3" x2="173.9" y2="78.3"/>
</g>
</svg>
