<?xml version="1.0" encoding="utf-8"?>
<!-- Generator: Adobe Illustrator 21.1.0, SVG Export Plug-In . SVG Version: 6.00 Build 0)  -->
<svg version="1.1" id="Layer_1" xmlns="http://www.w3.org/2000/svg" xmlns:xlink="http://www.w3.org/1999/xlink" x="0px" y="0px"
	 viewBox="0 0 280 280" style="enable-background:new 0 0 280 280;" xml:space="preserve">
<style type="text/css">
	.st0{fill:#3BB9C5;}
	.st1{fill:none;stroke:#3BB9C5;stroke-miterlimit:10;}
	.st2{fill:none;stroke:#3BB9C5;stroke-miterlimit:10;stroke-dasharray:6;}
	.st3{fill:none;stroke:#3BB9C5;stroke-miterlimit:10;stroke-dasharray:6.2166,6.2166;}
	.st4{fill:none;stroke:#3BB9C5;stroke-miterlimit:10;stroke-dasharray:5.9545,5.9545;}
	.st5{fill:none;stroke:#FFFFFF;stroke-width:6;stroke-linecap:round;stroke-linejoin:round;stroke-miterlimit:10;}
	.st6{fill:none;stroke:#3BB9C5;stroke-miterlimit:10;stroke-dasharray:6.5587,6.5587;}
	.st7{fill:none;stroke:#3BB9C5;stroke-miterlimit:10;stroke-dasharray:6.3062,6.3062;}
	.st8{fill:none;stroke:#3BB9C5;stroke-miterlimit:10;stroke-dasharray:5.76,5.76;}
	.st9{fill:none;stroke:#3BB9C5;stroke-miterlimit:10;stroke-dasharray:6.2812,6.2812;}
	.st10{fill:none;stroke:#3BB9C5;stroke-miterlimit:10;stroke-dasharray:6.5502,6.5502;}
	.st11{fill:url(#);stroke:#00A9B7;stroke-miterlimit:10;}
	.st12{fill:#00A9B7;}
</style>
<g>
	<polyline class="st1" points="75,152.2 76.5,152.2 76.5,148.8 73.1,148.8 73.1,149 	"/>
	<g>
		<path class="st0" d="M142.8,141.6l4.2,7.2l3.5,6.1l1.1,2l1.4,2.3l1.1,1.8l0.3,0.5l2,3.4l1.4,2.4l0.8,1.4l2.5,4.3l0.3,0.5l2.7,4.8
			l1.6,2.8l4.7,8.1l1.7,2.9l2.9,5l0.1,0.2l3.7,6.4H107l3.7-6.5l0-0.1l5.7-9.8l1-1.8l9.8-17l3.4-5.9l0.2-0.3l1.8-3.1l3-5.1l0.8-1.4
			l1.1-2L142.8,141.6 M142.8,140.1c-0.2,0-0.3,0.1-0.4,0.2l-5.7,9.9l-1.1,2l-0.8,1.4l-3,5.1l-1.8,3.1l-0.2,0.3l-3.4,5.9l-9.8,17
			l-1,1.8l-5.7,9.8l0,0.1l-4.2,7.3c0,0,0,0.1,0,0.1c-0.1,0.3,0.1,0.5,0.3,0.6c0,0,0,0,0.1,0s0,0,0.1,0h73.4c0,0,0,0,0,0
			c0.1,0,0.2,0,0.2-0.1c0.2-0.1,0.3-0.4,0.2-0.7l-4.1-7.2l-0.1-0.2l-2.9-5l-1.7-2.9l-4.7-8.1l-1.6-2.8l-2.7-4.8l-0.3-0.5l-2.5-4.3
			l-0.8-1.3l-1.4-2.4l-2-3.4l-0.3-0.5l-1.1-1.8l-1.4-2.3l-1.1-2l-3.5-6.1l-4.6-8c0-0.1-0.1-0.1-0.1-0.1
			C143,140.1,142.9,140.1,142.8,140.1L142.8,140.1z"/>
	</g>
	<path class="st1" d="M144.6,136.5l-1.4,2.4l0,0l-0.3,0.5c-0.1,0.1-0.1,0.3,0,0.5l0.3,0.5l0,0l0,0l36.7,63.6
		c0.1,0.2,0.4,0.3,0.7,0.2c0.1,0,0.1-0.1,0.2-0.2l37-64.1c0.1-0.2,0.1-0.3,0-0.5l-37-64c-0.1-0.2-0.4-0.3-0.7-0.2
		c-0.1,0-0.1,0.1-0.2,0.2l-2.2,3.8l-4.2,7.2l-3.9,6.7l0,0l-2.1,3.7l0,0l-1.2,2l-4.1,7.1l-3.6,6.3l0,0l-2.7,4.6l-8.4,14.6"/>
	<path class="st1" d="M130.7,118.7l-7-12.1l-0.4-0.7l-0.8-1.4l-3-5.3l-7-12.1l-4.2-7.3l-2.5-4.3c-0.1-0.2-0.4-0.3-0.6-0.2
		c-0.1,0-0.1,0.1-0.2,0.2l-37,64c-0.1,0.1-0.1,0.3,0,0.5l32,55.5l0.7,1.3l4.2,7.3c0.1,0.2,0.4,0.3,0.6,0.2c0.1,0,0.1-0.1,0.2-0.2
		l4.2-7.3l0-0.1l5.7-9.8l1-1.8l0,0l9.8-17l3.4-5.9l0.2-0.3l0,0l1.8-3.1l3-5.1l0.8-1.4l1.1-2l5.7-9.9l0.3-0.5c0.1-0.2,0.1-0.3,0-0.5
		l-0.3-0.5l0,0l0,0l0,0l-2.4-4.1l0,0l-0.3-0.5l0,0l-3.9-6.7l-0.8-1.5l-1.1-1.9"/>
	<g>
		<path class="st0" d="M178.6,75.6l-1.7,3l-2,3.5l-2.2,3.9l-2.5,4.3l-1.4,2.5l-2.1,3.7l-1.1,2l0,0l-4.1,7.2l-0.5,1l-3.1,5.4
			l-1.6,2.7l-1.1,1.9l-3.6,6.3l-4.7,8.2l-0.2,0.3l-3.1,5.4l-0.9,1.6l-1.9-3.3l-0.3-0.5l-3.9-6.8l-0.8-1.5l-1.1-1.9l-3.2-5.6l-7-12.3
			l-0.4-0.7l-0.8-1.4l-3-5.4l-7-12.3l-4.2-7.5l-2.1-3.7H178.6 M106.1,74.6c-0.1,0-0.2,0-0.2,0.1c-0.2,0.1-0.3,0.4-0.2,0.7l2.5,4.4
			l4.2,7.5l7,12.3l3,5.4l0.8,1.4l0.4,0.7l7,12.3l3.2,5.6l1.1,1.9l0.8,1.5l3.9,6.8l0.3,0.5l2.4,4.1c0,0.1,0.1,0.1,0.2,0.2
			c0.1,0,0.2,0.1,0.2,0.1c0.2,0,0.3-0.1,0.4-0.2l1.4-2.4l3.1-5.4l0.2-0.3l4.7-8.2l3.6-6.3l1.1-1.9l1.6-2.7l3.1-5.4l0.5-1l4.1-7.2
			l0-0.1l1.1-2l2.1-3.7l1.4-2.5l2.5-4.3l2.2-3.9l2-3.5l2.2-3.8c0-0.1,0-0.1,0.1-0.2c0-0.3-0.2-0.5-0.5-0.5H106.1L106.1,74.6
			L106.1,74.6z"/>
	</g>
	<g>
		<path class="st0" d="M102.2,89.3v1.3h-1.3v-1.3H102.2 M103.2,88.3h-3.3v3.3h3.3V88.3L103.2,88.3z"/>
	</g>
	<g>
		<path class="st0" d="M108.9,89.3v1.3h-1.3v-1.3H108.9 M109.9,88.3h-3.3v3.3h3.3V88.3L109.9,88.3z"/>
	</g>
	<g>
		<path class="st0" d="M102.2,84.4v1.3h-1.3v-1.3H102.2 M103.2,83.4h-3.3v3.3h3.3V83.4L103.2,83.4z"/>
	</g>
	<g>
		<path class="st0" d="M108.9,84.4v1.3h-1.3v-1.3H108.9 M109.9,83.4h-3.3v3.3h3.3V83.4L109.9,83.4z"/>
	</g>
	<g>
		<path class="st0" d="M102.2,94.3v1.3h-1.3v-1.3H102.2 M103.2,93.3h-3.3v3.3h3.3V93.3L103.2,93.3z"/>
	</g>
	<g>
		<path class="st0" d="M108.9,94.3v1.3h-1.3v-1.3H108.9 M109.9,93.3h-3.3v3.3h3.3V93.3L109.9,93.3z"/>
	</g>
	<g>
		<path class="st0" d="M102.2,99.2v1.3h-1.3v-1.3H102.2 M103.2,98.2h-3.3v3.3h3.3V98.2L103.2,98.2z"/>
	</g>
	<g>
		<path class="st0" d="M95.5,94.3v1.3h-1.3v-1.3H95.5 M96.5,93.3h-3.3v3.3h3.3V93.3L96.5,93.3z"/>
	</g>
	<g>
		<path class="st0" d="M95.5,99.2v1.3h-1.3v-1.3H95.5 M96.5,98.2h-3.3v3.3h3.3V98.2L96.5,98.2z"/>
	</g>
	<g>
		<path class="st0" d="M108.9,99.2v1.3h-1.3v-1.3H108.9 M109.9,98.2h-3.3v3.3h3.3V98.2L109.9,98.2z"/>
	</g>
	<g>
		<path class="st0" d="M115.6,94.3v1.3h-1.3v-1.3H115.6 M116.6,93.3h-3.3v3.3h3.3V93.3L116.6,93.3z"/>
	</g>
	<g>
		<path class="st0" d="M115.6,99.2v1.3h-1.3v-1.3H115.6 M116.6,98.2h-3.3v3.3h3.3V98.2L116.6,98.2z"/>
	</g>
	<g>
		<path class="st0" d="M102.2,105.4v1.3h-1.3v-1.3H102.2 M103.2,104.4h-3.3v3.3h3.3V104.4L103.2,104.4z"/>
	</g>
	<g>
		<path class="st0" d="M108.9,105.4v1.3h-1.3v-1.3H108.9 M109.9,104.4h-3.3v3.3h3.3V104.4L109.9,104.4z"/>
	</g>
	<g>
		<path class="st0" d="M102.2,110.3v1.3h-1.3v-1.3H102.2 M103.2,109.3h-3.3v3.3h3.3V109.3L103.2,109.3z"/>
	</g>
	<g>
		<path class="st0" d="M108.9,110.3v1.3h-1.3v-1.3H108.9 M109.9,109.3h-3.3v3.3h3.3V109.3L109.9,109.3z"/>
	</g>
	<g>
		<path class="st0" d="M102.2,115.3v1.3h-1.3v-1.3H102.2 M103.2,114.3h-3.3v3.3h3.3V114.3L103.2,114.3z"/>
	</g>
	<g>
		<path class="st0" d="M108.9,115.3v1.3h-1.3v-1.3H108.9 M109.9,114.3h-3.3v3.3h3.3V114.3L109.9,114.3z"/>
	</g>
	<g>
		<path class="st0" d="M102.2,120.2v1.3h-1.3v-1.3H102.2 M103.2,119.2h-3.3v3.3h3.3V119.2L103.2,119.2z"/>
	</g>
	<g>
		<path class="st0" d="M108.9,120.2v1.3h-1.3v-1.3H108.9 M109.9,119.2h-3.3v3.3h3.3V119.2L109.9,119.2z"/>
	</g>
	<g>
		<path class="st0" d="M102.2,125.1v1.3h-1.3v-1.3H102.2 M103.2,124.1h-3.3v3.3h3.3V124.1L103.2,124.1z"/>
	</g>
	<g>
		<path class="st0" d="M108.9,125.1v1.3h-1.3v-1.3H108.9 M109.9,124.1h-3.3v3.3h3.3V124.1L109.9,124.1z"/>
	</g>
	<g>
		<path class="st0" d="M102.2,130.1v1.3h-1.3v-1.3H102.2 M103.2,129.1h-3.3v3.3h3.3V129.1L103.2,129.1z"/>
	</g>
	<g>
		<path class="st0" d="M108.9,130.1v1.3h-1.3v-1.3H108.9 M109.9,129.1h-3.3v3.3h3.3V129.1L109.9,129.1z"/>
	</g>
	<g>
		<path class="st0" d="M102.2,135v1.3h-1.3V135H102.2 M103.2,134h-3.3v3.3h3.3V134L103.2,134z"/>
	</g>
	<g>
		<path class="st0" d="M108.9,135v1.3h-1.3V135H108.9 M109.9,134h-3.3v3.3h3.3V134L109.9,134z"/>
	</g>
	<g>
		<path class="st0" d="M102.2,139.9v1.3h-1.3v-1.3H102.2 M103.2,138.9h-3.3v3.3h3.3V138.9L103.2,138.9z"/>
	</g>
	<g>
		<path class="st0" d="M108.9,139.9v1.3h-1.3v-1.3H108.9 M109.9,138.9h-3.3v3.3h3.3V138.9L109.9,138.9z"/>
	</g>
	<g>
		<path class="st0" d="M102.2,144.9v1.3h-1.3v-1.3H102.2 M103.2,143.9h-3.3v3.3h3.3V143.9L103.2,143.9z"/>
	</g>
	<g>
		<path class="st0" d="M108.9,144.9v1.3h-1.3v-1.3H108.9 M109.9,143.9h-3.3v3.3h3.3V143.9L109.9,143.9z"/>
	</g>
	<g>
		<path class="st0" d="M102.2,149.8v1.3h-1.3v-1.3H102.2 M103.2,148.8h-3.3v3.3h3.3V148.8L103.2,148.8z"/>
	</g>
	<g>
		<path class="st0" d="M108.9,149.8v1.3h-1.3v-1.3H108.9 M109.9,148.8h-3.3v3.3h3.3V148.8L109.9,148.8z"/>
	</g>
	<g>
		<path class="st0" d="M102.2,153.5v1.3h-1.3v-1.3H102.2 M103.2,152.5h-3.3v3.3h3.3V152.5L103.2,152.5z"/>
	</g>
	<g>
		<path class="st0" d="M108.9,153.5v1.3h-1.3v-1.3H108.9 M109.9,152.5h-3.3v3.3h3.3V152.5L109.9,152.5z"/>
	</g>
	<g>
		<path class="st0" d="M102.2,158.4v1.3h-1.3v-1.3H102.2 M103.2,157.4h-3.3v3.3h3.3V157.4L103.2,157.4z"/>
	</g>
	<g>
		<path class="st0" d="M108.9,158.4v1.3h-1.3v-1.3H108.9 M109.9,157.4h-3.3v3.3h3.3V157.4L109.9,157.4z"/>
	</g>
	<g>
		<path class="st0" d="M102.2,163.3v1.3h-1.3v-1.3H102.2 M103.2,162.3h-3.3v3.3h3.3V162.3L103.2,162.3z"/>
	</g>
	<g>
		<path class="st0" d="M108.9,163.3v1.3h-1.3v-1.3H108.9 M109.9,162.3h-3.3v3.3h3.3V162.3L109.9,162.3z"/>
	</g>
	<g>
		<path class="st0" d="M102.2,168.3v1.3h-1.3v-1.3H102.2 M103.2,167.3h-3.3v3.3h3.3V167.3L103.2,167.3z"/>
	</g>
	<g>
		<path class="st0" d="M108.9,168.3v1.3h-1.3v-1.3H108.9 M109.9,167.3h-3.3v3.3h3.3V167.3L109.9,167.3z"/>
	</g>
	<g>
		<path class="st0" d="M115.6,105.4v1.3h-1.3v-1.3H115.6 M116.6,104.4h-3.3v3.3h3.3V104.4L116.6,104.4z"/>
	</g>
	<g>
		<polygon class="st0" points="123.3,104.4 122.5,104.4 123.3,105.8 123.3,104.4 		"/>
	</g>
	<g>
		<path class="st0" d="M115.6,110.3v1.3h-1.3v-1.3H115.6 M116.6,109.3h-3.3v3.3h3.3V109.3L116.6,109.3z"/>
	</g>
	<g>
		<path class="st0" d="M122.3,110.3v1.3h-1.3v-1.3H122.3 M123.3,109.3h-3.3v3.3h3.3V109.3L123.3,109.3z"/>
	</g>
	<g>
		<path class="st0" d="M122.3,105.4v1.3h-1.3v-1.3H122.3 M123.3,104.4h-3.3v3.3h3.3V104.4L123.3,104.4z"/>
	</g>
	<g>
		<path class="st0" d="M115.6,115.3v1.3h-1.3v-1.3H115.6 M116.6,114.3h-3.3v3.3h3.3V114.3L116.6,114.3z"/>
	</g>
	<g>
		<path class="st0" d="M122.3,115.3v1.3h-1.3v-1.3H122.3 M123.3,114.3h-3.3v3.3h3.3V114.3L123.3,114.3z"/>
	</g>
	<g>
		<path class="st0" d="M115.6,120.2v1.3h-1.3v-1.3H115.6 M116.6,119.2h-3.3v3.3h3.3V119.2L116.6,119.2z"/>
	</g>
	<g>
		<path class="st0" d="M122.3,120.2v1.3h-1.3v-1.3H122.3 M123.3,119.2h-3.3v3.3h3.3V119.2L123.3,119.2z"/>
	</g>
	<g>
		<path class="st0" d="M115.6,125.1v1.3h-1.3v-1.3H115.6 M116.6,124.1h-3.3v3.3h3.3V124.1L116.6,124.1z"/>
	</g>
	<g>
		<path class="st0" d="M122.3,125.1v1.3h-1.3v-1.3H122.3 M123.3,124.1h-3.3v3.3h3.3V124.1L123.3,124.1z"/>
	</g>
	<g>
		<path class="st0" d="M115.6,130.1v1.3h-1.3v-1.3H115.6 M116.6,129.1h-3.3v3.3h3.3V129.1L116.6,129.1z"/>
	</g>
	<g>
		<path class="st0" d="M122.3,130.1v1.3h-1.3v-1.3H122.3 M123.3,129.1h-3.3v3.3h3.3V129.1L123.3,129.1z"/>
	</g>
	<g>
		<path class="st0" d="M115.6,135v1.3h-1.3V135H115.6 M116.6,134h-3.3v3.3h3.3V134L116.6,134z"/>
	</g>
	<g>
		<path class="st0" d="M122.3,135v1.3h-1.3V135H122.3 M123.3,134h-3.3v3.3h3.3V134L123.3,134z"/>
	</g>
	<g>
		<path class="st0" d="M115.6,139.9v1.3h-1.3v-1.3H115.6 M116.6,138.9h-3.3v3.3h3.3V138.9L116.6,138.9z"/>
	</g>
	<g>
		<path class="st0" d="M122.3,139.9v1.3h-1.3v-1.3H122.3 M123.3,138.9h-3.3v3.3h3.3V138.9L123.3,138.9z"/>
	</g>
	<g>
		<path class="st0" d="M115.6,144.9v1.3h-1.3v-1.3H115.6 M116.6,143.9h-3.3v3.3h3.3V143.9L116.6,143.9z"/>
	</g>
	<g>
		<path class="st0" d="M122.3,144.9v1.3h-1.3v-1.3H122.3 M123.3,143.9h-3.3v3.3h3.3V143.9L123.3,143.9z"/>
	</g>
	<g>
		<path class="st0" d="M115.6,149.8v1.3h-1.3v-1.3H115.6 M116.6,148.8h-3.3v3.3h3.3V148.8L116.6,148.8z"/>
	</g>
	<g>
		<path class="st0" d="M122.3,149.8v1.3h-1.3v-1.3H122.3 M123.3,148.8h-3.3v3.3h3.3V148.8L123.3,148.8z"/>
	</g>
	<g>
		<path class="st0" d="M115.6,153.5v1.3h-1.3v-1.3H115.6 M116.6,152.5h-3.3v3.3h3.3V152.5L116.6,152.5z"/>
	</g>
	<g>
		<path class="st0" d="M122.3,153.5v1.3h-1.3v-1.3H122.3 M123.3,152.5h-3.3v3.3h3.3V152.5L123.3,152.5z"/>
	</g>
	<g>
		<path class="st0" d="M115.6,158.4v1.3h-1.3v-1.3H115.6 M116.6,157.4h-3.3v3.3h3.3V157.4L116.6,157.4z"/>
	</g>
	<g>
		<path class="st0" d="M122.3,158.4v1.3h-1.3v-1.3H122.3 M123.3,157.4h-3.3v3.3h3.3V157.4L123.3,157.4z"/>
	</g>
	<g>
		<path class="st0" d="M129,158.4v1.3h-1.3v-1.3H129 M130,157.4h-3.3v3.3h3.3V157.4L130,157.4z"/>
	</g>
	<g>
		<path class="st0" d="M115.6,163.3v1.3h-1.3v-1.3H115.6 M116.6,162.3h-3.3v3.3h3.3V162.3L116.6,162.3z"/>
	</g>
	<g>
		<path class="st0" d="M122.3,163.3v1.3h-1.3v-1.3H122.3 M123.3,162.3h-3.3v3.3h3.3V162.3L123.3,162.3z"/>
	</g>
	<g>
		<path class="st0" d="M115.6,168.3v1.3h-1.3v-1.3H115.6 M116.6,167.3h-3.3v3.3h3.3V167.3L116.6,167.3z"/>
	</g>
	<g>
		<path class="st0" d="M115.6,173.2v1.3h-1.3v-1.3H115.6 M116.6,172.2h-3.3v3.3h3.3V172.2L116.6,172.2z"/>
	</g>
	<g>
		<path class="st0" d="M115.6,178.1v1.3h-1.3v-1.3H115.6 M116.6,177.1h-3.3v3.3h3.3V177.1L116.6,177.1z"/>
	</g>
	<polyline class="st1" points="116.6,183.6 116.6,183.6 116.6,182.1 113.2,182.1 113.2,185.4 115.6,185.4 	"/>
	<g>
		<path class="st0" d="M122.3,168.3v1.3h-1.3v-1.3H122.3 M123.3,167.3h-3.3v3.3h3.3V167.3L123.3,167.3z"/>
	</g>
	<g>
		<path class="st0" d="M88.8,105.4v1.3h-1.3v-1.3H88.8 M89.8,104.4h-3.3v3.3h3.3V104.4L89.8,104.4z"/>
	</g>
	<g>
		<path class="st0" d="M95.5,105.4v1.3h-1.3v-1.3H95.5 M96.5,104.4h-3.3v3.3h3.3V104.4L96.5,104.4z"/>
	</g>
	<g>
		<path class="st0" d="M88.8,110.3v1.3h-1.3v-1.3H88.8 M89.8,109.3h-3.3v3.3h3.3V109.3L89.8,109.3z"/>
	</g>
	<g>
		<path class="st0" d="M95.5,110.3v1.3h-1.3v-1.3H95.5 M96.5,109.3h-3.3v3.3h3.3V109.3L96.5,109.3z"/>
	</g>
	<g>
		<path class="st0" d="M88.8,115.3v1.3h-1.3v-1.3H88.8 M89.8,114.3h-3.3v3.3h3.3V114.3L89.8,114.3z"/>
	</g>
	<g>
		<path class="st0" d="M95.5,115.3v1.3h-1.3v-1.3H95.5 M96.5,114.3h-3.3v3.3h3.3V114.3L96.5,114.3z"/>
	</g>
	<g>
		<path class="st0" d="M88.8,120.2v1.3h-1.3v-1.3H88.8 M89.8,119.2h-3.3v3.3h3.3V119.2L89.8,119.2z"/>
	</g>
	<g>
		<path class="st0" d="M82.2,120.2v1.3h-1.3v-1.3H82.2 M83.2,119.2h-3.3v3.3h3.3V119.2L83.2,119.2z"/>
	</g>
	<g>
		<path class="st0" d="M95.5,120.2v1.3h-1.3v-1.3H95.5 M96.5,119.2h-3.3v3.3h3.3V119.2L96.5,119.2z"/>
	</g>
	<g>
		<path class="st0" d="M88.8,125.1v1.3h-1.3v-1.3H88.8 M89.8,124.1h-3.3v3.3h3.3V124.1L89.8,124.1z"/>
	</g>
	<g>
		<path class="st0" d="M95.5,125.1v1.3h-1.3v-1.3H95.5 M96.5,124.1h-3.3v3.3h3.3V124.1L96.5,124.1z"/>
	</g>
	<g>
		<path class="st0" d="M88.8,130.1v1.3h-1.3v-1.3H88.8 M89.8,129.1h-3.3v3.3h3.3V129.1L89.8,129.1z"/>
	</g>
	<g>
		<path class="st0" d="M95.5,130.1v1.3h-1.3v-1.3H95.5 M96.5,129.1h-3.3v3.3h3.3V129.1L96.5,129.1z"/>
	</g>
	<g>
		<path class="st0" d="M88.8,135v1.3h-1.3V135H88.8 M89.8,134h-3.3v3.3h3.3V134L89.8,134z"/>
	</g>
	<g>
		<path class="st0" d="M95.5,135v1.3h-1.3V135H95.5 M96.5,134h-3.3v3.3h3.3V134L96.5,134z"/>
	</g>
	<g>
		<path class="st0" d="M88.8,139.9v1.3h-1.3v-1.3H88.8 M89.8,138.9h-3.3v3.3h3.3V138.9L89.8,138.9z"/>
	</g>
	<g>
		<path class="st0" d="M95.5,139.9v1.3h-1.3v-1.3H95.5 M96.5,138.9h-3.3v3.3h3.3V138.9L96.5,138.9z"/>
	</g>
	<g>
		<path class="st0" d="M88.8,144.9v1.3h-1.3v-1.3H88.8 M89.8,143.9h-3.3v3.3h3.3V143.9L89.8,143.9z"/>
	</g>
	<g>
		<path class="st0" d="M95.5,144.9v1.3h-1.3v-1.3H95.5 M96.5,143.9h-3.3v3.3h3.3V143.9L96.5,143.9z"/>
	</g>
	<g>
		<path class="st0" d="M88.8,149.8v1.3h-1.3v-1.3H88.8 M89.8,148.8h-3.3v3.3h3.3V148.8L89.8,148.8z"/>
	</g>
	<g>
		<path class="st0" d="M95.5,149.8v1.3h-1.3v-1.3H95.5 M96.5,148.8h-3.3v3.3h3.3V148.8L96.5,148.8z"/>
	</g>
	<g>
		<path class="st0" d="M88.8,153.5v1.3h-1.3v-1.3H88.8 M89.8,152.5h-3.3v3.3h3.3V152.5L89.8,152.5z"/>
	</g>
	<g>
		<path class="st0" d="M95.5,153.5v1.3h-1.3v-1.3H95.5 M96.5,152.5h-3.3v3.3h3.3V152.5L96.5,152.5z"/>
	</g>
	<g>
		<path class="st0" d="M129,120.2v1.3h-1.3v-1.3H129 M130,119.2h-3.3v3.3h3.3V119.2L130,119.2z"/>
	</g>
	<g>
		<path class="st0" d="M129,125.1v1.3h-1.3v-1.3H129 M130,124.1h-3.3v3.3h3.3V124.1L130,124.1z"/>
	</g>
	<g>
		<path class="st0" d="M129,130.1v1.3h-1.3v-1.3H129 M130,129.1h-3.3v3.3h3.3V129.1L130,129.1z"/>
	</g>
	<g>
		<path class="st0" d="M135.6,130.1v1.3h-1.3v-1.3H135.6 M136.6,129.1h-3.3v3.3h3.3V129.1L136.6,129.1z"/>
	</g>
	<g>
		<path class="st0" d="M129,135v1.3h-1.3V135H129 M130,134h-3.3v3.3h3.3V134L130,134z"/>
	</g>
	<g>
		<path class="st0" d="M135.6,135v1.3h-1.3V135H135.6 M136.6,134h-3.3v3.3h3.3V134L136.6,134z"/>
	</g>
	<g>
		<path class="st0" d="M129,139.9v1.3h-1.3v-1.3H129 M130,138.9h-3.3v3.3h3.3V138.9L130,138.9z"/>
	</g>
	<g>
		<path class="st0" d="M135.6,139.9v1.3h-1.3v-1.3H135.6 M136.6,138.9h-3.3v3.3h3.3V138.9L136.6,138.9z"/>
	</g>
	<g>
		<path class="st0" d="M129,144.9v1.3h-1.3v-1.3H129 M130,143.9h-3.3v3.3h3.3V143.9L130,143.9z"/>
	</g>
	<g>
		<path class="st0" d="M135.6,144.9v1.3h-1.3v-1.3H135.6 M136.6,143.9h-3.3v3.3h3.3V143.9L136.6,143.9z"/>
	</g>
	<g>
		<path class="st0" d="M129,149.8v1.3h-1.3v-1.3H129 M130,148.8h-3.3v3.3h3.3V148.8L130,148.8z"/>
	</g>
	<polyline class="st1" points="136.6,150.2 136.6,148.8 133.3,148.8 133.3,152 133.3,152.2 134.7,152.2 135.5,152.2 	"/>
	<g>
		<path class="st0" d="M129,153.5v1.3h-1.3v-1.3H129 M130,152.5h-3.3v3.3h3.3V152.5L130,152.5z"/>
	</g>
	<g>
		<path class="st0" d="M82.2,125.1v1.3h-1.3v-1.3H82.2 M83.2,124.1h-3.3v3.3h3.3V124.1L83.2,124.1z"/>
	</g>
	<g>
		<path class="st0" d="M75.5,130.1v1.3h-1.3v-1.3H75.5 M76.5,129.1h-3.3v3.3h3.3V129.1L76.5,129.1z"/>
	</g>
	<g>
		<path class="st0" d="M82.2,130.1v1.3h-1.3v-1.3H82.2 M83.2,129.1h-3.3v3.3h3.3V129.1L83.2,129.1z"/>
	</g>
	<g>
		<path class="st0" d="M75.5,135v1.3h-1.3V135H75.5 M76.5,134h-3.3v3.3h3.3V134L76.5,134z"/>
	</g>
	<g>
		<path class="st0" d="M82.2,135v1.3h-1.3V135H82.2 M83.2,134h-3.3v3.3h3.3V134L83.2,134z"/>
	</g>
	<g>
		<path class="st0" d="M75.5,139.9v1.3h-1.3v-1.3H75.5 M76.5,138.9h-3.3v3.3h3.3V138.9L76.5,138.9z"/>
	</g>
	<g>
		<path class="st0" d="M82.2,139.9v1.3h-1.3v-1.3H82.2 M83.2,138.9h-3.3v3.3h3.3V138.9L83.2,138.9z"/>
	</g>
	<g>
		<path class="st0" d="M75.5,144.9v1.3h-1.3v-1.3H75.5 M76.5,143.9h-3.3v3.3h3.3V143.9L76.5,143.9z"/>
	</g>
	<g>
		<path class="st0" d="M82.2,144.9v1.3h-1.3v-1.3H82.2 M83.2,143.9h-3.3v3.3h3.3V143.9L83.2,143.9z"/>
	</g>
	<g>
		<path class="st0" d="M82.2,149.8v1.3h-1.3v-1.3H82.2 M83.2,148.8h-3.3v3.3h3.3V148.8L83.2,148.8z"/>
	</g>
	<g>
		<path class="st0" d="M82.2,153.5v1.3h-1.3v-1.3H82.2 M83.2,152.5h-3.3v3.3h3.3V152.5L83.2,152.5z"/>
	</g>
	<g>
		<path class="st0" d="M88.8,158.4v1.3h-1.3v-1.3H88.8 M89.8,157.4h-3.3v3.3h3.3V157.4L89.8,157.4z"/>
	</g>
	<g>
		<path class="st0" d="M95.5,158.4v1.3h-1.3v-1.3H95.5 M96.5,157.4h-3.3v3.3h3.3V157.4L96.5,157.4z"/>
	</g>
	<g>
		<path class="st0" d="M88.8,163.3v1.3h-1.3v-1.3H88.8 M89.8,162.3h-3.3v3.3h3.3V162.3L89.8,162.3z"/>
	</g>
	<polyline class="st1" points="80.7,160.8 83.2,160.8 83.2,157.4 79.8,157.4 79.8,159.3 	"/>
	<g>
		<path class="st0" d="M95.5,163.3v1.3h-1.3v-1.3H95.5 M96.5,162.3h-3.3v3.3h3.3V162.3L96.5,162.3z"/>
	</g>
	<g>
		<path class="st0" d="M88.8,168.3v1.3h-1.3v-1.3H88.8 M89.8,167.3h-3.3v3.3h3.3V167.3L89.8,167.3z"/>
	</g>
	<g>
		<path class="st0" d="M95.5,168.3v1.3h-1.3v-1.3H95.5 M96.5,167.3h-3.3v3.3h3.3V167.3L96.5,167.3z"/>
	</g>
	<g>
		<path class="st0" d="M95.5,173.2v1.3h-1.3v-1.3H95.5 M96.5,172.2h-3.3v3.3h3.3V172.2L96.5,172.2z"/>
	</g>
	<polyline class="st1" points="87.3,172.2 89.8,172.2 89.8,175.6 89.2,175.6 	"/>
	<g>
		<path class="st0" d="M95.5,178.1v1.3h-1.3v-1.3H95.5 M96.5,177.1h-3.3v3.3h3.3V177.1L96.5,177.1z"/>
	</g>
	<g>
		<path class="st0" d="M95.5,183.1v1.3h-1.3v-1.3H95.5 M96.5,182.1h-3.3v3.3h3.3V182.1L96.5,182.1z"/>
	</g>
	<g>
		<path class="st0" d="M102.2,173.2v1.3h-1.3v-1.3H102.2 M103.2,172.2h-3.3v3.3h3.3V172.2L103.2,172.2z"/>
	</g>
	<g>
		<path class="st0" d="M108.9,173.2v1.3h-1.3v-1.3H108.9 M109.9,172.2h-3.3v3.3h3.3V172.2L109.9,172.2z"/>
	</g>
	<g>
		<path class="st0" d="M102.2,178.1v1.3h-1.3v-1.3H102.2 M103.2,177.1h-3.3v3.3h3.3V177.1L103.2,177.1z"/>
	</g>
	<g>
		<path class="st0" d="M108.9,178.1v1.3h-1.3v-1.3H108.9 M109.9,177.1h-3.3v3.3h3.3V177.1L109.9,177.1z"/>
	</g>
	<g>
		<path class="st0" d="M102.2,183.1v1.3h-1.3v-1.3H102.2 M103.2,182.1h-3.3v3.3h3.3V182.1L103.2,182.1z"/>
	</g>
	<g>
		<path class="st0" d="M108.9,183.1v1.3h-1.3v-1.3H108.9 M109.9,182.1h-3.3v3.3h3.3V182.1L109.9,182.1z"/>
	</g>
	<g>
		<path class="st0" d="M102.2,188v1.3h-1.3V188H102.2 M103.2,187h-3.3v3.3h3.3V187L103.2,187z"/>
	</g>
	<g>
		<path class="st0" d="M108.9,188v1.3h-1.3V188H108.9 M109.9,187h-3.3v3.3h3.3V187L109.9,187z"/>
	</g>
	<g>
		<path class="st0" d="M102.2,193v1.3h-1.3V193H102.2 M103.2,192h-3.3v3.3h3.3V192L103.2,192z"/>
	</g>
	<g>
		<path class="st0" d="M108.9,193v1.3h-1.3V193H108.9 M109.9,192h-3.3v3.3h3.3V192L109.9,192z"/>
	</g>
	<g>
		<circle class="st0" cx="121.6" cy="81.8" r="4.3"/>
	</g>
	<g>
		<path class="st0" d="M114.9,81.8c0,1.7-1,3.2-2.5,3.9l-4.2-7.3c0.7-0.5,1.6-0.8,2.5-0.8C113,77.5,114.9,79.5,114.9,81.8z"/>
	</g>
	<g>
		<circle class="st0" cx="132.6" cy="81.8" r="4.3"/>
	</g>
	<g>
		<circle class="st0" cx="143.5" cy="81.8" r="4.3"/>
	</g>
	<g>
		<circle class="st0" cx="154.5" cy="81.8" r="4.3"/>
	</g>
	<g>
		<circle class="st0" cx="165.4" cy="81.8" r="4.3"/>
	</g>
	<g>
		<path class="st0" d="M177.7,77.8l-4.2,7.2c-1.8-1.6-1.9-4.3-0.4-6C174.3,77.7,176.1,77.2,177.7,77.8z"/>
	</g>
	<g>
		<circle class="st0" cx="121.6" cy="91.7" r="4.3"/>
	</g>
	<g>
		<circle class="st0" cx="132.6" cy="91.7" r="4.3"/>
	</g>
	<g>
		<circle class="st0" cx="143.5" cy="91.7" r="4.3"/>
	</g>
	<g>
		<circle class="st0" cx="154.5" cy="91.7" r="4.3"/>
	</g>
	<g>
		<path class="st0" d="M169.7,91.7L169.7,91.7c0,1.5-0.8,2.9-2.1,3.7l0,0c-2,1.2-4.6,0.5-5.8-1.6c-1.2-2-0.5-4.6,1.6-5.8
			c2-1.2,4.6-0.5,5.8,1.6C169.5,90.2,169.7,90.9,169.7,91.7L169.7,91.7z"/>
	</g>
	<g>
		<path class="st0" d="M125.9,102.8c0,1.5-0.8,3-2.2,3.7l-0.4-0.7l-0.8-1.4l-3-5.3c0.7-0.4,1.4-0.6,2.2-0.6
			C124,98.6,125.9,100.5,125.9,102.8z"/>
	</g>
	<g>
		<circle class="st0" cx="132.6" cy="102.8" r="4.3"/>
	</g>
	<g>
		<circle class="st0" cx="143.5" cy="102.8" r="4.3"/>
	</g>
	<g>
		<circle class="st0" cx="154.5" cy="102.8" r="4.3"/>
	</g>
	<g>
		<path class="st0" d="M162.3,105.7c-1.6-1.7-1.6-4.4,0.1-6c0.8-0.8,1.9-1.2,3-1.2c0.3,0,0.7,0,1,0.1L162.3,105.7z"/>
	</g>
	<g>
		<path class="st0" d="M150.3,126.7c-1.6-1.7-1.6-4.4,0.1-6c0.8-0.8,1.9-1.2,3-1.2c0.3,0,0.7,0,1,0.1L150.3,126.7z"/>
	</g>
	<g>
		<circle class="st0" cx="132.6" cy="112.6" r="4.3"/>
	</g>
	<g>
		<circle class="st0" cx="143.5" cy="112.6" r="4.3"/>
	</g>
	<g>
		<path class="st0" d="M158.7,112L158.7,112c-0.4-2.3-2.5-3.9-4.9-3.6c-2.3,0.4-3.9,2.5-3.6,4.9c0.3,2.1,2.1,3.6,4.2,3.6
			c0.5,0,1.1-0.1,1.6-0.3L158.7,112z"/>
	</g>
	<g>
		<path class="st0" d="M136.8,122.5c0,1.4-0.7,2.7-1.9,3.5l-1.1-1.9l-3.2-5.5c0.6-0.3,1.2-0.4,1.9-0.4
			C134.9,118.2,136.8,120.1,136.8,122.5C136.8,122.5,136.8,122.5,136.8,122.5z"/>
	</g>
	<g>
		<circle class="st0" cx="143.5" cy="122.5" r="4.3"/>
	</g>
	<g>
		<path class="st0" d="M147.6,131.2l-3.1,5.3c-0.3,0.1-0.7,0.1-1,0.1c-1.4,0-2.7-0.7-3.5-1.8l0,0l0,0l-0.3-0.5l0,0
			c-0.3-0.6-0.4-1.2-0.4-1.9c0-2.4,1.9-4.3,4.2-4.3C145.4,128.1,147.1,129.3,147.6,131.2L147.6,131.2z"/>
	</g>
	<line class="st1" x1="217.6" y1="139.9" x2="217.6" y2="139.2"/>
	<line class="st1" x1="213" y1="148" x2="213" y2="131.2"/>
	<line class="st1" x1="208.3" y1="156" x2="208.3" y2="123.1"/>
	<line class="st1" x1="203.7" y1="164.1" x2="203.7" y2="115"/>
	<line class="st1" x1="199" y1="172.2" x2="199" y2="107"/>
	<line class="st1" x1="194.4" y1="180.2" x2="194.4" y2="98.9"/>
	<line class="st1" x1="189.7" y1="188.3" x2="189.7" y2="90.8"/>
	<line class="st1" x1="185.1" y1="196.4" x2="185.1" y2="82.8"/>
	<line class="st1" x1="180.4" y1="204.1" x2="180.4" y2="75"/>
	<line class="st1" x1="175.7" y1="196.7" x2="175.7" y2="82.4"/>
	<line class="st1" x1="171.1" y1="188.6" x2="171.1" y2="90.5"/>
	<line class="st1" x1="166.4" y1="180.6" x2="166.4" y2="98.6"/>
	<line class="st1" x1="161.8" y1="172.5" x2="161.8" y2="106.6"/>
	<line class="st1" x1="157.1" y1="164.4" x2="157.1" y2="114.7"/>
	<line class="st1" x1="152.5" y1="156.4" x2="152.5" y2="122.8"/>
	<line class="st1" x1="147.8" y1="148.3" x2="147.8" y2="130.8"/>
	<polyline class="st1" points="136.6,149.2 136.6,157.4 144.9,157.4 144.9,149.4 136.6,157.4 	"/>
	<polyline class="st1" points="136.6,158.7 136.6,166.9 144.9,166.9 144.9,158.9 136.6,166.9 	"/>
	<polyline class="st1" points="136.6,168.2 136.6,176.4 144.9,176.4 144.9,168.5 136.6,176.4 	"/>
	<polyline class="st1" points="136.6,177.8 136.6,186 144.9,186 144.9,178 136.6,186 	"/>
	<polyline class="st1" points="136.6,187.3 136.6,195.5 144.9,195.5 144.9,187.5 136.6,195.5 	"/>
	<polyline class="st1" points="136.6,196.8 136.6,205 144.9,205 144.9,197 136.6,205 	"/>
	<line class="st1" x1="151.3" y1="153.1" x2="146.9" y2="157.4"/>
	<polyline class="st1" points="153.8,157.4 146.9,157.4 146.9,149.2 	"/>
	<polyline class="st1" points="146.9,158.7 146.9,166.9 155.2,166.9 155.2,158.9 146.9,166.9 	"/>
	<polyline class="st1" points="146.9,168.2 146.9,176.4 155.2,176.4 155.2,168.5 146.9,176.4 	"/>
	<polyline class="st1" points="146.9,177.8 146.9,186 155.2,186 155.2,178 146.9,186 	"/>
	<polyline class="st1" points="146.9,187.3 146.9,195.5 155.2,195.5 155.2,187.5 146.9,195.5 	"/>
	<polyline class="st1" points="146.9,196.8 146.9,205 155.2,205 155.2,197 146.9,205 	"/>
	<line class="st1" x1="158.5" y1="165.6" x2="157.1" y2="166.9"/>
	<polyline class="st1" points="157.1,158.7 157.1,163.2 157.1,166.9 159.3,166.9 	"/>
	<line class="st1" x1="162" y1="171.7" x2="157.1" y2="176.4"/>
	<polyline class="st1" points="164.8,176.4 157.1,176.4 157.1,168.2 	"/>
	<polyline class="st1" points="157.1,177.8 157.1,186 165.4,186 165.4,178 157.1,186 	"/>
	<polyline class="st1" points="157.1,187.3 157.1,195.5 165.4,195.5 165.4,187.5 157.1,195.5 	"/>
	<line class="st1" x1="172.8" y1="190.3" x2="167.4" y2="195.5"/>
	<polyline class="st1" points="175.6,195.2 175.6,195.5 167.4,195.5 167.4,187.3 	"/>
	<polyline class="st1" points="157.1,196.8 157.1,205 165.4,205 165.4,197 157.1,205 	"/>
	<polyline class="st1" points="167.5,196.8 167.5,205 175.7,205 175.7,197 167.5,205 	"/>
	<line class="st1" x1="130" y1="157.4" x2="126.6" y2="157.4"/>
	<polyline class="st1" points="134.7,152.3 134.7,157.4 131.7,157.4 	"/>
	<polyline class="st1" points="126.4,166.9 134.7,158.9 134.7,166.9 126.4,166.9 126.4,166.6 	"/>
	<polyline class="st1" points="126.4,168.2 126.4,176.4 134.7,176.4 134.7,168.5 126.4,176.4 	"/>
	<polyline class="st1" points="126.4,177.8 126.4,186 134.7,186 134.7,178 126.4,186 	"/>
	<polyline class="st1" points="126.4,187.3 126.4,195.5 134.7,195.5 134.7,187.5 126.4,195.5 	"/>
	<polyline class="st1" points="126.4,196.8 126.4,205 134.7,205 134.7,197 126.4,205 	"/>
	<g>
		<path class="st0" d="M123.4,180.3v4.6h-4.8L123.4,180.3 M124.4,178l-8.3,8h8.3V178L124.4,178z"/>
	</g>
	<polyline class="st1" points="116.2,187.3 116.2,195.5 124.4,195.5 124.4,187.5 116.2,195.5 	"/>
	<polyline class="st1" points="116.2,196.8 116.2,205 124.4,205 124.4,197 116.2,205 	"/>
	<line class="st1" x1="105.9" y1="205" x2="105.9" y2="203.3"/>
	<polyline class="st1" points="114.2,203.3 114.2,205 105.9,205 107.7,203.3 114.2,197 114.2,203.3 	"/>
</g>
</svg>
