<svg id="Layer_1" data-name="Layer 1" xmlns="http://www.w3.org/2000/svg" viewBox="0 0 222 166.5"><defs><style>.cls-1{fill:none;stroke:#fff;stroke-miterlimit:10;}</style></defs><title>Symbiosis</title><polygon class="cls-1" points="39.17 31.03 110.77 2.55 181.17 31.03 181.17 124.97 111.23 162.55 39.17 124.37 39.17 31.03"/><polyline class="cls-1" points="38.7 31.03 111.43 64.37 181.74 31.03"/><line class="cls-1" x1="111.43" y1="64.37" x2="111.28" y2="162.55"/><polygon class="cls-1" points="181.17 84.89 200.33 77.29 219.17 84.89 219.17 109.97 200.45 120 181.17 109.81 181.17 84.89"/><polyline class="cls-1" points="181.74 84.89 201.15 93.79 219.92 84.89"/><line class="cls-1" x1="201.15" y1="93.79" x2="201.11" y2="120"/><polygon class="cls-1" points="2.17 63.62 20.83 56.02 39.17 63.62 39.17 88.7 20.95 98.73 2.17 88.54 2.17 63.62"/><polyline class="cls-1" points="1.82 63.62 21.21 72.62 39.04 63.62"/><line class="cls-1" x1="21.23" y1="72.52" x2="21.19" y2="98.73"/></svg>