<svg id="Layer_1" data-name="Layer 1" xmlns="http://www.w3.org/2000/svg" viewBox="0 0 140.55 103.4"><defs><style>.cls-1{fill:none;stroke:#fff;stroke-miterlimit:10;}</style></defs><title>dependent-01</title><polygon class="cls-1" points="25.5 18.75 71.39 0.54 116.5 18.75 116.5 78.81 71.68 102.83 25.5 78.42 25.5 18.75"/><polyline class="cls-1" points="24.48 18.75 70.98 40.06 115.92 18.75"/><line class="cls-1" x1="70.98" y1="40.06" x2="70.88" y2="102.83"/><polygon class="cls-1" points="116.5 62.56 128.1 57.7 139.5 62.56 139.5 78.59 128.18 85.01 116.5 78.49 116.5 62.56"/><polyline class="cls-1" points="115.92 62.56 128.34 68.25 140.33 62.56"/><line class="cls-1" x1="128.34" y1="68.25" x2="128.31" y2="85.01"/><polygon class="cls-1" points="0.5 62.32 13.1 57.46 25.5 62.32 25.5 78.35 13.18 84.76 0.5 78.25 0.5 62.32"/><polyline class="cls-1" points="0.9 62.32 13.29 68.07 24.69 62.32"/><line class="cls-1" x1="13.31" y1="68.01" x2="13.28" y2="84.76"/></svg>