<?xml version="1.0" encoding="utf-8"?>
<!-- Generator: Adobe Illustrator 19.2.1, SVG Export Plug-In . SVG Version: 6.00 Build 0)  -->
<svg version="1.1" id="Layer_1" xmlns="http://www.w3.org/2000/svg" xmlns:xlink="http://www.w3.org/1999/xlink" x="0px" y="0px"
	 viewBox="0 0 107.1 92.9" style="enable-background:new 0 0 107.1 92.9;" xml:space="preserve">
<style type="text/css">
	.st0{fill:#3BB9C5;}
</style>
<g>
	<path class="st0" d="M45.4,0.7v9.7h-4.7h-0.7v0.7v10.3v0.7h0.7h4.7v7.9h-4.7h-0.7v0.7v7.6v0.7h0.7h4.7v8.3h-4.7h-0.7v0.7v8.5v0.7
		h0.7h4.7v12.5h-4.7h-0.7v0.7v7.9v0.7h0.7h4.7v13H27.2L0.9,46.4L27.2,0.7H45.4 M46.8,0.7h7.6c-1.7,2.3-6.8,9.9-6.8,18.4
		c0,3.4,0.8,6.6,2.4,9.4c0.5,0.9,1,1.9,1.5,2.7c4.4,7.8,7.9,13.9,7.9,22.1c0,3.7-0.7,7.9-2.2,12.5c-1.4,4.4-2.1,8.7-2.1,12.6
		c0,7.2,2.4,11.5,3.7,13.6h-12V78.4v-0.7H46h-4.7v-6.5H46h0.7v-0.7V56.5v-0.7H46h-4.7v-7.1H46h0.7V48v-9.7v-0.7H46h-4.7v-6.1H46h0.7
		v-0.7v-9.3v-0.7H46h-4.7v-8.9H46h0.7v-0.7L46.8,0.7 M55.8,0.7h24.1l26.4,45.7L79.9,92.1H60.4c-0.1-0.1-0.2-0.4-0.4-0.6
		c-1.1-2-3.6-6.1-3.6-13.1c0-3.7,0.7-7.8,2.1-12.1c1.5-4.8,2.2-9,2.2-12.9c0-8.6-3.6-14.9-8.1-22.8c-0.5-0.9-1-1.8-1.5-2.7
		c-1.5-2.6-2.2-5.6-2.2-8.7c0-9.6,6.9-18.1,7-18.2L55.8,0.7 M46.1,0v11.1h-5.4v10.3h5.4v9.4h-5.4v7.6h5.4v9.7h-5.4v8.5h5.4v13.9
		h-5.4v7.9h5.4v14.1V78.4h-5.4v-7.9h5.4V56.6h-5.4v-8.5h5.4v-9.7h-5.4v-7.6h5.4v-9.4h-5.4V11.1h5.4V0H26.8L0,46.4l26.8,46.4h33.3
		c-0.7-1.5-4.2-5.9-4.2-14.4c0-3.4,0.6-7.5,2.1-12.4c1.6-4.9,2.2-9,2.2-12.7c0-9.3-4.3-15.9-9.5-25.1c-1.6-3-2.4-6.1-2.4-9.1
		c0-9.9,7.1-18.7,7.1-18.7s-7.1,8.7-7.1,18.7c0,3,0.6,6.1,2.4,9.1c5.2,9.4,9.5,15.9,9.5,25.1c0,3.7-0.6,7.8-2.2,12.7
		c-1.5,4.9-2.1,8.9-2.1,12.4c0,8.5,3.5,12.9,4.2,14.4h20.3l26.8-46.4L80.4,0H46.1L46.1,0z"/>
</g>
</svg>
