<?xml version="1.0" encoding="utf-8"?>
<!-- Generator: Adobe Illustrator 16.0.0, SVG Export Plug-In . SVG Version: 6.00 Build 0)  -->
<!DOCTYPE svg PUBLIC "-//W3C//DTD SVG 1.1//EN" "http://www.w3.org/Graphics/SVG/1.1/DTD/svg11.dtd" [
	<!ENTITY ns_extend "http://ns.adobe.com/Extensibility/1.0/">
	<!ENTITY ns_ai "http://ns.adobe.com/AdobeIllustrator/10.0/">
	<!ENTITY ns_graphs "http://ns.adobe.com/Graphs/1.0/">
	<!ENTITY ns_vars "http://ns.adobe.com/Variables/1.0/">
	<!ENTITY ns_imrep "http://ns.adobe.com/ImageReplacement/1.0/">
	<!ENTITY ns_sfw "http://ns.adobe.com/SaveForWeb/1.0/">
	<!ENTITY ns_custom "http://ns.adobe.com/GenericCustomNamespace/1.0/">
	<!ENTITY ns_adobe_xpath "http://ns.adobe.com/XPath/1.0/">
]>
<svg version="1.1" id="Layer_1" xmlns:x="&ns_extend;" xmlns:i="&ns_ai;" xmlns:graph="&ns_graphs;"
	 xmlns="http://www.w3.org/2000/svg" xmlns:xlink="http://www.w3.org/1999/xlink" x="0px" y="0px" width="107.142px" height="98px"
	 viewBox="46.143 51 107.142 98" enable-background="new 46.143 51 107.142 98" xml:space="preserve">
<metadata>
	<sfw  xmlns="&ns_sfw;">
		<slices></slices>
		<sliceSourceBounds  width="107.142" height="98" y="51.5" x="45.643" bottomLeftOrigin="true"></sliceSourceBounds>
	</sfw>
</metadata>
<g>
	<g>
		<path fill="#3BB9C5" d="M76.929,56.5h50.356l25.215,43.643l-25.215,43.642H76.929l-25.214-43.642L76.929,56.5 M76.5,55.786
			l-25.571,44.357L76.5,144.5h51.215l25.57-44.357l-25.57-44.357H76.5L76.5,55.786z"/>
	</g>
	<g>
		<circle fill="#3BB9C5" cx="50.929" cy="100.072" r="4.786"/>
	</g>
	<g>
		<circle fill="#3BB9C5" cx="127.715" cy="55.786" r="4.786"/>
	</g>
	<g>
		<circle fill="#3BB9C5" cx="133.643" cy="87.357" r="4.286"/>
	</g>
	<g>
		<circle fill="#3BB9C5" cx="80.143" cy="87.357" r="4.286"/>
	</g>
	<g>
		<circle fill="#3BB9C5" cx="76.643" cy="144.214" r="4.786"/>
	</g>
	<g>
		<path fill="#3BB9C5" d="M104,78.071l29.215,9.572l6.356,30.072l-22.856,20.57l-29.215-9.57l-6.357-30.072L104,78.071
			 M103.857,77.286l-23.5,21.071l6.5,30.928l30,9.786l23.5-21.071l-6.5-30.929L103.857,77.286L103.857,77.286z"/>
	</g>
	<g>
		<path fill="#3BB9C5" d="M89.786,60.214l9,10.5l-4.643,13.071l-13.572,2.5l-9-10.5l4.643-13.071L89.786,60.214 M90.071,59.429
			l-14.428,2.714l-4.929,13.786l9.5,11.143l14.429-2.714L99.5,70.5L90.071,59.429L90.071,59.429z"/>
	</g>
</g>
</svg>
