<?xml version="1.0" encoding="utf-8"?>
<!-- Generator: Adobe Illustrator 19.2.1, SVG Export Plug-In . SVG Version: 6.00 Build 0)  -->
<svg version="1.1" id="Layer_1" xmlns="http://www.w3.org/2000/svg" xmlns:xlink="http://www.w3.org/1999/xlink" x="0px" y="0px"
	 viewBox="0 0 108.3 93.9" style="enable-background:new 0 0 108.3 93.9;" xml:space="preserve">
<style type="text/css">
	.st0{fill:#3BB9C5;}
	.st1{fill:none;stroke:#3BB9C5;stroke-miterlimit:10;}
</style>
<g>
	<circle class="st0" cx="48.1" cy="75.3" r="5"/>
	<circle class="st0" cx="64.8" cy="88.9" r="5"/>
	<circle class="st0" cx="53.1" cy="62.6" r="5"/>
	<path class="st0" d="M29.6,4.1c0.6-2.7,3.3-4.4,6-3.7c2.7,0.6,4.4,3.3,3.7,6s-3.3,4.4-6,3.7"/>
	<circle class="st0" cx="45.8" cy="5.2" r="5"/>
	<circle class="st0" cx="56.4" cy="5.2" r="5"/>
	<circle class="st0" cx="67.1" cy="5.2" r="5"/>
	<path class="st0" d="M75.6,9.7c-1.6-0.8-2.8-2.5-2.8-4.5c0-2.3,1.5-4.2,3.6-4.8c0.4-0.1,0.9-0.2,1.4-0.2s0.9,0.1,1.4,0.2
		c0.5,0.1,1,0.4,1.4,0.6l0,0L75.6,9.7z"/>
	<path class="st0" d="M40.1,16.9c0,1.3-0.5,2.5-1.4,3.4L34,12c0.4-0.1,0.8-0.1,1.1-0.1C37.8,11.9,40.1,14.1,40.1,16.9z"/>
	<circle class="st0" cx="45.8" cy="16.9" r="5"/>
	<circle class="st0" cx="56.4" cy="16.9" r="5"/>
	<path class="st0" d="M69.1,21.6c-2.6,0.7-5.4-0.9-6.1-3.6c-0.7-2.6,0.9-5.4,3.6-6.1c2.6-0.7,5.4,0.9,6.1,3.6"/>
	<path class="st0" d="M46.3,33.4c2.5-0.3,4.4-2.4,4.4-4.9c0-2.8-2.2-5-5-5c-1.6,0-3.1,0.8-4,2.1L46.3,33.4z"/>
	<circle class="st0" cx="56.4" cy="28.4" r="5"/>
	<path class="st0" d="M63.1,31.4L63.1,31.4c-0.6-0.9-1-1.9-1-2.9c0-2.8,2.2-5,5-5c0.2,0,0.4,0,0.6,0l0,0L63.1,31.4z"/>
	<path class="st0" d="M55.3,44.9L55.3,44.9c-2.2-0.5-3.9-2.5-3.9-4.9c0-2.8,2.2-5,5-5c1.4,0,2.7,0.6,3.6,1.6L55.3,44.9z"/>
	<path class="st1" d="M80.6,0.9l-0.1,0.1l-1.1,1.9l-3.9,6.8L72,15.9l-3.2,5.6l-1.1,1.9l-4.6,7.9l-3,5.2l-4.8,8.3l-0.9,1.5
		c0,0.1-0.1,0.1-0.1,0.1c-0.1,0.1-0.4,0.1-0.5-0.1l-7.5-13l-4.6-7.9l-3-5.2L33.9,12l-1.4-2.4l0,0l-2.4-4.2l0,0L27.6,1
		c0-0.1-0.1-0.1-0.1-0.1c0-0.2,0.1-0.4,0.4-0.4h52.4c0.1,0,0.1,0,0.1,0.1C80.7,0.6,80.7,0.8,80.6,0.9z"/>
	<path class="st1" d="M34,12l-1.4-2.4l0,0l-2.4-4.2l0,0l0,0L27.6,1c-0.1-0.1-0.3-0.2-0.5-0.1c-0.1,0-0.1,0.1-0.1,0.1L0.6,46.7
		c-0.1,0.1-0.1,0.2,0,0.4L27,92.8c0.1,0.1,0.3,0.2,0.5,0.1c0.1,0,0.1-0.1,0.1-0.1l26.4-45.7c0.1-0.1,0.1-0.2,0-0.4l-0.2-0.4l-7.5-13
		l-4.6-7.9l-3-5.2"/>
	<path class="st1" d="M80.6,0.9L54.2,46.6c-0.1,0.1-0.1,0.2,0,0.4l26.4,45.7c0.1,0.1,0.3,0.2,0.5,0.1c0.1,0,0.1-0.1,0.1-0.1
		L107.7,47c0.1-0.1,0.1-0.2,0-0.4L81.3,0.9c-0.1-0.1-0.3-0.2-0.5-0.1C80.7,0.9,80.7,0.9,80.6,0.9z"/>
	<path class="st1" d="M27.9,93.4h52.4c0.2,0,0.4-0.1,0.4-0.4c0-0.1,0-0.1-0.1-0.1L54.4,47.4c-0.1-0.1-0.3-0.2-0.5-0.1
		c-0.1,0-0.1,0.1-0.1,0.1L27.6,92.8c-0.1,0.1-0.1,0.4,0.1,0.5C27.8,93.3,27.8,93.4,27.9,93.4z"/>
	<line class="st1" x1="79.5" y1="3" x2="79.5" y2="3"/>
</g>
</svg>
