<?xml version="1.0" encoding="utf-8"?>
<!-- Generator: Adobe Illustrator 16.0.0, SVG Export Plug-In . SVG Version: 6.00 Build 0)  -->
<!DOCTYPE svg PUBLIC "-//W3C//DTD SVG 1.1//EN" "http://www.w3.org/Graphics/SVG/1.1/DTD/svg11.dtd" [
	<!ENTITY ns_extend "http://ns.adobe.com/Extensibility/1.0/">
	<!ENTITY ns_ai "http://ns.adobe.com/AdobeIllustrator/10.0/">
	<!ENTITY ns_graphs "http://ns.adobe.com/Graphs/1.0/">
	<!ENTITY ns_vars "http://ns.adobe.com/Variables/1.0/">
	<!ENTITY ns_imrep "http://ns.adobe.com/ImageReplacement/1.0/">
	<!ENTITY ns_sfw "http://ns.adobe.com/SaveForWeb/1.0/">
	<!ENTITY ns_custom "http://ns.adobe.com/GenericCustomNamespace/1.0/">
	<!ENTITY ns_adobe_xpath "http://ns.adobe.com/XPath/1.0/">
]>
<svg version="1.1" id="Layer_1" xmlns:x="&ns_extend;" xmlns:i="&ns_ai;" xmlns:graph="&ns_graphs;"
	 xmlns="http://www.w3.org/2000/svg" xmlns:xlink="http://www.w3.org/1999/xlink" x="0px" y="0px" width="107.143px"
	 height="94.072px" viewBox="49.286 56.786 107.143 94.072" enable-background="new 49.286 56.786 107.143 94.072"
	 xml:space="preserve">
<metadata>
	<sfw  xmlns="&ns_sfw;">
		<slices></slices>
		<sliceSourceBounds  width="107.143" height="94.072" y="49.643" x="48.786" bottomLeftOrigin="true"></sliceSourceBounds>
	</sfw>
</metadata>
<pattern  x="0.5" y="200.5" width="34.286" height="34.286" patternUnits="userSpaceOnUse" id="_6_dpi_30" viewBox="2.571 -36.857 34.286 34.286" overflow="visible">
	<g>
		<polygon fill="none" points="2.571,-2.572 36.857,-2.572 36.857,-36.857 2.571,-36.857 		"/>
		<g>
			<polygon fill="none" points="2.571,-2.572 36.857,-2.572 36.857,-36.857 2.571,-36.857 			"/>
			<g>
				<g>
					<defs>
						<rect id="SVGID_1_" x="2.571" y="-36.857" width="34.286" height="34.285"/>
					</defs>
					<clipPath id="SVGID_2_">
						<use xlink:href="#SVGID_1_"  overflow="visible"/>
					</clipPath>
					<path clip-path="url(#SVGID_2_)" fill="#00A9B7" d="M19.714,0c1.42,0,2.571-1.151,2.571-2.572c0-1.42-1.151-2.57-2.571-2.57
						c-1.42,0-2.571,1.15-2.571,2.57C17.143-1.151,18.294,0,19.714,0z"/>
				</g>
				<g>
					<defs>
						<rect id="SVGID_3_" x="2.571" y="-36.857" width="34.286" height="34.285"/>
					</defs>
					<clipPath id="SVGID_4_">
						<use xlink:href="#SVGID_3_"  overflow="visible"/>
					</clipPath>
					<path clip-path="url(#SVGID_4_)" fill="#00A9B7" d="M36.857,0c1.42,0,2.572-1.151,2.572-2.572c0-1.42-1.151-2.57-2.572-2.57
						c-1.42,0-2.571,1.15-2.571,2.57C34.286-1.151,35.437,0,36.857,0z"/>
				</g>
				<g>
					<defs>
						<rect id="SVGID_5_" x="2.571" y="-36.857" width="34.286" height="34.285"/>
					</defs>
					<clipPath id="SVGID_6_">
						<use xlink:href="#SVGID_5_"  overflow="visible"/>
					</clipPath>
					<path clip-path="url(#SVGID_6_)" fill="#00A9B7" d="M19.714-17.143c1.42,0,2.571-1.152,2.571-2.572s-1.151-2.57-2.571-2.57
						c-1.42,0-2.571,1.15-2.571,2.57S18.294-17.143,19.714-17.143z"/>
				</g>
				<g>
					<defs>
						<rect id="SVGID_7_" x="2.571" y="-36.857" width="34.286" height="34.285"/>
					</defs>
					<clipPath id="SVGID_8_">
						<use xlink:href="#SVGID_7_"  overflow="visible"/>
					</clipPath>
					<path clip-path="url(#SVGID_8_)" fill="#00A9B7" d="M36.857-17.143c1.42,0,2.572-1.152,2.572-2.572s-1.151-2.57-2.572-2.57
						c-1.42,0-2.571,1.15-2.571,2.57S35.437-17.143,36.857-17.143z"/>
				</g>
				<g>
					<defs>
						<rect id="SVGID_9_" x="2.571" y="-36.857" width="34.286" height="34.285"/>
					</defs>
					<clipPath id="SVGID_10_">
						<use xlink:href="#SVGID_9_"  overflow="visible"/>
					</clipPath>
					<path clip-path="url(#SVGID_10_)" fill="#00A9B7" d="M28.286-8.572c1.42,0,2.571-1.15,2.571-2.57s-1.151-2.572-2.571-2.572
						c-1.42,0-2.571,1.152-2.571,2.572S26.866-8.572,28.286-8.572z"/>
				</g>
				<g>
					<defs>
						<rect id="SVGID_11_" x="2.571" y="-36.857" width="34.286" height="34.285"/>
					</defs>
					<clipPath id="SVGID_12_">
						<use xlink:href="#SVGID_11_"  overflow="visible"/>
					</clipPath>
					<path clip-path="url(#SVGID_12_)" fill="#00A9B7" d="M11.143-8.572c1.42,0,2.571-1.15,2.571-2.57s-1.151-2.572-2.571-2.572
						c-1.42,0-2.572,1.152-2.572,2.572S9.723-8.572,11.143-8.572z"/>
				</g>
				<g>
					<defs>
						<rect id="SVGID_13_" x="2.571" y="-36.857" width="34.286" height="34.285"/>
					</defs>
					<clipPath id="SVGID_14_">
						<use xlink:href="#SVGID_13_"  overflow="visible"/>
					</clipPath>
					<path clip-path="url(#SVGID_14_)" fill="#00A9B7" d="M28.286-25.715c1.42,0,2.571-1.15,2.571-2.57
						c0-1.421-1.151-2.572-2.571-2.572c-1.42,0-2.571,1.151-2.571,2.572C25.714-26.865,26.866-25.715,28.286-25.715z"/>
				</g>
				<g>
					<defs>
						<rect id="SVGID_15_" x="2.571" y="-36.857" width="34.286" height="34.285"/>
					</defs>
					<clipPath id="SVGID_16_">
						<use xlink:href="#SVGID_15_"  overflow="visible"/>
					</clipPath>
					<path clip-path="url(#SVGID_16_)" fill="#00A9B7" d="M11.143-25.715c1.42,0,2.571-1.15,2.571-2.57
						c0-1.421-1.151-2.572-2.571-2.572c-1.42,0-2.572,1.151-2.572,2.572C8.571-26.865,9.723-25.715,11.143-25.715z"/>
				</g>
				<g>
					<defs>
						<rect id="SVGID_17_" x="2.571" y="-36.857" width="34.286" height="34.285"/>
					</defs>
					<clipPath id="SVGID_18_">
						<use xlink:href="#SVGID_17_"  overflow="visible"/>
					</clipPath>
					<path clip-path="url(#SVGID_18_)" fill="#00A9B7" d="M2.571,0c1.42,0,2.572-1.151,2.572-2.572c0-1.42-1.151-2.57-2.572-2.57
						C1.151-5.143,0-3.992,0-2.572C0-1.151,1.151,0,2.571,0z"/>
				</g>
				<g>
					<defs>
						<rect id="SVGID_19_" x="2.571" y="-36.857" width="34.286" height="34.285"/>
					</defs>
					<clipPath id="SVGID_20_">
						<use xlink:href="#SVGID_19_"  overflow="visible"/>
					</clipPath>
					<path clip-path="url(#SVGID_20_)" fill="#00A9B7" d="M2.571-17.143c1.42,0,2.572-1.152,2.572-2.572s-1.151-2.57-2.572-2.57
						c-1.42,0-2.571,1.15-2.571,2.57S1.151-17.143,2.571-17.143z"/>
				</g>
				<g>
					<defs>
						<rect id="SVGID_21_" x="2.571" y="-36.857" width="34.286" height="34.285"/>
					</defs>
					<clipPath id="SVGID_22_">
						<use xlink:href="#SVGID_21_"  overflow="visible"/>
					</clipPath>
					<path clip-path="url(#SVGID_22_)" fill="#00A9B7" d="M19.714-34.285c1.42,0,2.571-1.152,2.571-2.572s-1.151-2.571-2.571-2.571
						c-1.42,0-2.571,1.151-2.571,2.571S18.294-34.285,19.714-34.285z"/>
				</g>
				<g>
					<defs>
						<rect id="SVGID_23_" x="2.571" y="-36.857" width="34.286" height="34.285"/>
					</defs>
					<clipPath id="SVGID_24_">
						<use xlink:href="#SVGID_23_"  overflow="visible"/>
					</clipPath>
					<path clip-path="url(#SVGID_24_)" fill="#00A9B7" d="M36.857-34.285c1.42,0,2.572-1.152,2.572-2.572s-1.151-2.571-2.572-2.571
						c-1.42,0-2.571,1.151-2.571,2.571S35.437-34.285,36.857-34.285z"/>
				</g>
				<g>
					<defs>
						<rect id="SVGID_25_" x="2.571" y="-36.857" width="34.286" height="34.285"/>
					</defs>
					<clipPath id="SVGID_26_">
						<use xlink:href="#SVGID_25_"  overflow="visible"/>
					</clipPath>
					<path clip-path="url(#SVGID_26_)" fill="#00A9B7" d="M2.571-34.285c1.42,0,2.572-1.152,2.572-2.572s-1.151-2.571-2.572-2.571
						C1.151-39.429,0-38.277,0-36.857S1.151-34.285,2.571-34.285z"/>
				</g>
			</g>
		</g>
	</g>
</pattern>
<g>
	<pattern  id="SVGID_27_" xlink:href="#_6_dpi_30" patternTransform="matrix(0.7143 0 0 -0.7143 -2273.459 -13458.8057)">
	</pattern>
	<circle fill="url(#SVGID_27_)" stroke="#00A9B7" stroke-miterlimit="10" cx="102.785" cy="102.857" r="33.572"/>
	<g>
		<path fill="#3BB9C5" d="M127.071,62.071l24.144,41.786l-24.144,41.785H78.786l-24.143-41.785l24.143-41.786H127.071 M127.5,61.357
			H78.429l-24.572,42.5l24.572,42.5H127.5l24.571-42.5L127.5,61.357L127.5,61.357z"/>
	</g>
	<polyline fill="none" stroke="#3BB9C5" stroke-miterlimit="10" points="95,90.143 95.357,90.714 100.571,99.786 102.929,103.857 
		102.929,103.929 100.715,107.785 94.786,118 94.571,118.357 	"/>
	<polyline fill="none" stroke="#3BB9C5" stroke-miterlimit="10" points="92.071,122.785 85.929,133.357 80.714,142.357 
		78.429,146.357 	"/>
	<polyline fill="none" stroke="#3BB9C5" stroke-miterlimit="10" points="92.5,85.714 86.5,75.357 80.714,65.357 78.429,61.357 	"/>
	<polyline fill="none" stroke="#3BB9C5" stroke-miterlimit="10" points="110.857,90.143 110.643,90.5 105.215,99.929 
		102.929,103.857 103,103.857 105.143,107.643 111.285,118.215 111.429,118.5 	"/>
	<polyline fill="none" stroke="#3BB9C5" stroke-miterlimit="10" points="114,122.857 120.143,133.5 125.215,142.357 127.5,146.285 	
		"/>
	<polyline fill="none" stroke="#3BB9C5" stroke-miterlimit="10" points="113.357,85.714 119.5,75.143 125.215,65.286 
		127.429,61.357 127.5,61.214 	"/>
	<circle fill="#00A9B7" cx="127.5" cy="146.286" r="4.571"/>
	<circle fill="#00A9B7" cx="151.857" cy="103.786" r="4.572"/>
	<circle fill="#00A9B7" cx="102.785" cy="103.786" r="4.572"/>
	<circle fill="#00A9B7" cx="127.5" cy="61.357" r="4.572"/>
	<circle fill="#00A9B7" cx="78.571" cy="61.357" r="4.572"/>
	<circle fill="#00A9B7" cx="53.857" cy="103.786" r="4.572"/>
	<circle fill="#00A9B7" cx="78.429" cy="146.286" r="4.571"/>
	<polyline fill="none" stroke="#3BB9C5" stroke-miterlimit="10" points="53.857,103.857 58.429,103.857 69.571,103.857 
		81.643,103.857 	"/>
	<polyline fill="none" stroke="#3BB9C5" stroke-miterlimit="10" points="152.071,103.857 147.285,103.857 136.785,103.857 
		124.571,103.857 	"/>
	<polyline fill="none" stroke="#3BB9C5" stroke-miterlimit="10" points="119.5,103.857 119,103.857 107.357,103.857 103,103.857 
		102.929,103.857 98.214,103.857 87.286,103.857 86.786,103.857 	"/>
	<polyline fill="none" stroke="#3BB9C5" stroke-miterlimit="10" points="113.357,85.714 116.929,87.786 114.357,92.214 
		110.857,90.143 	"/>
	<polyline fill="none" stroke="#3BB9C5" stroke-miterlimit="10" points="119.5,103.857 119.429,108 124.571,108 124.571,103.857 	
		"/>
	<polyline fill="none" stroke="#3BB9C5" stroke-miterlimit="10" points="111.429,118.5 107.857,120.429 110.285,124.857 
		114,122.857 	"/>
	<polyline fill="none" stroke="#3BB9C5" stroke-miterlimit="10" points="92.071,122.785 88.5,120.715 91.071,116.285 
		94.571,118.357 	"/>
	<polyline fill="none" stroke="#3BB9C5" stroke-miterlimit="10" points="86.786,103.857 86.786,99.786 81.714,99.786 
		81.643,103.857 	"/>
	<polyline fill="none" stroke="#3BB9C5" stroke-miterlimit="10" points="92.5,85.714 96,83.786 98.5,88.214 95,90.143 	"/>
</g>
</svg>
