<?xml version="1.0" encoding="utf-8"?>
<!-- Generator: Adobe Illustrator 16.0.0, SVG Export Plug-In . SVG Version: 6.00 Build 0)  -->
<!DOCTYPE svg PUBLIC "-//W3C//DTD SVG 1.1//EN" "http://www.w3.org/Graphics/SVG/1.1/DTD/svg11.dtd" [
	<!ENTITY ns_extend "http://ns.adobe.com/Extensibility/1.0/">
	<!ENTITY ns_ai "http://ns.adobe.com/AdobeIllustrator/10.0/">
	<!ENTITY ns_graphs "http://ns.adobe.com/Graphs/1.0/">
	<!ENTITY ns_vars "http://ns.adobe.com/Variables/1.0/">
	<!ENTITY ns_imrep "http://ns.adobe.com/ImageReplacement/1.0/">
	<!ENTITY ns_sfw "http://ns.adobe.com/SaveForWeb/1.0/">
	<!ENTITY ns_custom "http://ns.adobe.com/GenericCustomNamespace/1.0/">
	<!ENTITY ns_adobe_xpath "http://ns.adobe.com/XPath/1.0/">
]>
<svg version="1.1" id="Layer_1" xmlns:x="&ns_extend;" xmlns:i="&ns_ai;" xmlns:graph="&ns_graphs;"
	 xmlns="http://www.w3.org/2000/svg" xmlns:xlink="http://www.w3.org/1999/xlink" x="0px" y="0px" width="108.25px"
	 height="93.929px" viewBox="44.732 52.929 108.25 93.929" enable-background="new 44.732 52.929 108.25 93.929"
	 xml:space="preserve">
<metadata>
	<sfw  xmlns="&ns_sfw;">
		<slices></slices>
		<sliceSourceBounds  width="108.25" height="93.929" y="53.643" x="44.232" bottomLeftOrigin="true"></sliceSourceBounds>
	</sfw>
</metadata>
<g>
	<circle fill="#3BB9C5" cx="92.786" cy="128.215" r="5"/>
	<circle fill="#3BB9C5" cx="109.5" cy="141.857" r="5"/>
	<circle fill="#3BB9C5" cx="97.786" cy="115.5" r="5"/>
	<path fill="#3BB9C5" d="M74.286,57c0.643-2.714,3.286-4.357,6-3.714c2.714,0.643,4.357,3.286,3.714,6S80.714,63.643,78,63"/>
	<circle fill="#3BB9C5" cx="90.5" cy="58.143" r="5"/>
	<circle fill="#3BB9C5" cx="101.143" cy="58.143" r="5"/>
	<circle fill="#3BB9C5" cx="111.857" cy="58.143" r="5"/>
	<path fill="#3BB9C5" d="M120.285,62.643c-1.643-0.786-2.785-2.5-2.785-4.5c0-2.286,1.5-4.214,3.643-4.786
		c0.429-0.143,0.857-0.214,1.357-0.214s0.929,0.071,1.357,0.214c0.5,0.143,1,0.357,1.428,0.643l0,0L120.285,62.643z"/>
	<path fill="#3BB9C5" d="M84.857,69.786c0,1.286-0.5,2.5-1.357,3.429l-4.786-8.286c0.357-0.072,0.786-0.143,1.143-0.143
		C82.571,64.786,84.857,67,84.857,69.786z"/>
	<circle fill="#3BB9C5" cx="90.5" cy="69.786" r="5"/>
	<circle fill="#3BB9C5" cx="101.143" cy="69.786" r="5"/>
	<path fill="#3BB9C5" d="M113.785,74.571c-2.643,0.714-5.356-0.857-6.07-3.571c-0.715-2.643,0.856-5.357,3.57-6.071
		c2.644-0.714,5.357,0.857,6.072,3.571"/>
	<path fill="#3BB9C5" d="M91.071,86.286c2.5-0.286,4.429-2.357,4.429-4.929c0-2.786-2.214-5-5-5c-1.643,0-3.143,0.786-4,2.072
		L91.071,86.286z"/>
	<circle fill="#3BB9C5" cx="101.143" cy="81.357" r="5"/>
	<path fill="#3BB9C5" d="M107.785,84.286L107.785,84.286c-0.643-0.857-1-1.857-1-2.929c0-2.786,2.215-5,5-5c0.215,0,0.357,0,0.572,0
		l0,0L107.785,84.286z"/>
	<path fill="#3BB9C5" d="M100,97.786L100,97.786c-2.214-0.5-3.857-2.5-3.857-4.857c0-2.786,2.214-5,5-5
		c1.429,0,2.715,0.571,3.643,1.571L100,97.786z"/>
	<path fill="none" stroke="#3BB9C5" stroke-miterlimit="10" d="M125.357,53.857L125.285,54l-1.07,1.857l-3.93,6.786l-3.57,6.214
		L113.5,74.5l-1.143,1.929l-4.572,7.928l-3,5.214L100,97.857l-0.857,1.5c0,0.072-0.072,0.072-0.143,0.143
		c-0.143,0.071-0.357,0.071-0.5-0.143l-7.5-13l-4.571-7.928l-3-5.214l-4.786-8.286L77.214,62.5l0,0l-2.429-4.214l0,0l-2.5-4.357
		c0-0.072-0.071-0.143-0.071-0.143c0-0.214,0.143-0.357,0.357-0.357H125c0.071,0,0.143,0,0.143,0.071
		C125.429,53.5,125.429,53.714,125.357,53.857z"/>
	<path fill="none" stroke="#3BB9C5" stroke-miterlimit="10" d="M78.714,64.929L77.286,62.5l0,0l-2.429-4.214l0,0l0,0l-2.5-4.357
		c-0.071-0.143-0.286-0.214-0.5-0.143c-0.071,0-0.071,0.071-0.143,0.143L45.286,99.643c-0.071,0.143-0.071,0.214,0,0.357
		l26.429,45.715c0.071,0.143,0.286,0.214,0.5,0.143c0.071,0,0.071-0.072,0.143-0.143L98.786,100c0.071-0.143,0.071-0.214,0-0.357
		l-0.214-0.357l-7.5-13L86.5,78.357l-3-5.214"/>
	<path fill="none" stroke="#3BB9C5" stroke-miterlimit="10" d="M125.357,53.857L98.929,99.571c-0.072,0.072-0.072,0.214,0,0.357
		l26.429,45.714c0.071,0.143,0.285,0.215,0.5,0.143c0.071,0,0.071-0.07,0.143-0.143l26.429-45.714c0.071-0.072,0.071-0.214,0-0.357
		L126,53.857c-0.071-0.143-0.285-0.214-0.5-0.143C125.429,53.786,125.429,53.857,125.357,53.857z"/>
	<path fill="none" stroke="#3BB9C5" stroke-miterlimit="10" d="M72.643,146.285h52.428c0.214,0,0.357-0.143,0.357-0.356
		c0-0.071,0-0.144-0.071-0.144l-26.214-45.428c-0.072-0.143-0.286-0.214-0.5-0.143c-0.072,0-0.072,0.071-0.143,0.143l-26.143,45.358
		c-0.071,0.143-0.071,0.356,0.143,0.5C72.5,146.215,72.571,146.285,72.643,146.285z"/>
	<line fill="none" stroke="#3BB9C5" stroke-miterlimit="10" x1="124.215" y1="55.929" x2="124.215" y2="55.929"/>
</g>
</svg>
