<?xml version="1.0" encoding="utf-8"?>
<!-- Generator: Adobe Illustrator 21.1.0, SVG Export Plug-In . SVG Version: 6.00 Build 0)  -->
<svg version="1.1" id="Layer_1" xmlns="http://www.w3.org/2000/svg" xmlns:xlink="http://www.w3.org/1999/xlink" x="0px" y="0px"
	 viewBox="0 0 280 280" style="enable-background:new 0 0 280 280;" xml:space="preserve">
<style type="text/css">
	.st0{fill:none;}
	.st1{clip-path:url(#SVGID_2_);fill:#00A9B7;}
	.st2{fill:#3BB9C5;}
	.st3{fill:none;stroke:#3BB9C5;stroke-miterlimit:10;}
	.st4{fill:none;stroke:#3BB9C5;stroke-miterlimit:10;stroke-dasharray:6;}
	.st5{fill:none;stroke:#3BB9C5;stroke-miterlimit:10;stroke-dasharray:6.2166,6.2166;}
	.st6{fill:none;stroke:#3BB9C5;stroke-miterlimit:10;stroke-dasharray:5.9545,5.9545;}
	.st7{fill:none;stroke:#FFFFFF;stroke-width:6;stroke-linecap:round;stroke-linejoin:round;stroke-miterlimit:10;}
	.st8{fill:none;stroke:#3BB9C5;stroke-miterlimit:10;stroke-dasharray:6.5587,6.5587;}
	.st9{fill:none;stroke:#3BB9C5;stroke-miterlimit:10;stroke-dasharray:6.3062,6.3062;}
	.st10{fill:none;stroke:#3BB9C5;stroke-miterlimit:10;stroke-dasharray:5.76,5.76;}
	.st11{fill:none;stroke:#3BB9C5;stroke-miterlimit:10;stroke-dasharray:6.2812,6.2812;}
	.st12{fill:none;stroke:#3BB9C5;stroke-miterlimit:10;stroke-dasharray:6.5502,6.5502;}
	.st13{fill:url(#_6_dpi_30);stroke:#00A9B7;stroke-miterlimit:10;}
	.st14{fill:#00A9B7;}
</style>
<pattern  x="312" y="-621" width="48" height="48" patternUnits="userSpaceOnUse" id="_6_dpi_30" viewBox="3.6 -51.6 48 48" style="overflow:visible;">
	<g>
		<rect x="3.6" y="-51.6" class="st0" width="48" height="48"/>
		<g>
			<defs>
				<rect id="SVGID_1_" x="3.6" y="-51.6" width="48" height="48"/>
			</defs>
			<clipPath id="SVGID_2_">
				<use xlink:href="#SVGID_1_"  style="overflow:visible;"/>
			</clipPath>
			<circle class="st1" cx="27.6" cy="-51.6" r="3.6"/>
			<circle class="st1" cx="51.6" cy="-51.6" r="3.6"/>
			<circle class="st1" cx="27.6" cy="-27.6" r="3.6"/>
			<circle class="st1" cx="51.6" cy="-27.6" r="3.6"/>
			<circle class="st1" cx="39.6" cy="-39.6" r="3.6"/>
			<circle class="st1" cx="15.6" cy="-39.6" r="3.6"/>
			<circle class="st1" cx="39.6" cy="-15.6" r="3.6"/>
			<circle class="st1" cx="15.6" cy="-15.6" r="3.6"/>
			<circle class="st1" cx="3.6" cy="-51.6" r="3.6"/>
			<circle class="st1" cx="3.6" cy="-27.6" r="3.6"/>
			<circle class="st1" cx="27.6" cy="-3.6" r="3.6"/>
			<circle class="st1" cx="51.6" cy="-3.6" r="3.6"/>
			<circle class="st1" cx="3.6" cy="-3.6" r="3.6"/>
		</g>
	</g>
</pattern>
<g>
	<circle class="st13" cx="143.9" cy="144" r="47"/>
	<g>
		<path class="st2" d="M177.9,86.9l33.8,58.5l-33.8,58.5h-67.6l-33.8-58.5l33.8-58.5H177.9 M178.5,85.9h-68.7l-34.4,59.5l34.4,59.5
			h68.7l34.4-59.5L178.5,85.9L178.5,85.9z"/>
	</g>
	<polyline class="st3" points="133,126.2 133.5,127 140.8,139.7 144.1,145.4 144.1,145.5 141,150.9 132.7,165.2 132.4,165.7 	"/>
	<polyline class="st3" points="128.9,171.9 120.3,186.7 113,199.3 109.8,204.9 	"/>
	<polyline class="st3" points="129.5,120 121.1,105.5 113,91.5 109.8,85.9 	"/>
	<polyline class="st3" points="155.2,126.2 154.9,126.7 147.3,139.9 144.1,145.4 144.2,145.4 147.2,150.7 155.8,165.5 156,165.9 	
		"/>
	<polyline class="st3" points="159.6,172 168.2,186.9 175.3,199.3 178.5,204.8 	"/>
	<polyline class="st3" points="158.7,120 167.3,105.2 175.3,91.4 178.4,85.9 178.5,85.7 	"/>
	<circle class="st14" cx="178.5" cy="204.8" r="6.4"/>
	<circle class="st14" cx="212.6" cy="145.3" r="6.4"/>
	<circle class="st14" cx="143.9" cy="145.3" r="6.4"/>
	<circle class="st14" cx="178.5" cy="85.9" r="6.4"/>
	<circle class="st14" cx="110" cy="85.9" r="6.4"/>
	<circle class="st14" cx="75.4" cy="145.3" r="6.4"/>
	<circle class="st14" cx="109.8" cy="204.8" r="6.4"/>
	<polyline class="st3" points="75.4,145.4 81.8,145.4 97.4,145.4 114.3,145.4 	"/>
	<polyline class="st3" points="212.9,145.4 206.2,145.4 191.5,145.4 174.4,145.4 	"/>
	<polyline class="st3" points="167.3,145.4 166.6,145.4 150.3,145.4 144.2,145.4 144.1,145.4 137.5,145.4 122.2,145.4 121.5,145.4 	
		"/>
	<polyline class="st3" points="158.7,120 163.7,122.9 160.1,129.1 155.2,126.2 	"/>
	<polyline class="st3" points="167.3,145.4 167.2,151.2 174.4,151.2 174.4,145.4 	"/>
	<polyline class="st3" points="156,165.9 151,168.6 154.4,174.8 159.6,172 	"/>
	<polyline class="st3" points="128.9,171.9 123.9,169 127.5,162.8 132.4,165.7 	"/>
	<polyline class="st3" points="121.5,145.4 121.5,139.7 114.4,139.7 114.3,145.4 	"/>
	<polyline class="st3" points="129.5,120 134.4,117.3 137.9,123.5 133,126.2 	"/>
</g>
</svg>
