<?xml version="1.0" encoding="utf-8"?>
<!-- Generator: Adobe Illustrator 21.1.0, SVG Export Plug-In . SVG Version: 6.00 Build 0)  -->
<svg version="1.1" id="Layer_1" xmlns="http://www.w3.org/2000/svg" xmlns:xlink="http://www.w3.org/1999/xlink" x="0px" y="0px"
	 viewBox="0 0 280 280" style="enable-background:new 0 0 280 280;" xml:space="preserve">
<style type="text/css">
	.st0{fill:#3BB9C5;}
	.st1{fill:none;stroke:#3BB9C5;stroke-miterlimit:10;}
	.st2{fill:none;stroke:#3BB9C5;stroke-miterlimit:10;stroke-dasharray:6;}
	.st3{fill:none;stroke:#3BB9C5;stroke-miterlimit:10;stroke-dasharray:6.2166,6.2166;}
	.st4{fill:none;stroke:#3BB9C5;stroke-miterlimit:10;stroke-dasharray:5.9545,5.9545;}
	.st5{fill:none;stroke:#FFFFFF;stroke-width:6;stroke-linecap:round;stroke-linejoin:round;stroke-miterlimit:10;}
	.st6{fill:none;stroke:#3BB9C5;stroke-miterlimit:10;stroke-dasharray:6.5587,6.5587;}
	.st7{fill:none;stroke:#3BB9C5;stroke-miterlimit:10;stroke-dasharray:6.3062,6.3062;}
	.st8{fill:none;stroke:#3BB9C5;stroke-miterlimit:10;stroke-dasharray:5.76,5.76;}
	.st9{fill:none;stroke:#3BB9C5;stroke-miterlimit:10;stroke-dasharray:6.2812,6.2812;}
	.st10{fill:none;stroke:#3BB9C5;stroke-miterlimit:10;stroke-dasharray:6.5502,6.5502;}
	.st11{fill:url(#);stroke:#00A9B7;stroke-miterlimit:10;}
	.st12{fill:#00A9B7;}
</style>
<g>
	<path class="st0" d="M134.9,76v13.6h-6.6h-1v1V105v1h1h6.6v11.1h-6.6h-1v1v10.6v1h1h6.6v11.6h-6.6h-1v1v11.9v1h1h6.6v17.5h-6.6h-1
		v1v11.1v1h1h6.6V204h-25.4l-36.9-64l36.9-64H134.9 M136.9,76h10.6c-2.4,3.2-9.5,13.8-9.5,25.8c0,4.7,1.1,9.2,3.4,13.2
		c0.7,1.3,1.4,2.6,2.1,3.8c6.1,10.9,11,19.5,11,30.9c0,5.2-1,11-3.1,17.5c-2,6.2-3,12.2-3,17.6c0,10.1,3.4,16.1,5.2,19.1h-16.8
		v-19.2v-1h-1h-6.6v-9.1h6.6h1v-1v-19.5v-1h-1h-6.6v-9.9h6.6h1v-1v-13.6v-1h-1h-6.6v-8.6h6.6h1v-1V105v-1h-1h-6.6V91.6h6.6h1v-1V76
		 M149.5,76l33.8,0l36.9,64l-36.9,64H156c-0.1-0.2-0.3-0.5-0.5-0.8c-1.6-2.8-5.1-8.5-5.1-18.3c0-5.2,1-10.9,2.9-17
		c2.1-6.7,3.1-12.6,3.1-18.1c0-12-5-20.8-11.3-31.9c-0.7-1.2-1.4-2.5-2.1-3.8c-2.1-3.7-3.1-7.8-3.1-12.2c0-13.4,9.7-25.4,9.8-25.5
		L149.5,76 M135.9,75v15.6h-7.6V105h7.6v13.1h-7.6v10.6h7.6v13.6h-7.6v11.9h7.6v19.5h-7.6v11.1h7.6v19.7v-19.7h-7.6v-11.1h7.6v-19.5
		h-7.6v-11.9h7.6v-13.6h-7.6v-10.6h7.6V105h-7.6V90.6h7.6V75h-27l-37.5,65l37.5,65h46.6c-1-2.1-5.9-8.2-5.9-20.1
		c0-4.8,0.8-10.5,2.9-17.3c2.2-6.9,3.1-12.6,3.1-17.8c0-13-6-22.2-13.3-35.2c-2.3-4.2-3.3-8.5-3.3-12.7c0-13.9,10-26.2,10-26.2
		s-10,12.2-10,26.2c0,4.2,0.9,8.5,3.3,12.7c7.3,13.1,13.3,22.2,13.3,35.2c0,5.2-0.9,10.9-3.1,17.8c-2.1,6.8-2.9,12.5-2.9,17.3
		c0,11.9,4.9,18,5.9,20.1h28.4l37.5-65l-37.5-65L135.9,75L135.9,75z"/>
</g>
</svg>
