<?xml version="1.0" encoding="utf-8"?>
<!-- Generator: Adobe Illustrator 16.0.0, SVG Export Plug-In . SVG Version: 6.00 Build 0)  -->
<!DOCTYPE svg PUBLIC "-//W3C//DTD SVG 1.1//EN" "http://www.w3.org/Graphics/SVG/1.1/DTD/svg11.dtd" [
	<!ENTITY ns_extend "http://ns.adobe.com/Extensibility/1.0/">
	<!ENTITY ns_ai "http://ns.adobe.com/AdobeIllustrator/10.0/">
	<!ENTITY ns_graphs "http://ns.adobe.com/Graphs/1.0/">
	<!ENTITY ns_vars "http://ns.adobe.com/Variables/1.0/">
	<!ENTITY ns_imrep "http://ns.adobe.com/ImageReplacement/1.0/">
	<!ENTITY ns_sfw "http://ns.adobe.com/SaveForWeb/1.0/">
	<!ENTITY ns_custom "http://ns.adobe.com/GenericCustomNamespace/1.0/">
	<!ENTITY ns_adobe_xpath "http://ns.adobe.com/XPath/1.0/">
]>
<svg version="1.1" id="Layer_1" xmlns:x="&ns_extend;" xmlns:i="&ns_ai;" xmlns:graph="&ns_graphs;"
	 xmlns="http://www.w3.org/2000/svg" xmlns:xlink="http://www.w3.org/1999/xlink" x="0px" y="0px" width="108.874px"
	 height="102.857px" viewBox="45.92 44.286 108.874 102.857" enable-background="new 45.92 44.286 108.874 102.857"
	 xml:space="preserve">
<metadata>
	<sfw  xmlns="&ns_sfw;">
		<slices></slices>
		<sliceSourceBounds  width="108.874" height="102.857" y="53.357" x="45.42" bottomLeftOrigin="true"></sliceSourceBounds>
	</sfw>
</metadata>
<g>
	
		<line fill="none" stroke="#FFFFFF" stroke-width="6" stroke-linecap="round" stroke-linejoin="round" stroke-miterlimit="10" x1="73.571" y1="142.143" x2="73.714" y2="142.143"/>
	<polyline fill="none" stroke="#3BB9C5" stroke-miterlimit="10" points="46.786,95.714 71.143,53.5 73.571,49.286 73.714,49.286 
		78.714,49.286 121.785,49.286 126.715,49.286 127.143,49.286 129.785,53.929 153.929,95.714 	"/>
	
		<line fill="none" stroke="#FFFFFF" stroke-width="6" stroke-linecap="round" stroke-linejoin="round" stroke-miterlimit="10" x1="127.143" y1="142.143" x2="126.715" y2="142.143"/>
	<g>
		<circle fill="#3BB9C5" cx="126.715" cy="50.071" r="5"/>
	</g>
	<g>
		<circle fill="#3BB9C5" cx="126.715" cy="141.5" r="5"/>
	</g>
	<g>
		<circle fill="#3BB9C5" cx="73.714" cy="49.286" r="5"/>
	</g>
	<g>
		<circle fill="#3BB9C5" cx="73.571" cy="142.143" r="5"/>
	</g>
	<line fill="none" stroke="#3BB9C5" stroke-miterlimit="10" x1="73.714" y1="49.286" x2="73.714" y2="95.714"/>
	<line fill="none" stroke="#3BB9C5" stroke-miterlimit="10" x1="126.715" y1="49.286" x2="126.715" y2="95.714"/>
	<g>
		<g>
			<line fill="none" stroke="#3BB9C5" stroke-miterlimit="10" x1="126.715" y1="95.714" x2="126.715" y2="97.857"/>
			
				<line fill="none" stroke="#3BB9C5" stroke-miterlimit="10" stroke-dasharray="6.5587,6.5587" x1="126.715" y1="102.571" x2="126.715" y2="137.643"/>
			<polyline fill="none" stroke="#3BB9C5" stroke-miterlimit="10" points="126.715,140 126.715,142.143 127.785,140.285 			"/>
			
				<line fill="none" stroke="#3BB9C5" stroke-miterlimit="10" stroke-dasharray="6.3062,6.3062" x1="130.071" y1="136.429" x2="151.715" y2="99.5"/>
			<polyline fill="none" stroke="#3BB9C5" stroke-miterlimit="10" points="152.857,97.571 153.929,95.714 151.785,95.714 			"/>
			
				<line fill="none" stroke="#3BB9C5" stroke-miterlimit="10" stroke-dasharray="5.76,5.76" x1="147.643" y1="95.714" x2="51" y2="95.714"/>
			<polyline fill="none" stroke="#3BB9C5" stroke-miterlimit="10" points="48.929,95.714 46.786,95.714 47.857,97.571 			"/>
			
				<line fill="none" stroke="#3BB9C5" stroke-miterlimit="10" stroke-dasharray="6.2812,6.2812" x1="50.143" y1="101.429" x2="71.5" y2="138.285"/>
			<polyline fill="none" stroke="#3BB9C5" stroke-miterlimit="10" points="72.643,140.285 73.714,142.143 73.714,140 			"/>
			
				<line fill="none" stroke="#3BB9C5" stroke-miterlimit="10" stroke-dasharray="6.5502,6.5502" x1="73.714" y1="135.285" x2="73.714" y2="100.214"/>
			<line fill="none" stroke="#3BB9C5" stroke-miterlimit="10" x1="73.714" y1="97.857" x2="73.714" y2="95.714"/>
		</g>
	</g>
	<line fill="none" stroke="#3BB9C5" stroke-miterlimit="10" x1="78.714" y1="130.285" x2="78.714" y2="134.429"/>
	<line fill="none" stroke="#3BB9C5" stroke-miterlimit="10" x1="80.929" y1="130.285" x2="80.929" y2="134.429"/>
	<line fill="none" stroke="#3BB9C5" stroke-miterlimit="10" x1="78.714" y1="56" x2="78.714" y2="60.143"/>
	<line fill="none" stroke="#3BB9C5" stroke-miterlimit="10" x1="121.785" y1="58.071" x2="117.643" y2="58.071"/>
	<line fill="none" stroke="#3BB9C5" stroke-miterlimit="10" x1="121.785" y1="131.215" x2="117.643" y2="131.215"/>
	<line fill="none" stroke="#3BB9C5" stroke-miterlimit="10" x1="121.785" y1="133.929" x2="117.643" y2="133.929"/>
	
		<line fill="none" stroke="#3BB9C5" stroke-miterlimit="10" stroke-dasharray="6" x1="73.714" y1="142.143" x2="126.715" y2="142.143"/>
	<line fill="none" stroke="#3BB9C5" stroke-miterlimit="10" x1="46.786" y1="95.714" x2="153.929" y2="95.714"/>
</g>
</svg>
