<?xml version="1.0" encoding="utf-8"?>
<!-- Generator: Adobe Illustrator 21.1.0, SVG Export Plug-In . SVG Version: 6.00 Build 0)  -->
<svg version="1.1" id="Layer_1" xmlns="http://www.w3.org/2000/svg" xmlns:xlink="http://www.w3.org/1999/xlink" x="0px" y="0px"
	 viewBox="0 0 280 280" style="enable-background:new 0 0 280 280;" xml:space="preserve">
<style type="text/css">
	.st0{fill:#3BB9C5;}
	.st1{fill:none;stroke:#3BB9C5;stroke-miterlimit:10;}
	.st2{fill:none;stroke:#3BB9C5;stroke-miterlimit:10;stroke-dasharray:6;}
	.st3{fill:none;stroke:#3BB9C5;stroke-miterlimit:10;stroke-dasharray:6.2166,6.2166;}
	.st4{fill:none;stroke:#3BB9C5;stroke-miterlimit:10;stroke-dasharray:5.9545,5.9545;}
	.st5{fill:none;stroke:#FFFFFF;stroke-width:6;stroke-linecap:round;stroke-linejoin:round;stroke-miterlimit:10;}
	.st6{fill:none;stroke:#3BB9C5;stroke-miterlimit:10;stroke-dasharray:6.5587,6.5587;}
	.st7{fill:none;stroke:#3BB9C5;stroke-miterlimit:10;stroke-dasharray:6.3062,6.3062;}
	.st8{fill:none;stroke:#3BB9C5;stroke-miterlimit:10;stroke-dasharray:5.76,5.76;}
	.st9{fill:none;stroke:#3BB9C5;stroke-miterlimit:10;stroke-dasharray:6.2812,6.2812;}
	.st10{fill:none;stroke:#3BB9C5;stroke-miterlimit:10;stroke-dasharray:6.5502,6.5502;}
	.st11{fill:url(#);stroke:#00A9B7;stroke-miterlimit:10;}
	.st12{fill:#00A9B7;}
</style>
<g>
	<g>
		<path class="st0" d="M108.3,79.1l70.5,0l35.3,61.1l-35.3,61.1l-70.5,0L73,140.1L108.3,79.1 M107.7,78.1l-35.8,62.1l35.8,62.1
			l71.7,0l35.8-62.1l-35.8-62.1L107.7,78.1L107.7,78.1z"/>
	</g>
	<g>
		<circle class="st0" cx="71.8" cy="140.1" r="6.7"/>
	</g>
	<g>
		<circle class="st0" cx="179.3" cy="78.1" r="6.7"/>
	</g>
	<g>
		<circle class="st0" cx="107.9" cy="201.9" r="6.7"/>
	</g>
	<g>
		<g>
			<line class="st1" x1="71.8" y1="140.1" x2="74.4" y2="138.6"/>
			<line class="st3" x1="79.8" y1="135.5" x2="174.1" y2="81.2"/>
			<polyline class="st1" points="176.7,79.6 179.3,78.1 177.8,80.7 			"/>
			<line class="st4" x1="174.9" y1="85.9" x2="110.9" y2="196.7"/>
			<line class="st1" x1="109.4" y1="199.3" x2="107.9" y2="201.9"/>
		</g>
	</g>
	<polyline class="st1" points="122.6,160.5 121.2,178.9 134.9,167.7 	"/>
	<polyline class="st1" points="118.3,121.5 128.7,106.2 111.2,109.2 	"/>
</g>
</svg>
