<?xml version="1.0" encoding="utf-8"?>
<!-- Generator: Adobe Illustrator 19.2.1, SVG Export Plug-In . SVG Version: 6.00 Build 0)  -->
<svg version="1.1" id="Layer_1" xmlns="http://www.w3.org/2000/svg" xmlns:xlink="http://www.w3.org/1999/xlink" x="0px" y="0px"
	 viewBox="0 0 107.1 98" style="enable-background:new 0 0 107.1 98;" xml:space="preserve">
<style type="text/css">
	.st0{fill:#3BB9C5;}
</style>
<g>
	<g>
		<path class="st0" d="M30.8,5.5h50.4l25.2,43.6L81.1,92.8H30.8L5.6,49.1L30.8,5.5 M30.4,4.8L4.8,49.1l25.6,44.4h51.2l25.6-44.4
			L81.6,4.8L30.4,4.8L30.4,4.8z"/>
	</g>
	<g>
		<circle class="st0" cx="4.8" cy="49.1" r="4.8"/>
	</g>
	<g>
		<circle class="st0" cx="81.6" cy="4.8" r="4.8"/>
	</g>
	<g>
		<circle class="st0" cx="87.5" cy="36.4" r="4.3"/>
	</g>
	<g>
		<circle class="st0" cx="34" cy="36.4" r="4.3"/>
	</g>
	<g>
		<circle class="st0" cx="30.5" cy="93.2" r="4.8"/>
	</g>
	<g>
		<path class="st0" d="M57.9,27.1l29.2,9.6l6.4,30.1L70.6,87.3l-29.2-9.6L35,47.6L57.9,27.1 M57.7,26.3L34.2,47.4l6.5,30.9l30,9.8
			L94.2,67l-6.5-30.9L57.7,26.3L57.7,26.3z"/>
	</g>
	<g>
		<path class="st0" d="M43.6,9.2l9,10.5L48,32.8l-13.6,2.5l-9-10.5l4.6-13.1L43.6,9.2 M43.9,8.4l-14.4,2.7l-4.9,13.8l9.5,11.1
			l14.4-2.7l4.9-13.9L43.9,8.4L43.9,8.4z"/>
	</g>
</g>
</svg>
