<?xml version="1.0" encoding="utf-8"?>
<!-- Generator: Adobe Illustrator 19.2.1, SVG Export Plug-In . SVG Version: 6.00 Build 0)  -->
<svg version="1.1" id="Layer_1" xmlns="http://www.w3.org/2000/svg" xmlns:xlink="http://www.w3.org/1999/xlink" x="0px" y="0px"
	 viewBox="0 0 108.7 93.7" style="enable-background:new 0 0 108.7 93.7;" xml:space="preserve">
<style type="text/css">
	.st0{fill:none;stroke:#3BB9C5;stroke-miterlimit:10;}
	.st1{fill:#3BB9C5;}
</style>
<g>
	<path class="st0" d="M80.5,91.9H28.6l-17.3-30l8.4-4.7l3.1-1.8l3.4-1.9l3.4-1.9l3.4-1.9l3.4-1.9l3.4-1.9l3.4-1.9l3.4-1.9l3.4-1.9
		l3.4-1.9h2.8l3.2,1.9l3.2,1.9l3.2,1.9l3.2,1.9l3.2,1.9l3.2,1.9l3.2,1.9l3.2,1.9l3.2,1.9l2.8,1.7l9.4,5.8L80.5,91.9z M36.6,47.5
		l-3.4,1.9l-3.4,1.9l-3.4,1.9l-3.4,1.9L19.7,57l-8.4,4.7l17.3,30h51.9l16.8-29.1L88,56.9l-2.8-1.7L82,53.2l-3.2-1.9l-3.2-1.9
		l-3.2-1.9 M1.1,46.9L1.1,46.9L1.1,46.9L1.1,46.9L27.9,0.5h53.6l26.8,46.4 M10.1,62.4l17.8,30.8h53.6l17.1-29.7"/>
	<g>
		<polygon class="st1" points="55.2,36.9 53.8,37.7 56.6,37.7 		"/>
	</g>
	<polyline class="st0" points="33.2,49.5 5.8,49.5 2.3,47.5 36.6,47.5 	"/>
	<path class="st0" d="M72.5,47.5h33.9c0.1,0,0.1,0.1,0.1,0.1l-3.6,1.8H75.7"/>
	<path class="st0" d="M69.3,45.6h36c0.1,0,0.1-0.1,0.1-0.1l-3.4-1.8H66.1"/>
	<polyline class="st0" points="43.4,43.6 7.4,43.6 3.6,45.6 40,45.6 	"/>
	<path class="st0" d="M69.3,45.6h36.4c0,0,0,0,0.1,0l1.1,0.6c0.6,0.3,0.6,1.1,0,1.4l0,0c0,0,0,0-0.1,0H72.5"/>
	<polyline class="st0" points="36.6,47.5 2.3,47.5 1.1,46.9 3.6,45.6 40,45.6 	"/>
	<g>
		<path class="st1" d="M55.2,19.9l6.5,3.4H48.5L55.2,19.9 M55.3,19.1L45.7,24h19.1L55.3,19.1L55.3,19.1z"/>
	</g>
	<polyline class="st0" points="85.2,54.4 91.4,54.4 95.2,52.5 82.1,52.5 	"/>
	<polyline class="st0" points="26.2,52.5 12.9,52.5 16.4,54.4 22.8,54.4 	"/>
	<polyline class="st0" points="88.7,56.7 93.2,54.4 86.6,54.9 	"/>
	<polyline class="st0" points="20.9,54.4 14.7,54.4 18.5,56.8 	"/>
	<g>
		<path class="st1" d="M64.5,24.7l1,0.5H44.7l1.1-0.5H64.5 M64.7,24H45.6l-3.8,1.9h26.6L64.7,24L64.7,24z"/>
	</g>
	<g>
		<path class="st1" d="M59.7,22.4l0.4,0.4H50.1l0.5-0.4H59.7 M59.9,21.7h-9.6l-2.6,1.8h14.6L59.9,21.7L59.9,21.7z"/>
	</g>
	<polyline class="st0" points="82.1,53.4 95.2,53.4 99.1,51.4 78.9,51.4 	"/>
	<polyline class="st0" points="29.7,51.4 9.4,51.4 12.9,53.4 26.2,53.4 	"/>
	<polyline class="st0" points="78.9,51.4 99.1,51.4 102.9,49.5 75.7,49.5 	"/>
	<polyline class="st0" points="33.2,49.5 5.8,49.5 9.4,51.4 29.7,51.4 	"/>
	<polyline class="st0" points="66.2,43.6 102,43.6 98.2,41.6 62.9,41.6 	"/>
	<polyline class="st0" points="46.9,41.6 11.2,41.6 7.4,43.6 43.4,43.6 	"/>
	<g>
		<path class="st1" d="M83.2,34.5l1,0.5H25.7l1.1-0.5H83.2 M83.3,33.8H26.5l-3.8,1.9h64.4L83.3,33.8L83.3,33.8z"/>
	</g>
	<polyline class="st0" points="59.8,39.7 94.5,39.7 90.8,37.7 56.6,37.7 53.8,37.7 18.9,37.7 15,39.7 50.4,39.7 	"/>
	<g>
		<path class="st1" d="M68.2,26.7l1,0.5H40.9l1.1-0.5H68.2 M68.4,26H41.8l-3.9,1.9h34.1L68.4,26L68.4,26z"/>
	</g>
	<polyline class="st0" points="62.9,41.6 98.2,41.6 94.5,39.7 59.8,39.7 	"/>
	<polyline class="st0" points="50.4,39.7 15,39.7 11.2,41.6 46.9,41.6 	"/>
	<g>
		<path class="st1" d="M86.9,36.5l1,0.5H21.8l1-0.5H86.9 M87.1,35.8H22.7l-3.8,1.9h71.9L87.1,35.8L87.1,35.8z"/>
	</g>
	<g>
		<path class="st1" d="M71.9,28.6l1,0.5H37.1l1-0.5H71.9 M72.2,27.9H38l-3.8,1.9h41.7L72.2,27.9L72.2,27.9z"/>
	</g>
	<g>
		<path class="st1" d="M75.7,30.6l1,0.5H33.3l1.1-0.5H75.7 M75.9,29.9H34.2l-3.9,1.9h49.3L75.9,29.9L75.9,29.9z"/>
	</g>
	<g>
		<path class="st1" d="M79.4,32.6l1,0.5h-51l1-0.5H79.4 M79.6,31.9H30.3l-3.9,1.9h56.9L79.6,31.9L79.6,31.9z"/>
	</g>
	<g>
		<path class="st1" d="M1.5,46.4l-0.4,0.4L1.5,46.4z"/>
	</g>
	<line class="st0" x1="98.6" y1="63.6" x2="97.3" y2="62.9"/>
</g>
</svg>
