<?xml version="1.0" encoding="utf-8"?>
<!-- Generator: Adobe Illustrator 19.2.1, SVG Export Plug-In . SVG Version: 6.00 Build 0)  -->
<svg version="1.1" id="Layer_1" xmlns="http://www.w3.org/2000/svg" xmlns:xlink="http://www.w3.org/1999/xlink" x="0px" y="0px"
	 viewBox="0 0 107.2 98" style="enable-background:new 0 0 107.2 98;" xml:space="preserve">
<style type="text/css">
	.st0{fill:#3BB9C5;}
	.st1{fill:none;stroke:#3BB9C5;stroke-miterlimit:10;}
	.st2{fill:none;stroke:#3BB9C5;stroke-miterlimit:10;stroke-dasharray:6.2166,6.2166;}
	.st3{fill:none;stroke:#3BB9C5;stroke-miterlimit:10;stroke-dasharray:5.9545,5.9545;}
</style>
<g>
	<g>
		<path class="st0" d="M30.9,5.5h50.4l25.2,43.6L81.2,92.8H30.9L5.6,49.1L30.9,5.5 M30.4,4.8L4.9,49.1l25.6,44.4h51.2l25.6-44.4
			L81.6,4.8H30.4L30.4,4.8z"/>
	</g>
	<g>
		<circle class="st0" cx="4.8" cy="49.1" r="4.8"/>
	</g>
	<g>
		<circle class="st0" cx="81.6" cy="4.8" r="4.8"/>
	</g>
	<g>
		<circle class="st0" cx="30.6" cy="93.2" r="4.8"/>
	</g>
	<g>
		<g>
			<line class="st1" x1="4.8" y1="49.1" x2="6.6" y2="48"/>
			<line class="st2" x1="10.5" y1="45.8" x2="77.9" y2="7"/>
			<polyline class="st1" points="79.7,5.9 81.6,4.8 80.5,6.6 			"/>
			<line class="st3" x1="78.4" y1="10.4" x2="32.7" y2="89.5"/>
			<line class="st1" x1="31.6" y1="91.4" x2="30.6" y2="93.2"/>
		</g>
	</g>
	<polyline class="st1" points="41.1,63.6 40.1,76.8 49.9,68.8 	"/>
	<polyline class="st1" points="38,35.8 45.4,24.9 32.9,27 	"/>
</g>
</svg>
