<?xml version="1.0" encoding="utf-8"?>
<!-- Generator: Adobe Illustrator 21.1.0, SVG Export Plug-In . SVG Version: 6.00 Build 0)  -->
<svg version="1.1" id="Layer_1" xmlns="http://www.w3.org/2000/svg" xmlns:xlink="http://www.w3.org/1999/xlink" x="0px" y="0px"
	 viewBox="0 0 280 280" style="enable-background:new 0 0 280 280;" xml:space="preserve">
<style type="text/css">
	.st0{fill:#3BB9C5;}
	.st1{fill:none;stroke:#3BB9C5;stroke-miterlimit:10;}
	.st2{fill:none;stroke:#3BB9C5;stroke-miterlimit:10;stroke-dasharray:6;}
	.st3{fill:none;stroke:#3BB9C5;stroke-miterlimit:10;stroke-dasharray:6.2166,6.2166;}
	.st4{fill:none;stroke:#3BB9C5;stroke-miterlimit:10;stroke-dasharray:5.9545,5.9545;}
	.st5{fill:none;stroke:#FFFFFF;stroke-width:6;stroke-linecap:round;stroke-linejoin:round;stroke-miterlimit:10;}
	.st6{fill:none;stroke:#3BB9C5;stroke-miterlimit:10;stroke-dasharray:6.5587,6.5587;}
	.st7{fill:none;stroke:#3BB9C5;stroke-miterlimit:10;stroke-dasharray:6.3062,6.3062;}
	.st8{fill:none;stroke:#3BB9C5;stroke-miterlimit:10;stroke-dasharray:5.76,5.76;}
	.st9{fill:none;stroke:#3BB9C5;stroke-miterlimit:10;stroke-dasharray:6.2812,6.2812;}
	.st10{fill:none;stroke:#3BB9C5;stroke-miterlimit:10;stroke-dasharray:6.5502,6.5502;}
	.st11{fill:url(#);stroke:#00A9B7;stroke-miterlimit:10;}
	.st12{fill:#00A9B7;}
</style>
<g>
	<polyline class="st1" points="139.6,88.6 156.5,81.1 140.1,74.5 	"/>
	<polyline class="st1" points="192.7,165.1 190.6,183.5 204.6,172.7 	"/>
	<polyline class="st1" points="95.3,170.8 80.4,159.8 82.7,177.4 	"/>
	<path class="st0" d="M77.4,143.6c0,2.5-1.3,4.6-3.3,5.8c-1,0.6-2.1,0.9-3.3,0.9c-3.7,0-6.7-3-6.7-6.7c0-3.7,3-6.7,6.7-6.7
		c1.2,0,2.3,0.3,3.3,0.9c2,1.1,3.3,3.2,3.3,5.6C77.4,143.5,77.4,143.6,77.4,143.6z"/>
	<path class="st0" d="M114.4,81.6v0.1c0,3.7-3,6.7-6.7,6.7c-1.6,0-3.1-0.6-4.2-1.5c-1.5-1.2-2.4-3.1-2.4-5.2c0-3.7,3-6.7,6.7-6.7
		C111.4,75,114.3,77.9,114.4,81.6z"/>
	<g>
		<polyline class="st1" points="114.4,81.6 178.3,81.6 214.1,143.6 178.3,205.7 106.6,205.7 74.1,149.4 		"/>
	</g>
</g>
</svg>
