<?xml version="1.0" encoding="utf-8"?>
<!-- Generator: Adobe Illustrator 16.0.0, SVG Export Plug-In . SVG Version: 6.00 Build 0)  -->
<!DOCTYPE svg PUBLIC "-//W3C//DTD SVG 1.1//EN" "http://www.w3.org/Graphics/SVG/1.1/DTD/svg11.dtd" [
	<!ENTITY ns_extend "http://ns.adobe.com/Extensibility/1.0/">
	<!ENTITY ns_ai "http://ns.adobe.com/AdobeIllustrator/10.0/">
	<!ENTITY ns_graphs "http://ns.adobe.com/Graphs/1.0/">
	<!ENTITY ns_vars "http://ns.adobe.com/Variables/1.0/">
	<!ENTITY ns_imrep "http://ns.adobe.com/ImageReplacement/1.0/">
	<!ENTITY ns_sfw "http://ns.adobe.com/SaveForWeb/1.0/">
	<!ENTITY ns_custom "http://ns.adobe.com/GenericCustomNamespace/1.0/">
	<!ENTITY ns_adobe_xpath "http://ns.adobe.com/XPath/1.0/">
]>
<svg version="1.1" id="Layer_1" xmlns:x="&ns_extend;" xmlns:i="&ns_ai;" xmlns:graph="&ns_graphs;"
	 xmlns="http://www.w3.org/2000/svg" xmlns:xlink="http://www.w3.org/1999/xlink" x="0px" y="0px" width="107.143px"
	 height="92.857px" viewBox="51 53.571 107.143 92.857" enable-background="new 51 53.571 107.143 92.857" xml:space="preserve">
<metadata>
	<sfw  xmlns="&ns_sfw;">
		<slices></slices>
		<sliceSourceBounds  width="107.143" height="92.857" y="54.071" x="50.5" bottomLeftOrigin="true"></sliceSourceBounds>
	</sfw>
</metadata>
<g>
	<path fill="#3BB9C5" d="M96.357,54.286V64h-4.714h-0.714v0.714V75v0.714h0.714h4.714v7.929h-4.714h-0.714v0.714v7.572v0.714h0.714
		h4.714v8.286h-4.714h-0.714v0.714v8.5v0.715h0.714h4.714v12.5h-4.714h-0.714v0.714V132v0.715h0.714h4.714v13H78.214L51.857,100
		l26.357-45.714H96.357 M97.786,54.286h7.572c-1.715,2.286-6.786,9.857-6.786,18.429c0,3.357,0.786,6.571,2.429,9.429
		c0.5,0.928,1,1.857,1.5,2.714c4.357,7.786,7.857,13.929,7.857,22.072c0,3.714-0.715,7.856-2.215,12.5
		C106.715,123.857,106,128.143,106,132c0,7.215,2.429,11.5,3.715,13.643h-12v-13.714v-0.714H97h-4.714v-6.5H97h0.714V124v-13.929
		v-0.714H97h-4.714v-7.072H97h0.714v-0.714v-9.714v-0.714H97h-4.714V85H97h0.714v-0.714V75v-0.714H97h-4.714v-8.857H97h0.714v-0.714
		V54.286 M106.785,54.286h24.144L157.285,100l-26.356,45.715h-19.5c-0.071-0.144-0.214-0.357-0.357-0.572
		c-1.143-2-3.643-6.071-3.643-13.071c0-3.714,0.714-7.786,2.071-12.143c1.5-4.786,2.215-9,2.215-12.929
		c0-8.571-3.572-14.857-8.072-22.786c-0.5-0.857-1-1.786-1.5-2.714c-1.5-2.643-2.214-5.571-2.214-8.714
		c0-9.571,6.929-18.143,7-18.214L106.785,54.286 M97.071,53.571v11.143h-5.428V75h5.428v9.357h-5.428v7.572h5.428v9.714h-5.428v8.5
		h5.428v13.929h-5.428V132h5.428v14.071V132h-5.428v-7.929h5.428v-13.929h-5.428v-8.5h5.428v-9.714h-5.428v-7.572h5.428V75h-5.428
		V64.714h5.428V53.571H77.786L51,100l26.786,46.429h33.286c-0.714-1.5-4.214-5.857-4.214-14.357c0-3.429,0.571-7.5,2.071-12.356
		c1.571-4.93,2.214-9,2.214-12.715c0-9.286-4.285-15.857-9.5-25.143c-1.643-3-2.357-6.071-2.357-9.071
		c0-9.929,7.143-18.714,7.143-18.714s-7.143,8.714-7.143,18.714c0,3,0.643,6.071,2.357,9.071c5.215,9.357,9.5,15.857,9.5,25.143
		c0,3.715-0.643,7.785-2.214,12.715c-1.5,4.856-2.071,8.928-2.071,12.356c0,8.5,3.5,12.857,4.214,14.357h20.286L158.143,100
		l-26.785-46.429H97.071L97.071,53.571z"/>
</g>
</svg>
