<?xml version="1.0" encoding="utf-8"?>
<!-- Generator: Adobe Illustrator 19.2.1, SVG Export Plug-In . SVG Version: 6.00 Build 0)  -->
<svg version="1.1" id="Layer_1" xmlns="http://www.w3.org/2000/svg" xmlns:xlink="http://www.w3.org/1999/xlink" x="0px" y="0px"
	 viewBox="0 0 107.1 98" style="enable-background:new 0 0 107.1 98;" xml:space="preserve">
<style type="text/css">
	.st0{fill:#3BB9C5;}
</style>
<g>
	<g>
		<path class="st0" d="M30.8,5.5h50.4l25.2,43.6L81.1,92.7H30.8L5.6,49.1L30.8,5.5 M30.4,4.8L4.8,49.1l25.6,44.4h51.2l25.6-44.4
			L81.6,4.8H30.4L30.4,4.8z"/>
	</g>
	<g>
		<circle class="st0" cx="4.8" cy="49.1" r="4.8"/>
	</g>
	<g>
		<circle class="st0" cx="81.6" cy="4.8" r="4.8"/>
	</g>
	<g>
		<circle class="st0" cx="37.2" cy="81.6" r="4.8"/>
	</g>
	<g>
		<circle class="st0" cx="84.8" cy="65.7" r="4.8"/>
	</g>
	<g>
		<circle class="st0" cx="95.6" cy="52.7" r="4.8"/>
	</g>
	<g>
		<circle class="st0" cx="81.6" cy="51.9" r="4.8"/>
	</g>
	<g>
		<circle class="st0" cx="73.9" cy="14.3" r="4.8"/>
	</g>
	<g>
		<circle class="st0" cx="60.7" cy="12.1" r="4.8"/>
	</g>
	<g>
		<circle class="st0" cx="62" cy="25.4" r="4.8"/>
	</g>
	<g>
		<circle class="st0" cx="45.5" cy="19.1" r="4.8"/>
	</g>
	<g>
		<circle class="st0" cx="18.1" cy="41.3" r="4.8"/>
	</g>
	<g>
		<circle class="st0" cx="17.6" cy="53.9" r="4.8"/>
	</g>
	<g>
		<circle class="st0" cx="30.5" cy="36.5" r="4.8"/>
	</g>
	<g>
		<circle class="st0" cx="25.7" cy="64.9" r="4.8"/>
	</g>
	<g>
		<circle class="st0" cx="30.5" cy="51.1" r="4.8"/>
	</g>
	<g>
		<circle class="st0" cx="30.5" cy="93.2" r="4.8"/>
	</g>
</g>
</svg>
