<?xml version="1.0" encoding="utf-8"?>
<!-- Generator: Adobe Illustrator 21.1.0, SVG Export Plug-In . SVG Version: 6.00 Build 0)  -->
<svg version="1.1" id="Layer_1" xmlns="http://www.w3.org/2000/svg" xmlns:xlink="http://www.w3.org/1999/xlink" x="0px" y="0px"
	 viewBox="0 0 280 280" style="enable-background:new 0 0 280 280;" xml:space="preserve">
<style type="text/css">
	.st0{fill:#3BB9C5;}
	.st1{fill:none;stroke:#3BB9C5;stroke-miterlimit:10;}
	.st2{fill:none;stroke:#3BB9C5;stroke-miterlimit:10;stroke-dasharray:6;}
	.st3{fill:none;stroke:#3BB9C5;stroke-miterlimit:10;stroke-dasharray:6.2166,6.2166;}
	.st4{fill:none;stroke:#3BB9C5;stroke-miterlimit:10;stroke-dasharray:5.9545,5.9545;}
	.st5{fill:none;stroke:#FFFFFF;stroke-width:6;stroke-linecap:round;stroke-linejoin:round;stroke-miterlimit:10;}
	.st6{fill:none;stroke:#3BB9C5;stroke-miterlimit:10;stroke-dasharray:6.5587,6.5587;}
	.st7{fill:none;stroke:#3BB9C5;stroke-miterlimit:10;stroke-dasharray:6.3062,6.3062;}
	.st8{fill:none;stroke:#3BB9C5;stroke-miterlimit:10;stroke-dasharray:5.76,5.76;}
	.st9{fill:none;stroke:#3BB9C5;stroke-miterlimit:10;stroke-dasharray:6.2812,6.2812;}
	.st10{fill:none;stroke:#3BB9C5;stroke-miterlimit:10;stroke-dasharray:6.5502,6.5502;}
	.st11{fill:url(#);stroke:#00A9B7;stroke-miterlimit:10;}
	.st12{fill:#00A9B7;}
</style>
<g>
	<path class="st1" d="M175,204.3l-72.7,0l-24.2-42l11.7-6.6l4.4-2.5l4.8-2.7l4.8-2.7l4.8-2.7l4.8-2.7l4.8-2.7l4.8-2.7l4.8-2.7
		l4.8-2.7l4.8-2.7h3.9l4.5,2.7l4.5,2.7l4.5,2.7l4.5,2.7l4.5,2.7l4.5,2.7l4.5,2.7l4.5,2.7l4.5,2.7l3.9,2.4l13.1,8.1L175,204.3z
		 M113.5,142.2l-4.8,2.7l-4.8,2.7l-4.8,2.7l-4.8,2.7l-4.4,2.5l-11.7,6.6l24.2,42l72.7,0l23.5-40.7l-13.1-8.1l-3.9-2.4l-4.5-2.7
		l-4.5-2.7l-4.5-2.7l-4.5-2.7 M63.8,141.3L63.8,141.3L63.8,141.3L63.8,141.3l37.5-64.9h75l37.5,64.9 M76.4,163.1l24.9,43.1h75
		l24-41.6"/>
	<g>
		<polygon class="st0" points="139.6,127.4 137.6,128.5 141.5,128.5 139.6,127.4 		"/>
	</g>
	<polyline class="st1" points="108.7,145 70.4,145 65.5,142.2 113.5,142.2 	"/>
	<path class="st1" d="M163.8,142.2h47.5c0.1,0,0.2,0.2,0.1,0.2l-5,2.5h-38.1"/>
	<path class="st1" d="M159.3,139.5h50.4c0.1,0,0.2-0.2,0.1-0.2l-4.8-2.5h-50.2"/>
	<polyline class="st1" points="123.1,136.8 72.6,136.8 67.3,139.5 118.3,139.5 	"/>
	<path class="st1" d="M159.3,139.5h50.9c0,0,0,0,0.1,0l1.6,0.8c0.8,0.4,0.8,1.5,0,1.9l0,0c0,0,0,0-0.1,0h-48"/>
	<polyline class="st1" points="113.5,142.2 65.5,142.2 63.8,141.3 67.3,139.5 118.3,139.5 	"/>
	<g>
		<path class="st0" d="M139.6,103.5l9.1,4.8h-18.5L139.6,103.5 M139.7,102.4l-13.5,6.9h26.7L139.7,102.4L139.7,102.4z"/>
	</g>
	<polyline class="st1" points="181.6,151.9 190.2,151.9 195.6,149.2 177.2,149.2 	"/>
	<polyline class="st1" points="99,149.2 80.3,149.2 85.3,151.9 94.2,151.9 	"/>
	<polyline class="st1" points="186.5,155.1 192.7,151.9 183.5,152.6 	"/>
	<polyline class="st1" points="91.6,151.9 82.8,151.9 88.2,155.2 	"/>
	<g>
		<path class="st0" d="M152.6,110.3l1.4,0.7h-29.1l1.5-0.7H152.6 M152.8,109.3h-26.7l-5.3,2.7h37.3L152.8,109.3L152.8,109.3z"/>
	</g>
	<g>
		<path class="st0" d="M145.9,107.1l0.6,0.5h-14.1l0.7-0.5H145.9 M146.2,106.1h-13.4l-3.7,2.5h20.4L146.2,106.1L146.2,106.1z"/>
	</g>
	<polyline class="st1" points="177.2,150.5 195.6,150.5 201,147.7 172.7,147.7 	"/>
	<polyline class="st1" points="103.8,147.7 75.4,147.7 80.3,150.5 99,150.5 	"/>
	<polyline class="st1" points="172.7,147.7 201,147.7 206.4,145 168.3,145 	"/>
	<polyline class="st1" points="108.7,145 70.4,145 75.4,147.7 103.8,147.7 	"/>
	<polyline class="st1" points="154.9,136.8 205.1,136.8 199.8,134 150.4,134 	"/>
	<polyline class="st1" points="128,134 78,134 72.6,136.8 123.1,136.8 	"/>
	<g>
		<path class="st0" d="M178.7,124l1.4,0.7H98.2l1.5-0.7H178.7 M178.9,123H99.4l-5.3,2.7h90.1L178.9,123L178.9,123z"/>
	</g>
	<polyline class="st1" points="146,131.3 194.6,131.3 189.4,128.5 141.5,128.5 137.6,128.5 88.7,128.5 83.3,131.3 132.8,131.3 	"/>
	<g>
		<path class="st0" d="M157.8,113.1l1.4,0.7h-39.7l1.5-0.7H157.8 M158.1,112.1h-37.3l-5.4,2.7h47.8L158.1,112.1L158.1,112.1z"/>
	</g>
	<polyline class="st1" points="150.4,134 199.8,134 194.6,131.3 146,131.3 	"/>
	<polyline class="st1" points="132.8,131.3 83.3,131.3 78,134 128,134 	"/>
	<g>
		<path class="st0" d="M183.9,126.8l1.4,0.7H92.8l1.4-0.7H183.9 M184.2,125.8H94l-5.3,2.7h100.7L184.2,125.8L184.2,125.8z"/>
	</g>
	<g>
		<path class="st0" d="M163,115.8l1.4,0.7h-50.2l1.4-0.7H163 M163.3,114.8h-47.8l-5.3,2.7h58.4L163.3,114.8L163.3,114.8z"/>
	</g>
	<g>
		<path class="st0" d="M168.3,118.5l1.4,0.7h-60.8l1.5-0.7H168.3 M168.5,117.5h-58.4l-5.4,2.7h69L168.5,117.5L168.5,117.5z"/>
	</g>
	<g>
		<path class="st0" d="M173.5,121.3l1.4,0.7h-71.4l1.4-0.7H173.5 M173.7,120.3h-69l-5.4,2.7h79.6L173.7,120.3L173.7,120.3z"/>
	</g>
	<g>
		<polygon class="st0" points="64.4,140.7 63.8,141.3 64.4,140.7 		"/>
	</g>
	<line class="st1" x1="200.3" y1="164.7" x2="198.5" y2="163.7"/>
</g>
</svg>
