<?xml version="1.0" encoding="utf-8"?>
<!-- Generator: Adobe Illustrator 19.2.1, SVG Export Plug-In . SVG Version: 6.00 Build 0)  -->
<svg version="1.1" id="Layer_1" xmlns="http://www.w3.org/2000/svg" xmlns:xlink="http://www.w3.org/1999/xlink" x="0px" y="0px"
	 viewBox="0 0 108.1 93.7" style="enable-background:new 0 0 108.1 93.7;" xml:space="preserve">
<style type="text/css">
	.st0{fill:none;stroke:#3BB9C5;stroke-miterlimit:10;}
	.st1{fill:#3BB9C5;}
</style>
<g>
	<polyline class="st0" points="5.6,55.5 6.6,55.5 6.6,53.1 4.2,53.1 4.2,53.2 	"/>
	<g>
		<path class="st1" d="M54,48l3,5.1l2.5,4.4l0.8,1.4l1,1.6l0.8,1.3l0.2,0.4l1.4,2.4l1,1.7l0.6,1l1.8,3.1l0.2,0.4l1.9,3.4l1.1,2
			l3.4,5.8l1.2,2.1l2.1,3.6l0.1,0.1l2.6,4.6H28.4l2.6-4.6v-0.1l4.1-7l0.7-1.3l7-12.1l2.4-4.2l0.1-0.2l1.3-2.2l2.1-3.6l0.6-1l0.8-1.4
			L54,48 M54,46.9c-0.1,0-0.2,0.1-0.3,0.1l-4.1,7.1l-0.8,1.4l-0.6,1l-2.1,3.6l-1.3,2.2l-0.1,0.2l-2.4,4.2l-7,12.1l-0.7,1.3l-4.1,7
			v0.1l-3,5.2v0.1c-0.1,0.2,0.1,0.4,0.2,0.4c0,0,0,0,0.1,0s0,0,0.1,0h52.4l0,0c0.1,0,0.1,0,0.1-0.1c0.1-0.1,0.2-0.3,0.1-0.5
			l-2.9-5.1l-0.1-0.1l-2.1-3.6l-1.2-2.1l-3.4-5.8l-1.1-2l-1.9-3.4L67.6,70l-1.8-3.1L65.3,66l-1-1.7l-1.4-2.4l-0.2-0.4l-0.8-1.3
			l-1-1.6l-0.8-1.4l-2.5-4.4L54.3,47c0-0.1-0.1-0.1-0.1-0.1C54.1,46.9,54.1,46.9,54,46.9L54,46.9z"/>
	</g>
	<path class="st0" d="M55.3,44.3l-1,1.7l0,0l-0.2,0.4c-0.1,0.1-0.1,0.2,0,0.4l0.2,0.4l0,0l0,0l26.2,45.4c0.1,0.1,0.3,0.2,0.5,0.1
		c0.1,0,0.1-0.1,0.1-0.1l26.4-45.8c0.1-0.1,0.1-0.2,0-0.4L81.1,0.7c-0.1-0.1-0.3-0.2-0.5-0.1c-0.1,0-0.1,0.1-0.1,0.1l-1.6,2.7
		l-3,5.1l-2.8,4.8l0,0L71.6,16l0,0l-0.9,1.4l-2.9,5.1L65.3,27l0,0l-1.9,3.3l-6,10.4"/>
	<path class="st0" d="M45.3,31.6l-5-8.6l-0.3-0.5l-0.6-1l-2.1-3.8l-5-8.6l-3-5.2l-1.8-3.1c-0.1-0.1-0.3-0.2-0.4-0.1
		c-0.1,0-0.1,0.1-0.1,0.1L0.6,46.5c-0.1,0.1-0.1,0.2,0,0.4l22.9,39.6l0.5,0.9l3,5.2c0.1,0.1,0.3,0.2,0.4,0.1c0.1,0,0.1-0.1,0.1-0.1
		l3-5.2v-0.1l4.1-7l0.7-1.3l0,0l7-12.1l2.4-4.2l0.1-0.2l0,0l1.3-2.2l2.1-3.6l0.6-1l0.8-1.4l4.1-7.1l0.2-0.4c0.1-0.1,0.1-0.2,0-0.4
		L53.7,46l0,0l0,0l0,0L52,43.1l0,0l-0.2-0.4l0,0L49,38l-0.6-1.1l-0.8-1.4"/>
	<g>
		<path class="st1" d="M79.6,0.8L78.3,3l-1.4,2.5l-1.6,2.8l-1.8,3.1l-1,1.8l-1.5,2.6l-0.8,1.4l0,0l-2.9,5.1L67,23l-2.2,3.9l-1.1,1.9
			l-0.8,1.4l-2.6,4.5l-3.4,5.9l-0.1,0.2l-2.2,3.9l-0.6,1.1l-1.4-2.4L52.3,43l-2.8-4.9L49,37.1l-0.8-1.4l-2.3-4l-5-8.8l-0.3-0.5
			l-0.6-1l-2.1-3.9l-5-8.8l-3-5.4l-1.5-2.6H79.6 M27.8,0.1c-0.1,0-0.1,0-0.1,0.1c-0.1,0.1-0.2,0.3-0.1,0.5l1.8,3.1l3,5.4l5,8.8
			l2.1,3.9l0.6,1l0.3,0.5l5,8.8l2.3,4l0.8,1.4l0.6,1.1l2.8,4.9l0.2,0.4l1.7,2.9c0,0.1,0.1,0.1,0.1,0.1c0.1,0,0.1,0.1,0.1,0.1
			c0.1,0,0.2-0.1,0.3-0.1l1-1.7l2.2-3.9l0.1-0.2l3.4-5.9l2.6-4.5l0.8-1.4l1.1-1.9l2.2-3.9l0.4-0.7l2.9-5.1v-0.1l0.8-1.4l1.5-2.6
			l1-1.8L76,8.6l1.6-2.8L79,3.3l1.6-2.7c0-0.1,0-0.1,0.1-0.1c0-0.2-0.1-0.4-0.4-0.4H27.8L27.8,0.1L27.8,0.1z"/>
	</g>
	<g>
		<path class="st1" d="M25,10.6v0.9h-0.9v-0.9L25,10.6 M25.7,9.9h-2.4v2.4h2.4V9.9L25.7,9.9z"/>
	</g>
	<g>
		<path class="st1" d="M29.8,10.6v0.9h-0.9v-0.9L29.8,10.6 M30.5,9.9h-2.4v2.4h2.4V9.9L30.5,9.9z"/>
	</g>
	<g>
		<path class="st1" d="M25,7.1V8h-0.9V7.1H25 M25.7,6.4h-2.4v2.4h2.4V6.4L25.7,6.4z"/>
	</g>
	<g>
		<path class="st1" d="M29.8,7.1V8h-0.9V7.1H29.8 M30.5,6.4h-2.4v2.4h2.4V6.4L30.5,6.4z"/>
	</g>
	<g>
		<path class="st1" d="M25,14.2v0.9h-0.9v-0.9H25 M25.7,13.5h-2.4v2.4h2.4V13.5L25.7,13.5z"/>
	</g>
	<g>
		<path class="st1" d="M29.8,14.2v0.9h-0.9v-0.9H29.8 M30.5,13.5h-2.4v2.4h2.4V13.5L30.5,13.5z"/>
	</g>
	<g>
		<path class="st1" d="M25,17.7v0.9h-0.9v-0.9H25 M25.7,17h-2.4v2.4h2.4V17L25.7,17z"/>
	</g>
	<g>
		<path class="st1" d="M20.2,14.2v0.9h-0.9v-0.9H20.2 M20.9,13.5h-2.4v2.4h2.4V13.5L20.9,13.5z"/>
	</g>
	<g>
		<path class="st1" d="M20.2,17.7v0.9h-0.9v-0.9H20.2 M20.9,17h-2.4v2.4h2.4V17L20.9,17z"/>
	</g>
	<g>
		<path class="st1" d="M29.8,17.7v0.9h-0.9v-0.9H29.8 M30.5,17h-2.4v2.4h2.4V17L30.5,17z"/>
	</g>
	<g>
		<path class="st1" d="M34.6,14.2v0.9h-0.9v-0.9H34.6 M35.3,13.5h-2.4v2.4h2.4V13.5L35.3,13.5z"/>
	</g>
	<g>
		<path class="st1" d="M34.6,17.7v0.9h-0.9v-0.9H34.6 M35.3,17h-2.4v2.4h2.4V17L35.3,17z"/>
	</g>
	<g>
		<path class="st1" d="M25,22.1V23h-0.9v-0.9H25 M25.7,21.4h-2.4v2.4h2.4V21.4L25.7,21.4z"/>
	</g>
	<g>
		<path class="st1" d="M29.8,22.1V23h-0.9v-0.9H29.8 M30.5,21.4h-2.4v2.4h2.4V21.4L30.5,21.4z"/>
	</g>
	<g>
		<path class="st1" d="M25,25.6v0.9h-0.9v-0.9H25 M25.7,24.9h-2.4v2.4h2.4V24.9L25.7,24.9z"/>
	</g>
	<g>
		<path class="st1" d="M29.8,25.6v0.9h-0.9v-0.9H29.8 M30.5,24.9h-2.4v2.4h2.4V24.9L30.5,24.9z"/>
	</g>
	<g>
		<path class="st1" d="M25,29.2v0.9h-0.9v-0.9H25 M25.7,28.5h-2.4v2.4h2.4V28.5L25.7,28.5z"/>
	</g>
	<g>
		<path class="st1" d="M29.8,29.2v0.9h-0.9v-0.9H29.8 M30.5,28.5h-2.4v2.4h2.4V28.5L30.5,28.5z"/>
	</g>
	<g>
		<path class="st1" d="M25,32.7v0.9h-0.9v-0.9H25 M25.7,32h-2.4v2.4h2.4V32L25.7,32z"/>
	</g>
	<g>
		<path class="st1" d="M29.8,32.7v0.9h-0.9v-0.9H29.8 M30.5,32h-2.4v2.4h2.4V32L30.5,32z"/>
	</g>
	<g>
		<path class="st1" d="M25,36.2v0.9h-0.9v-0.9H25 M25.7,35.5h-2.4v2.4h2.4V35.5L25.7,35.5z"/>
	</g>
	<g>
		<path class="st1" d="M29.8,36.2v0.9h-0.9v-0.9H29.8 M30.5,35.5h-2.4v2.4h2.4V35.5L30.5,35.5z"/>
	</g>
	<g>
		<path class="st1" d="M25,39.7v0.9h-0.9v-0.9H25 M25.7,39h-2.4v2.4h2.4V39L25.7,39z"/>
	</g>
	<g>
		<path class="st1" d="M29.8,39.7v0.9h-0.9v-0.9H29.8 M30.5,39h-2.4v2.4h2.4V39L30.5,39z"/>
	</g>
	<g>
		<path class="st1" d="M25,43.2v0.9h-0.9v-0.9H25 M25.7,42.5h-2.4v2.4h2.4V42.5L25.7,42.5z"/>
	</g>
	<g>
		<path class="st1" d="M29.8,43.2v0.9h-0.9v-0.9H29.8 M30.5,42.5h-2.4v2.4h2.4V42.5L30.5,42.5z"/>
	</g>
	<g>
		<path class="st1" d="M25,46.7v0.9h-0.9v-0.9H25 M25.7,46h-2.4v2.4h2.4V46L25.7,46z"/>
	</g>
	<g>
		<path class="st1" d="M29.8,46.7v0.9h-0.9v-0.9H29.8 M30.5,46h-2.4v2.4h2.4V46L30.5,46z"/>
	</g>
	<g>
		<path class="st1" d="M25,50.3v0.9h-0.9v-0.9H25 M25.7,49.6h-2.4V52h2.4V49.6L25.7,49.6z"/>
	</g>
	<g>
		<path class="st1" d="M29.8,50.3v0.9h-0.9v-0.9H29.8 M30.5,49.6h-2.4V52h2.4V49.6L30.5,49.6z"/>
	</g>
	<g>
		<path class="st1" d="M25,53.8v0.9h-0.9v-0.9H25 M25.7,53.1h-2.4v2.4h2.4V53.1L25.7,53.1z"/>
	</g>
	<g>
		<path class="st1" d="M29.8,53.8v0.9h-0.9v-0.9H29.8 M30.5,53.1h-2.4v2.4h2.4V53.1L30.5,53.1z"/>
	</g>
	<g>
		<path class="st1" d="M25,56.5v0.9h-0.9v-0.9H25 M25.7,55.7h-2.4v2.4h2.4V55.7L25.7,55.7z"/>
	</g>
	<g>
		<path class="st1" d="M29.8,56.5v0.9h-0.9v-0.9H29.8 M30.5,55.7h-2.4v2.4h2.4V55.7L30.5,55.7z"/>
	</g>
	<g>
		<path class="st1" d="M25,60v0.9h-0.9V60H25 M25.7,59.2h-2.4v2.4h2.4V59.2L25.7,59.2z"/>
	</g>
	<g>
		<path class="st1" d="M29.8,60v0.9h-0.9V60H29.8 M30.5,59.2h-2.4v2.4h2.4V59.2L30.5,59.2z"/>
	</g>
	<g>
		<path class="st1" d="M25,63.5v0.9h-0.9v-0.9H25 M25.7,62.7h-2.4v2.4h2.4V62.7L25.7,62.7z"/>
	</g>
	<g>
		<path class="st1" d="M29.8,63.5v0.9h-0.9v-0.9H29.8 M30.5,62.7h-2.4v2.4h2.4V62.7L30.5,62.7z"/>
	</g>
	<g>
		<path class="st1" d="M25,67V68h-0.9V67H25 M25.7,66.3h-2.4v2.4h2.4V66.3L25.7,66.3z"/>
	</g>
	<g>
		<path class="st1" d="M29.8,67V68h-0.9V67H29.8 M30.5,66.3h-2.4v2.4h2.4V66.3L30.5,66.3z"/>
	</g>
	<g>
		<path class="st1" d="M34.6,22.1V23h-0.9v-0.9H34.6 M35.3,21.4h-2.4v2.4h2.4V21.4L35.3,21.4z"/>
	</g>
	<g>
		<polygon class="st1" points="40.1,21.4 39.5,21.4 40.1,22.4 		"/>
	</g>
	<g>
		<path class="st1" d="M34.6,25.6v0.9h-0.9v-0.9H34.6 M35.3,24.9h-2.4v2.4h2.4V24.9L35.3,24.9z"/>
	</g>
	<g>
		<path class="st1" d="M39.3,25.6v0.9h-0.9v-0.9H39.3 M40.1,24.9h-2.4v2.4h2.4V24.9L40.1,24.9z"/>
	</g>
	<g>
		<path class="st1" d="M39.3,22.1V23h-0.9v-0.9H39.3 M40.1,21.4h-2.4v2.4h2.4V21.4L40.1,21.4z"/>
	</g>
	<g>
		<path class="st1" d="M34.6,29.2v0.9h-0.9v-0.9H34.6 M35.3,28.5h-2.4v2.4h2.4V28.5L35.3,28.5z"/>
	</g>
	<g>
		<path class="st1" d="M39.3,29.2v0.9h-0.9v-0.9H39.3 M40.1,28.5h-2.4v2.4h2.4V28.5L40.1,28.5z"/>
	</g>
	<g>
		<path class="st1" d="M34.6,32.7v0.9h-0.9v-0.9H34.6 M35.3,32h-2.4v2.4h2.4V32L35.3,32z"/>
	</g>
	<g>
		<path class="st1" d="M39.3,32.7v0.9h-0.9v-0.9H39.3 M40.1,32h-2.4v2.4h2.4V32L40.1,32z"/>
	</g>
	<g>
		<path class="st1" d="M34.6,36.2v0.9h-0.9v-0.9H34.6 M35.3,35.5h-2.4v2.4h2.4V35.5L35.3,35.5z"/>
	</g>
	<g>
		<path class="st1" d="M39.3,36.2v0.9h-0.9v-0.9H39.3 M40.1,35.5h-2.4v2.4h2.4V35.5L40.1,35.5z"/>
	</g>
	<g>
		<path class="st1" d="M34.6,39.7v0.9h-0.9v-0.9H34.6 M35.3,39h-2.4v2.4h2.4V39L35.3,39z"/>
	</g>
	<g>
		<path class="st1" d="M39.3,39.7v0.9h-0.9v-0.9H39.3 M40.1,39h-2.4v2.4h2.4V39L40.1,39z"/>
	</g>
	<g>
		<path class="st1" d="M34.6,43.2v0.9h-0.9v-0.9H34.6 M35.3,42.5h-2.4v2.4h2.4V42.5L35.3,42.5z"/>
	</g>
	<g>
		<path class="st1" d="M39.3,43.2v0.9h-0.9v-0.9H39.3 M40.1,42.5h-2.4v2.4h2.4V42.5L40.1,42.5z"/>
	</g>
	<g>
		<path class="st1" d="M34.6,46.7v0.9h-0.9v-0.9H34.6 M35.3,46h-2.4v2.4h2.4V46L35.3,46z"/>
	</g>
	<g>
		<path class="st1" d="M39.3,46.7v0.9h-0.9v-0.9H39.3 M40.1,46h-2.4v2.4h2.4V46L40.1,46z"/>
	</g>
	<g>
		<path class="st1" d="M34.6,50.3v0.9h-0.9v-0.9H34.6 M35.3,49.6h-2.4V52h2.4V49.6L35.3,49.6z"/>
	</g>
	<g>
		<path class="st1" d="M39.3,50.3v0.9h-0.9v-0.9H39.3 M40.1,49.6h-2.4V52h2.4V49.6L40.1,49.6z"/>
	</g>
	<g>
		<path class="st1" d="M34.6,53.8v0.9h-0.9v-0.9H34.6 M35.3,53.1h-2.4v2.4h2.4V53.1L35.3,53.1z"/>
	</g>
	<g>
		<path class="st1" d="M39.3,53.8v0.9h-0.9v-0.9H39.3 M40.1,53.1h-2.4v2.4h2.4V53.1L40.1,53.1z"/>
	</g>
	<g>
		<path class="st1" d="M34.6,56.5v0.9h-0.9v-0.9H34.6 M35.3,55.7h-2.4v2.4h2.4V55.7L35.3,55.7z"/>
	</g>
	<g>
		<path class="st1" d="M39.3,56.5v0.9h-0.9v-0.9H39.3 M40.1,55.7h-2.4v2.4h2.4V55.7L40.1,55.7z"/>
	</g>
	<g>
		<path class="st1" d="M34.6,60v0.9h-0.9V60H34.6 M35.3,59.2h-2.4v2.4h2.4V59.2L35.3,59.2z"/>
	</g>
	<g>
		<path class="st1" d="M39.3,60v0.9h-0.9V60H39.3 M40.1,59.2h-2.4v2.4h2.4V59.2L40.1,59.2z"/>
	</g>
	<g>
		<path class="st1" d="M44.1,60v0.9h-0.9V60H44.1 M44.8,59.2h-2.4v2.4h2.4V59.2L44.8,59.2z"/>
	</g>
	<g>
		<path class="st1" d="M34.6,63.5v0.9h-0.9v-0.9H34.6 M35.3,62.7h-2.4v2.4h2.4V62.7L35.3,62.7z"/>
	</g>
	<g>
		<path class="st1" d="M39.3,63.5v0.9h-0.9v-0.9H39.3 M40.1,62.7h-2.4v2.4h2.4V62.7L40.1,62.7z"/>
	</g>
	<g>
		<path class="st1" d="M34.6,67V68h-0.9V67H34.6 M35.3,66.3h-2.4v2.4h2.4V66.3L35.3,66.3z"/>
	</g>
	<g>
		<path class="st1" d="M34.6,70.5v0.9h-0.9v-0.9H34.6 M35.3,69.8h-2.4v2.4h2.4V69.8L35.3,69.8z"/>
	</g>
	<g>
		<path class="st1" d="M34.6,74V75h-0.9V74L34.6,74 M35.3,73.3h-2.4v2.4h2.4V73.3L35.3,73.3z"/>
	</g>
	<polyline class="st0" points="35.3,78 35.3,78 35.3,76.9 32.8,76.9 32.8,79.2 34.6,79.2 	"/>
	<g>
		<path class="st1" d="M39.3,67V68h-0.9V67H39.3 M40.1,66.3h-2.4v2.4h2.4V66.3L40.1,66.3z"/>
	</g>
	<g>
		<path class="st1" d="M15.4,22.1V23h-0.9v-0.9H15.4 M16.1,21.4h-2.4v2.4h2.4V21.4L16.1,21.4z"/>
	</g>
	<g>
		<path class="st1" d="M20.2,22.1V23h-0.9v-0.9H20.2 M20.9,21.4h-2.4v2.4h2.4V21.4L20.9,21.4z"/>
	</g>
	<g>
		<path class="st1" d="M15.4,25.6v0.9h-0.9v-0.9H15.4 M16.1,24.9h-2.4v2.4h2.4V24.9L16.1,24.9z"/>
	</g>
	<g>
		<path class="st1" d="M20.2,25.6v0.9h-0.9v-0.9H20.2 M20.9,24.9h-2.4v2.4h2.4V24.9L20.9,24.9z"/>
	</g>
	<g>
		<path class="st1" d="M15.4,29.2v0.9h-0.9v-0.9H15.4 M16.1,28.5h-2.4v2.4h2.4V28.5L16.1,28.5z"/>
	</g>
	<g>
		<path class="st1" d="M20.2,29.2v0.9h-0.9v-0.9H20.2 M20.9,28.5h-2.4v2.4h2.4V28.5L20.9,28.5z"/>
	</g>
	<g>
		<path class="st1" d="M15.4,32.7v0.9h-0.9v-0.9H15.4 M16.1,32h-2.4v2.4h2.4V32L16.1,32z"/>
	</g>
	<g>
		<path class="st1" d="M10.7,32.7v0.9H9.8v-0.9H10.7 M11.4,32H9.1v2.4h2.4V32L11.4,32z"/>
	</g>
	<g>
		<path class="st1" d="M20.2,32.7v0.9h-0.9v-0.9H20.2 M20.9,32h-2.4v2.4h2.4V32L20.9,32z"/>
	</g>
	<g>
		<path class="st1" d="M15.4,36.2v0.9h-0.9v-0.9H15.4 M16.1,35.5h-2.4v2.4h2.4V35.5L16.1,35.5z"/>
	</g>
	<g>
		<path class="st1" d="M20.2,36.2v0.9h-0.9v-0.9H20.2 M20.9,35.5h-2.4v2.4h2.4V35.5L20.9,35.5z"/>
	</g>
	<g>
		<path class="st1" d="M15.4,39.7v0.9h-0.9v-0.9H15.4 M16.1,39h-2.4v2.4h2.4V39L16.1,39z"/>
	</g>
	<g>
		<path class="st1" d="M20.2,39.7v0.9h-0.9v-0.9H20.2 M20.9,39h-2.4v2.4h2.4V39L20.9,39z"/>
	</g>
	<g>
		<path class="st1" d="M15.4,43.2v0.9h-0.9v-0.9H15.4 M16.1,42.5h-2.4v2.4h2.4V42.5L16.1,42.5z"/>
	</g>
	<g>
		<path class="st1" d="M20.2,43.2v0.9h-0.9v-0.9H20.2 M20.9,42.5h-2.4v2.4h2.4V42.5L20.9,42.5z"/>
	</g>
	<g>
		<path class="st1" d="M15.4,46.7v0.9h-0.9v-0.9H15.4 M16.1,46h-2.4v2.4h2.4V46L16.1,46z"/>
	</g>
	<g>
		<path class="st1" d="M20.2,46.7v0.9h-0.9v-0.9H20.2 M20.9,46h-2.4v2.4h2.4V46L20.9,46z"/>
	</g>
	<g>
		<path class="st1" d="M15.4,50.3v0.9h-0.9v-0.9H15.4 M16.1,49.6h-2.4V52h2.4V49.6L16.1,49.6z"/>
	</g>
	<g>
		<path class="st1" d="M20.2,50.3v0.9h-0.9v-0.9H20.2 M20.9,49.6h-2.4V52h2.4V49.6L20.9,49.6z"/>
	</g>
	<g>
		<path class="st1" d="M15.4,53.8v0.9h-0.9v-0.9H15.4 M16.1,53.1h-2.4v2.4h2.4V53.1L16.1,53.1z"/>
	</g>
	<g>
		<path class="st1" d="M20.2,53.8v0.9h-0.9v-0.9H20.2 M20.9,53.1h-2.4v2.4h2.4V53.1L20.9,53.1z"/>
	</g>
	<g>
		<path class="st1" d="M15.4,56.5v0.9h-0.9v-0.9H15.4 M16.1,55.7h-2.4v2.4h2.4V55.7L16.1,55.7z"/>
	</g>
	<g>
		<path class="st1" d="M20.2,56.5v0.9h-0.9v-0.9H20.2 M20.9,55.7h-2.4v2.4h2.4V55.7L20.9,55.7z"/>
	</g>
	<g>
		<path class="st1" d="M44.1,32.7v0.9h-0.9v-0.9H44.1 M44.8,32h-2.4v2.4h2.4V32L44.8,32z"/>
	</g>
	<g>
		<path class="st1" d="M44.1,36.2v0.9h-0.9v-0.9H44.1 M44.8,35.5h-2.4v2.4h2.4V35.5L44.8,35.5z"/>
	</g>
	<g>
		<path class="st1" d="M44.1,39.7v0.9h-0.9v-0.9H44.1 M44.8,39h-2.4v2.4h2.4V39L44.8,39z"/>
	</g>
	<g>
		<path class="st1" d="M48.8,39.7v0.9h-0.9v-0.9H48.8 M49.6,39h-2.4v2.4h2.4V39L49.6,39z"/>
	</g>
	<g>
		<path class="st1" d="M44.1,43.2v0.9h-0.9v-0.9H44.1 M44.8,42.5h-2.4v2.4h2.4V42.5L44.8,42.5z"/>
	</g>
	<g>
		<path class="st1" d="M48.8,43.2v0.9h-0.9v-0.9H48.8 M49.6,42.5h-2.4v2.4h2.4V42.5L49.6,42.5z"/>
	</g>
	<g>
		<path class="st1" d="M44.1,46.7v0.9h-0.9v-0.9H44.1 M44.8,46h-2.4v2.4h2.4V46L44.8,46z"/>
	</g>
	<g>
		<path class="st1" d="M48.8,46.7v0.9h-0.9v-0.9H48.8 M49.6,46h-2.4v2.4h2.4V46L49.6,46z"/>
	</g>
	<g>
		<path class="st1" d="M44.1,50.3v0.9h-0.9v-0.9H44.1 M44.8,49.6h-2.4V52h2.4V49.6L44.8,49.6z"/>
	</g>
	<g>
		<path class="st1" d="M48.8,50.3v0.9h-0.9v-0.9H48.8 M49.6,49.6h-2.4V52h2.4V49.6L49.6,49.6z"/>
	</g>
	<g>
		<path class="st1" d="M44.1,53.8v0.9h-0.9v-0.9H44.1 M44.8,53.1h-2.4v2.4h2.4V53.1L44.8,53.1z"/>
	</g>
	<polyline class="st0" points="49.6,54.1 49.6,53.1 47.2,53.1 47.2,55.4 47.2,55.5 48.2,55.5 48.8,55.5 	"/>
	<g>
		<path class="st1" d="M44.1,56.5v0.9h-0.9v-0.9H44.1 M44.8,55.7h-2.4v2.4h2.4V55.7L44.8,55.7z"/>
	</g>
	<g>
		<path class="st1" d="M10.7,36.2v0.9H9.8v-0.9H10.7 M11.4,35.5H9.1v2.4h2.4V35.5L11.4,35.5z"/>
	</g>
	<g>
		<path class="st1" d="M5.9,39.7v0.9H5v-0.9H5.9 M6.6,39H4.3v2.4h2.4V39L6.6,39z"/>
	</g>
	<g>
		<path class="st1" d="M10.7,39.7v0.9H9.8v-0.9H10.7 M11.4,39H9.1v2.4h2.4V39L11.4,39z"/>
	</g>
	<g>
		<path class="st1" d="M5.9,43.2v0.9H5v-0.9H5.9 M6.6,42.5H4.3v2.4h2.4V42.5L6.6,42.5z"/>
	</g>
	<g>
		<path class="st1" d="M10.7,43.2v0.9H9.8v-0.9H10.7 M11.4,42.5H9.1v2.4h2.4V42.5L11.4,42.5z"/>
	</g>
	<g>
		<path class="st1" d="M5.9,46.7v0.9H5v-0.9H5.9 M6.6,46H4.3v2.4h2.4V46L6.6,46z"/>
	</g>
	<g>
		<path class="st1" d="M10.7,46.7v0.9H9.8v-0.9H10.7 M11.4,46H9.1v2.4h2.4V46L11.4,46z"/>
	</g>
	<g>
		<path class="st1" d="M5.9,50.3v0.9H5v-0.9H5.9 M6.6,49.6H4.3V52h2.4V49.6L6.6,49.6z"/>
	</g>
	<g>
		<path class="st1" d="M10.7,50.3v0.9H9.8v-0.9H10.7 M11.4,49.6H9.1V52h2.4V49.6L11.4,49.6z"/>
	</g>
	<g>
		<path class="st1" d="M10.7,53.8v0.9H9.8v-0.9H10.7 M11.4,53.1H9.1v2.4h2.4V53.1L11.4,53.1z"/>
	</g>
	<g>
		<path class="st1" d="M10.7,56.5v0.9H9.8v-0.9H10.7 M11.4,55.7H9.1v2.4h2.4V55.7L11.4,55.7z"/>
	</g>
	<g>
		<path class="st1" d="M15.4,60v0.9h-0.9V60H15.4 M16.1,59.2h-2.4v2.4h2.4V59.2L16.1,59.2z"/>
	</g>
	<g>
		<path class="st1" d="M20.2,60v0.9h-0.9V60H20.2 M20.9,59.2h-2.4v2.4h2.4V59.2L20.9,59.2z"/>
	</g>
	<g>
		<path class="st1" d="M15.4,63.5v0.9h-0.9v-0.9H15.4 M16.1,62.7h-2.4v2.4h2.4V62.7L16.1,62.7z"/>
	</g>
	<polyline class="st0" points="9.6,61.7 11.4,61.7 11.4,59.2 9,59.2 9,60.6 	"/>
	<g>
		<path class="st1" d="M20.2,63.5v0.9h-0.9v-0.9H20.2 M20.9,62.7h-2.4v2.4h2.4V62.7L20.9,62.7z"/>
	</g>
	<g>
		<path class="st1" d="M15.4,67V68h-0.9V67H15.4 M16.1,66.3h-2.4v2.4h2.4V66.3L16.1,66.3z"/>
	</g>
	<g>
		<path class="st1" d="M20.2,67V68h-0.9V67H20.2 M20.9,66.3h-2.4v2.4h2.4V66.3L20.9,66.3z"/>
	</g>
	<g>
		<path class="st1" d="M20.2,70.5v0.9h-0.9v-0.9H20.2 M20.9,69.8h-2.4v2.4h2.4V69.8L20.9,69.8z"/>
	</g>
	<polyline class="st0" points="14.3,69.8 16.1,69.8 16.1,72.2 15.7,72.2 	"/>
	<g>
		<path class="st1" d="M20.2,74V75h-0.9V74L20.2,74 M20.9,73.3h-2.4v2.4h2.4V73.3L20.9,73.3z"/>
	</g>
	<g>
		<path class="st1" d="M20.2,77.6v0.9h-0.9v-0.9H20.2 M20.9,76.9h-2.4v2.4h2.4V76.9L20.9,76.9z"/>
	</g>
	<g>
		<path class="st1" d="M25,70.5v0.9h-0.9v-0.9H25 M25.7,69.8h-2.4v2.4h2.4V69.8L25.7,69.8z"/>
	</g>
	<g>
		<path class="st1" d="M29.8,70.5v0.9h-0.9v-0.9H29.8 M30.5,69.8h-2.4v2.4h2.4V69.8L30.5,69.8z"/>
	</g>
	<g>
		<path class="st1" d="M25,74V75h-0.9V74L25,74 M25.7,73.3h-2.4v2.4h2.4V73.3L25.7,73.3z"/>
	</g>
	<g>
		<path class="st1" d="M29.8,74V75h-0.9V74L29.8,74 M30.5,73.3h-2.4v2.4h2.4V73.3L30.5,73.3z"/>
	</g>
	<g>
		<path class="st1" d="M25,77.6v0.9h-0.9v-0.9H25 M25.7,76.9h-2.4v2.4h2.4V76.9L25.7,76.9z"/>
	</g>
	<g>
		<path class="st1" d="M29.8,77.6v0.9h-0.9v-0.9H29.8 M30.5,76.9h-2.4v2.4h2.4V76.9L30.5,76.9z"/>
	</g>
	<g>
		<path class="st1" d="M25,81.1V82h-0.9v-0.9H25 M25.7,80.4h-2.4v2.4h2.4V80.4L25.7,80.4z"/>
	</g>
	<g>
		<path class="st1" d="M29.8,81.1V82h-0.9v-0.9H29.8 M30.5,80.4h-2.4v2.4h2.4V80.4L30.5,80.4z"/>
	</g>
	<g>
		<path class="st1" d="M25,84.7v0.9h-0.9v-0.9H25 M25.7,84h-2.4v2.4h2.4V84L25.7,84z"/>
	</g>
	<g>
		<path class="st1" d="M29.8,84.7v0.9h-0.9v-0.9H29.8 M30.5,84h-2.4v2.4h2.4V84L30.5,84z"/>
	</g>
	<g>
		<circle class="st1" cx="38.8" cy="5.2" r="3.1"/>
	</g>
	<g>
		<path class="st1" d="M34.1,5.2c0,1.2-0.7,2.3-1.8,2.8l-3-5.2c0.5-0.4,1.1-0.6,1.8-0.6C32.7,2.2,34.1,3.6,34.1,5.2z"/>
	</g>
	<g>
		<circle class="st1" cx="46.7" cy="5.2" r="3.1"/>
	</g>
	<g>
		<circle class="st1" cx="54.5" cy="5.2" r="3.1"/>
	</g>
	<g>
		<circle class="st1" cx="62.3" cy="5.2" r="3.1"/>
	</g>
	<g>
		<circle class="st1" cx="70.1" cy="5.2" r="3.1"/>
	</g>
	<g>
		<path class="st1" d="M78.9,2.4l-3,5.1c-1.3-1.1-1.4-3.1-0.3-4.3C76.5,2.3,77.8,2,78.9,2.4z"/>
	</g>
	<g>
		<circle class="st1" cx="38.8" cy="12.3" r="3.1"/>
	</g>
	<g>
		<circle class="st1" cx="46.7" cy="12.3" r="3.1"/>
	</g>
	<g>
		<circle class="st1" cx="54.5" cy="12.3" r="3.1"/>
	</g>
	<g>
		<circle class="st1" cx="62.3" cy="12.3" r="3.1"/>
	</g>
	<g>
		<path class="st1" d="M73.2,12.3L73.2,12.3c0,1.1-0.6,2.1-1.5,2.6l0,0c-1.4,0.9-3.3,0.4-4.1-1.1c-0.9-1.4-0.4-3.3,1.1-4.1
			c1.4-0.9,3.3-0.4,4.1,1.1C73.1,11.2,73.2,11.7,73.2,12.3L73.2,12.3z"/>
	</g>
	<g>
		<path class="st1" d="M41.9,20.2c0,1.1-0.6,2.1-1.6,2.6l-0.3-0.5l-0.6-1l-2.1-3.8c0.5-0.3,1-0.4,1.6-0.4
			C40.6,17.2,41.9,18.6,41.9,20.2z"/>
	</g>
	<g>
		<circle class="st1" cx="46.7" cy="20.2" r="3.1"/>
	</g>
	<g>
		<circle class="st1" cx="54.5" cy="20.2" r="3.1"/>
	</g>
	<g>
		<circle class="st1" cx="62.3" cy="20.2" r="3.1"/>
	</g>
	<g>
		<path class="st1" d="M67.9,22.3c-1.1-1.2-1.1-3.1,0.1-4.3c0.6-0.6,1.4-0.9,2.1-0.9c0.2,0,0.5,0,0.7,0.1L67.9,22.3z"/>
	</g>
	<g>
		<path class="st1" d="M59.3,37.3c-1.1-1.2-1.1-3.1,0.1-4.3c0.6-0.6,1.4-0.9,2.1-0.9c0.2,0,0.5,0,0.7,0.1L59.3,37.3z"/>
	</g>
	<g>
		<circle class="st1" cx="46.7" cy="27.2" r="3.1"/>
	</g>
	<g>
		<circle class="st1" cx="54.5" cy="27.2" r="3.1"/>
	</g>
	<g>
		<path class="st1" d="M65.3,26.8L65.3,26.8c-0.3-1.6-1.8-2.8-3.5-2.6c-1.6,0.3-2.8,1.8-2.6,3.5c0.2,1.5,1.5,2.6,3,2.6
			c0.4,0,0.8-0.1,1.1-0.2L65.3,26.8z"/>
	</g>
	<g>
		<path class="st1" d="M49.7,34.3c0,1-0.5,1.9-1.4,2.5l-0.8-1.4l-2.3-3.9c0.4-0.2,0.9-0.3,1.4-0.3C48.3,31.2,49.7,32.6,49.7,34.3
			L49.7,34.3z"/>
	</g>
	<g>
		<circle class="st1" cx="54.5" cy="34.3" r="3.1"/>
	</g>
	<g>
		<path class="st1" d="M57.4,40.5l-2.2,3.8c-0.2,0.1-0.5,0.1-0.7,0.1c-1,0-1.9-0.5-2.5-1.3l0,0l0,0l-0.2-0.4l0,0
			c-0.2-0.4-0.3-0.9-0.3-1.4c0-1.7,1.4-3.1,3-3.1C55.8,38.3,57.1,39.2,57.4,40.5L57.4,40.5z"/>
	</g>
	<line class="st0" x1="107.4" y1="46.7" x2="107.4" y2="46.2"/>
	<line class="st0" x1="104.1" y1="52.5" x2="104.1" y2="40.5"/>
	<line class="st0" x1="100.8" y1="58.2" x2="100.8" y2="34.7"/>
	<line class="st0" x1="97.5" y1="64" x2="97.5" y2="29"/>
	<line class="st0" x1="94.1" y1="69.8" x2="94.1" y2="23.2"/>
	<line class="st0" x1="90.8" y1="75.5" x2="90.8" y2="17.5"/>
	<line class="st0" x1="87.5" y1="81.3" x2="87.5" y2="11.7"/>
	<line class="st0" x1="84.2" y1="87.1" x2="84.2" y2="6"/>
	<line class="st0" x1="80.8" y1="92.6" x2="80.8" y2="0.4"/>
	<line class="st0" x1="77.5" y1="87.3" x2="77.5" y2="5.7"/>
	<line class="st0" x1="74.2" y1="81.5" x2="74.2" y2="11.5"/>
	<line class="st0" x1="70.8" y1="75.8" x2="70.8" y2="17.2"/>
	<line class="st0" x1="67.6" y1="70" x2="67.6" y2="23"/>
	<line class="st0" x1="64.2" y1="64.2" x2="64.2" y2="28.7"/>
	<line class="st0" x1="60.9" y1="58.5" x2="60.9" y2="34.5"/>
	<line class="st0" x1="57.6" y1="52.7" x2="57.6" y2="40.2"/>
	<polyline class="st0" points="49.6,53.4 49.6,59.2 55.5,59.2 55.5,53.5 49.6,59.2 	"/>
	<polyline class="st0" points="49.6,60.2 49.6,66 55.5,66 55.5,60.3 49.6,66 	"/>
	<polyline class="st0" points="49.6,67 49.6,72.8 55.5,72.8 55.5,67.2 49.6,72.8 	"/>
	<polyline class="st0" points="49.6,73.8 49.6,79.7 55.5,79.7 55.5,74 49.6,79.7 	"/>
	<polyline class="st0" points="49.6,80.6 49.6,86.5 55.5,86.5 55.5,80.7 49.6,86.5 	"/>
	<polyline class="st0" points="49.6,87.4 49.6,93.2 55.5,93.2 55.5,87.5 49.6,93.2 	"/>
	<line class="st0" x1="60.1" y1="56.2" x2="56.9" y2="59.2"/>
	<polyline class="st0" points="61.8,59.2 56.9,59.2 56.9,53.4 	"/>
	<polyline class="st0" points="56.9,60.2 56.9,66 62.8,66 62.8,60.3 56.9,66 	"/>
	<polyline class="st0" points="56.9,67 56.9,72.8 62.8,72.8 62.8,67.2 56.9,72.8 	"/>
	<polyline class="st0" points="56.9,73.8 56.9,79.7 62.8,79.7 62.8,74 56.9,79.7 	"/>
	<polyline class="st0" points="56.9,80.6 56.9,86.5 62.8,86.5 62.8,80.7 56.9,86.5 	"/>
	<polyline class="st0" points="56.9,87.4 56.9,93.2 62.8,93.2 62.8,87.5 56.9,93.2 	"/>
	<line class="st0" x1="65.2" y1="65.1" x2="64.2" y2="66"/>
	<polyline class="st0" points="64.2,60.2 64.2,63.4 64.2,66 65.8,66 	"/>
	<line class="st0" x1="67.7" y1="69.5" x2="64.2" y2="72.8"/>
	<polyline class="st0" points="69.7,72.8 64.2,72.8 64.2,67 	"/>
	<polyline class="st0" points="64.2,73.8 64.2,79.7 70.1,79.7 70.1,74 64.2,79.7 	"/>
	<polyline class="st0" points="64.2,80.6 64.2,86.5 70.1,86.5 70.1,80.7 64.2,86.5 	"/>
	<line class="st0" x1="75.4" y1="82.7" x2="71.6" y2="86.5"/>
	<polyline class="st0" points="77.4,86.2 77.4,86.5 71.6,86.5 71.6,80.6 	"/>
	<polyline class="st0" points="64.2,87.4 64.2,93.2 70.1,93.2 70.1,87.5 64.2,93.2 	"/>
	<polyline class="st0" points="71.6,87.4 71.6,93.2 77.5,93.2 77.5,87.5 71.6,93.2 	"/>
	<line class="st0" x1="44.8" y1="59.2" x2="42.4" y2="59.2"/>
	<polyline class="st0" points="48.2,55.6 48.2,59.2 46.1,59.2 	"/>
	<polyline class="st0" points="42.3,66 48.2,60.3 48.2,66 42.3,66 42.3,65.8 	"/>
	<polyline class="st0" points="42.3,67 42.3,72.8 48.2,72.8 48.2,67.2 42.3,72.8 	"/>
	<polyline class="st0" points="42.3,73.8 42.3,79.7 48.2,79.7 48.2,74 42.3,79.7 	"/>
	<polyline class="st0" points="42.3,80.6 42.3,86.5 48.2,86.5 48.2,80.7 42.3,86.5 	"/>
	<polyline class="st0" points="42.3,87.4 42.3,93.2 48.2,93.2 48.2,87.5 42.3,93.2 	"/>
	<g>
		<path class="st1" d="M40.1,75.6v3.3h-3.4L40.1,75.6 M40.8,74l-5.9,5.7h5.9V74L40.8,74z"/>
	</g>
	<polyline class="st0" points="35,80.6 35,86.5 40.8,86.5 40.8,80.7 35,86.5 	"/>
	<polyline class="st0" points="35,87.4 35,93.2 40.8,93.2 40.8,87.5 35,93.2 	"/>
	<line class="st0" x1="27.6" y1="93.2" x2="27.6" y2="92"/>
	<polyline class="st0" points="33.6,92 33.6,93.2 27.6,93.2 28.9,92 33.6,87.5 33.6,92 	"/>
</g>
</svg>
