<?xml version="1.0" encoding="utf-8"?>
<!-- Generator: Adobe Illustrator 16.0.0, SVG Export Plug-In . SVG Version: 6.00 Build 0)  -->
<!DOCTYPE svg PUBLIC "-//W3C//DTD SVG 1.1//EN" "http://www.w3.org/Graphics/SVG/1.1/DTD/svg11.dtd" [
	<!ENTITY ns_extend "http://ns.adobe.com/Extensibility/1.0/">
	<!ENTITY ns_ai "http://ns.adobe.com/AdobeIllustrator/10.0/">
	<!ENTITY ns_graphs "http://ns.adobe.com/Graphs/1.0/">
	<!ENTITY ns_vars "http://ns.adobe.com/Variables/1.0/">
	<!ENTITY ns_imrep "http://ns.adobe.com/ImageReplacement/1.0/">
	<!ENTITY ns_sfw "http://ns.adobe.com/SaveForWeb/1.0/">
	<!ENTITY ns_custom "http://ns.adobe.com/GenericCustomNamespace/1.0/">
	<!ENTITY ns_adobe_xpath "http://ns.adobe.com/XPath/1.0/">
]>
<svg version="1.1" id="Layer_1" xmlns:x="&ns_extend;" xmlns:i="&ns_ai;" xmlns:graph="&ns_graphs;"
	 xmlns="http://www.w3.org/2000/svg" xmlns:xlink="http://www.w3.org/1999/xlink" x="0px" y="0px" width="108.107px"
	 height="93.742px" viewBox="48.018 53.187 108.107 93.742" enable-background="new 48.018 53.187 108.107 93.742"
	 xml:space="preserve">
<metadata>
	<sfw  xmlns="&ns_sfw;">
		<slices></slices>
		<sliceSourceBounds  width="108.107" height="93.742" y="53.571" x="47.518" bottomLeftOrigin="true"></sliceSourceBounds>
	</sfw>
</metadata>
<g>
	<polyline fill="none" stroke="#3BB9C5" stroke-miterlimit="10" points="53.571,108.715 54.643,108.715 54.643,106.285 
		52.214,106.285 52.214,106.429 	"/>
	<g>
		<path fill="#3BB9C5" d="M102,101.143l3,5.143l2.5,4.357l0.785,1.429l1,1.644l0.786,1.285l0.214,0.357l1.43,2.428l1,1.715l0.57,1
			l1.786,3.071l0.214,0.357l1.93,3.429l1.143,2l3.357,5.785l1.214,2.072l2.071,3.57l0.071,0.144l2.644,4.571H76.429l2.643-4.643
			v-0.072l4.072-7l0.714-1.285l7-12.143l2.429-4.215l0.143-0.214l1.286-2.214l2.143-3.644l0.572-1l0.786-1.429L102,101.143
			 M102,100.071c-0.143,0-0.215,0.072-0.285,0.143l-4.072,7.071l-0.786,1.43l-0.571,1l-2.143,3.643l-1.286,2.214l-0.143,0.214
			L90.286,120l-7,12.143l-0.714,1.286l-4.071,7v0.071l-3,5.215v0.07c-0.071,0.215,0.071,0.357,0.214,0.43c0,0,0,0,0.071,0
			s0,0,0.071,0h52.428l0,0c0.072,0,0.144,0,0.144-0.072c0.143-0.071,0.214-0.285,0.143-0.5l-2.929-5.143l-0.071-0.143l-2.071-3.572
			l-1.215-2.07l-3.356-5.786l-1.144-2l-1.928-3.429l-0.215-0.357l-1.785-3.071l-0.572-0.929l-1-1.714L110.857,115l-0.215-0.357
			l-0.785-1.285l-1-1.643l-0.786-1.43l-2.5-4.356l-3.286-5.714c0-0.071-0.07-0.071-0.07-0.071
			C102.143,100.071,102.071,100.071,102,100.071L102,100.071z"/>
	</g>
	<path fill="none" stroke="#3BB9C5" stroke-miterlimit="10" d="M103.285,97.5l-1,1.714l0,0l-0.214,0.357
		c-0.071,0.072-0.071,0.214,0,0.357l0.214,0.357l0,0l0,0l26.215,45.429c0.071,0.143,0.285,0.214,0.5,0.143
		c0.071,0,0.071-0.072,0.143-0.143l26.429-45.786c0.071-0.143,0.071-0.214,0-0.357l-26.429-45.714
		c-0.071-0.143-0.285-0.214-0.5-0.143c-0.071,0-0.071,0.071-0.143,0.143l-1.571,2.714l-3,5.143l-2.786,4.786l0,0l-1.5,2.643l0,0
		l-0.857,1.428l-2.928,5.072l-2.572,4.5l0,0l-1.928,3.286l-6,10.428"/>
	<path fill="none" stroke="#3BB9C5" stroke-miterlimit="10" d="M93.357,84.786l-5-8.643l-0.286-0.5l-0.571-1l-2.143-3.786l-5-8.643
		l-3-5.214l-1.786-3.071c-0.071-0.143-0.286-0.214-0.428-0.143c-0.072,0-0.072,0.071-0.143,0.143L48.571,99.643
		c-0.071,0.071-0.071,0.214,0,0.357l22.857,39.643l0.5,0.929l3,5.214c0.071,0.144,0.286,0.215,0.428,0.144
		c0.072,0,0.072-0.071,0.143-0.144l3-5.214V140.5l4.071-7l0.714-1.285l0,0l7-12.144l2.429-4.214l0.143-0.215l0,0l1.286-2.214
		l2.143-3.644l0.571-1l0.786-1.428l4.072-7.072l0.214-0.357c0.071-0.143,0.071-0.214,0-0.357l-0.214-0.357l0,0l0,0l0,0L100,96.286
		l0,0l-0.214-0.357l0,0L97,91.143l-0.571-1.072l-0.786-1.357"/>
	<g>
		<path fill="#3BB9C5" d="M127.571,54l-1.214,2.143l-1.429,2.5l-1.571,2.786l-1.786,3.071l-1,1.786l-1.5,2.643l-0.786,1.428l0,0
			l-2.928,5.143L115,76.214l-2.215,3.857L111.643,82l-0.785,1.357l-2.572,4.5l-3.356,5.857l-0.144,0.214l-2.214,3.857l-0.643,1.143
			l-1.357-2.357l-0.214-0.357l-2.786-4.857L97,90.286l-0.786-1.357l-2.286-4l-5-8.786l-0.286-0.5l-0.572-1l-2.143-3.857l-5-8.786
			l-3-5.357L76.429,54H127.571 M75.786,53.286c-0.071,0-0.143,0-0.143,0.071c-0.143,0.072-0.214,0.286-0.143,0.5L77.286,57l3,5.357
			l5,8.786L87.429,75L88,76l0.286,0.5l5,8.786l2.286,4l0.786,1.357l0.572,1.071l2.786,4.857l0.214,0.357l1.714,2.928
			c0,0.072,0.072,0.072,0.143,0.143c0.072,0,0.144,0.071,0.144,0.071c0.143,0,0.214-0.071,0.286-0.143l1-1.714l2.214-3.857
			l0.143-0.214l3.357-5.857l2.571-4.5l0.785-1.357l1.144-1.929l2.214-3.857L116,75.929l2.929-5.143v-0.071l0.786-1.429l1.5-2.643
			l1-1.786L124,61.786L125.571,59L127,56.5l1.571-2.714c0-0.071,0-0.071,0.071-0.143c0-0.214-0.143-0.357-0.357-0.357H75.786
			L75.786,53.286L75.786,53.286z"/>
	</g>
	<g>
		<path fill="#3BB9C5" d="M73,63.786v0.929h-0.929v-0.929H73 M73.714,63.071h-2.357v2.357h2.357V63.071L73.714,63.071z"/>
	</g>
	<g>
		<path fill="#3BB9C5" d="M77.786,63.786v0.929h-0.929v-0.929H77.786 M78.5,63.071h-2.357v2.357H78.5V63.071L78.5,63.071z"/>
	</g>
	<g>
		<path fill="#3BB9C5" d="M73,60.286v0.929h-0.929v-0.929H73 M73.714,59.571h-2.357v2.357h2.357V59.571L73.714,59.571z"/>
	</g>
	<g>
		<path fill="#3BB9C5" d="M77.786,60.286v0.929h-0.929v-0.929H77.786 M78.5,59.571h-2.357v2.357H78.5V59.571L78.5,59.571z"/>
	</g>
	<g>
		<path fill="#3BB9C5" d="M73,67.357v0.929h-0.929v-0.929H73 M73.714,66.643h-2.357V69h2.357V66.643L73.714,66.643z"/>
	</g>
	<g>
		<path fill="#3BB9C5" d="M77.786,67.357v0.929h-0.929v-0.929H77.786 M78.5,66.643h-2.357V69H78.5V66.643L78.5,66.643z"/>
	</g>
	<g>
		<path fill="#3BB9C5" d="M73,70.857v0.929h-0.929v-0.929H73 M73.714,70.143h-2.357V72.5h2.357V70.143L73.714,70.143z"/>
	</g>
	<g>
		<path fill="#3BB9C5" d="M68.214,67.357v0.929h-0.929v-0.929H68.214 M68.929,66.643h-2.357V69h2.357V66.643L68.929,66.643z"/>
	</g>
	<g>
		<path fill="#3BB9C5" d="M68.214,70.857v0.929h-0.929v-0.929H68.214 M68.929,70.143h-2.357V72.5h2.357V70.143L68.929,70.143z"/>
	</g>
	<g>
		<path fill="#3BB9C5" d="M77.786,70.857v0.929h-0.929v-0.929H77.786 M78.5,70.143h-2.357V72.5H78.5V70.143L78.5,70.143z"/>
	</g>
	<g>
		<path fill="#3BB9C5" d="M82.571,67.357v0.929h-0.928v-0.929H82.571 M83.286,66.643h-2.357V69h2.357V66.643L83.286,66.643z"/>
	</g>
	<g>
		<path fill="#3BB9C5" d="M82.571,70.857v0.929h-0.928v-0.929H82.571 M83.286,70.143h-2.357V72.5h2.357V70.143L83.286,70.143z"/>
	</g>
	<g>
		<path fill="#3BB9C5" d="M73,75.286v0.929h-0.929v-0.929H73 M73.714,74.571h-2.357v2.357h2.357V74.571L73.714,74.571z"/>
	</g>
	<g>
		<path fill="#3BB9C5" d="M77.786,75.286v0.929h-0.929v-0.929H77.786 M78.5,74.571h-2.357v2.357H78.5V74.571L78.5,74.571z"/>
	</g>
	<g>
		<path fill="#3BB9C5" d="M73,78.786v0.929h-0.929v-0.929H73 M73.714,78.071h-2.357v2.357h2.357V78.071L73.714,78.071z"/>
	</g>
	<g>
		<path fill="#3BB9C5" d="M77.786,78.786v0.929h-0.929v-0.929H77.786 M78.5,78.071h-2.357v2.357H78.5V78.071L78.5,78.071z"/>
	</g>
	<g>
		<path fill="#3BB9C5" d="M73,82.357v0.929h-0.929v-0.929H73 M73.714,81.643h-2.357V84h2.357V81.643L73.714,81.643z"/>
	</g>
	<g>
		<path fill="#3BB9C5" d="M77.786,82.357v0.929h-0.929v-0.929H77.786 M78.5,81.643h-2.357V84H78.5V81.643L78.5,81.643z"/>
	</g>
	<g>
		<path fill="#3BB9C5" d="M73,85.857v0.929h-0.929v-0.929H73 M73.714,85.143h-2.357V87.5h2.357V85.143L73.714,85.143z"/>
	</g>
	<g>
		<path fill="#3BB9C5" d="M77.786,85.857v0.929h-0.929v-0.929H77.786 M78.5,85.143h-2.357V87.5H78.5V85.143L78.5,85.143z"/>
	</g>
	<g>
		<path fill="#3BB9C5" d="M73,89.357v0.929h-0.929v-0.929H73 M73.714,88.643h-2.357V91h2.357V88.643L73.714,88.643z"/>
	</g>
	<g>
		<path fill="#3BB9C5" d="M77.786,89.357v0.929h-0.929v-0.929H77.786 M78.5,88.643h-2.357V91H78.5V88.643L78.5,88.643z"/>
	</g>
	<g>
		<path fill="#3BB9C5" d="M73,92.929v0.928h-0.929v-0.928H73 M73.714,92.214h-2.357v2.357h2.357V92.214L73.714,92.214z"/>
	</g>
	<g>
		<path fill="#3BB9C5" d="M77.786,92.929v0.928h-0.929v-0.928H77.786 M78.5,92.214h-2.357v2.357H78.5V92.214L78.5,92.214z"/>
	</g>
	<g>
		<path fill="#3BB9C5" d="M73,96.429v0.928h-0.929v-0.928H73 M73.714,95.714h-2.357v2.357h2.357V95.714L73.714,95.714z"/>
	</g>
	<g>
		<path fill="#3BB9C5" d="M77.786,96.429v0.928h-0.929v-0.928H77.786 M78.5,95.714h-2.357v2.357H78.5V95.714L78.5,95.714z"/>
	</g>
	<g>
		<path fill="#3BB9C5" d="M73,99.929v0.929h-0.929v-0.929H73 M73.714,99.214h-2.357v2.357h2.357V99.214L73.714,99.214z"/>
	</g>
	<g>
		<path fill="#3BB9C5" d="M77.786,99.929v0.929h-0.929v-0.929H77.786 M78.5,99.214h-2.357v2.357H78.5V99.214L78.5,99.214z"/>
	</g>
	<g>
		<path fill="#3BB9C5" d="M73,103.5v0.929h-0.929V103.5H73 M73.714,102.785h-2.357v2.357h2.357V102.785L73.714,102.785z"/>
	</g>
	<g>
		<path fill="#3BB9C5" d="M77.786,103.5v0.929h-0.929V103.5H77.786 M78.5,102.785h-2.357v2.357H78.5V102.785L78.5,102.785z"/>
	</g>
	<g>
		<path fill="#3BB9C5" d="M73,107v0.929h-0.929V107H73 M73.714,106.285h-2.357v2.357h2.357V106.285L73.714,106.285z"/>
	</g>
	<g>
		<path fill="#3BB9C5" d="M77.786,107v0.929h-0.929V107H77.786 M78.5,106.285h-2.357v2.357H78.5V106.285L78.5,106.285z"/>
	</g>
	<g>
		<path fill="#3BB9C5" d="M73,109.643v0.929h-0.929v-0.929H73 M73.714,108.929h-2.357v2.356h2.357V108.929L73.714,108.929z"/>
	</g>
	<g>
		<path fill="#3BB9C5" d="M77.786,109.643v0.929h-0.929v-0.929H77.786 M78.5,108.929h-2.357v2.356H78.5V108.929L78.5,108.929z"/>
	</g>
	<g>
		<path fill="#3BB9C5" d="M73,113.143v0.929h-0.929v-0.929H73 M73.714,112.429h-2.357v2.356h2.357V112.429L73.714,112.429z"/>
	</g>
	<g>
		<path fill="#3BB9C5" d="M77.786,113.143v0.929h-0.929v-0.929H77.786 M78.5,112.429h-2.357v2.356H78.5V112.429L78.5,112.429z"/>
	</g>
	<g>
		<path fill="#3BB9C5" d="M73,116.643v0.929h-0.929v-0.929H73 M73.714,115.929h-2.357v2.356h2.357V115.929L73.714,115.929z"/>
	</g>
	<g>
		<path fill="#3BB9C5" d="M77.786,116.643v0.929h-0.929v-0.929H77.786 M78.5,115.929h-2.357v2.356H78.5V115.929L78.5,115.929z"/>
	</g>
	<g>
		<path fill="#3BB9C5" d="M73,120.215v0.928h-0.929v-0.928H73 M73.714,119.5h-2.357v2.357h2.357V119.5L73.714,119.5z"/>
	</g>
	<g>
		<path fill="#3BB9C5" d="M77.786,120.215v0.928h-0.929v-0.928H77.786 M78.5,119.5h-2.357v2.357H78.5V119.5L78.5,119.5z"/>
	</g>
	<g>
		<path fill="#3BB9C5" d="M82.571,75.286v0.929h-0.928v-0.929H82.571 M83.286,74.571h-2.357v2.357h2.357V74.571L83.286,74.571z"/>
	</g>
	<g>
		<polygon fill="#3BB9C5" points="88.071,74.571 87.5,74.571 88.071,75.571 		"/>
	</g>
	<g>
		<path fill="#3BB9C5" d="M82.571,78.786v0.929h-0.928v-0.929H82.571 M83.286,78.071h-2.357v2.357h2.357V78.071L83.286,78.071z"/>
	</g>
	<g>
		<path fill="#3BB9C5" d="M87.357,78.786v0.929h-0.928v-0.929H87.357 M88.071,78.071h-2.357v2.357h2.357V78.071L88.071,78.071z"/>
	</g>
	<g>
		<path fill="#3BB9C5" d="M87.357,75.286v0.929h-0.928v-0.929H87.357 M88.071,74.571h-2.357v2.357h2.357V74.571L88.071,74.571z"/>
	</g>
	<g>
		<path fill="#3BB9C5" d="M82.571,82.357v0.929h-0.928v-0.929H82.571 M83.286,81.643h-2.357V84h2.357V81.643L83.286,81.643z"/>
	</g>
	<g>
		<path fill="#3BB9C5" d="M87.357,82.357v0.929h-0.928v-0.929H87.357 M88.071,81.643h-2.357V84h2.357V81.643L88.071,81.643z"/>
	</g>
	<g>
		<path fill="#3BB9C5" d="M82.571,85.857v0.929h-0.928v-0.929H82.571 M83.286,85.143h-2.357V87.5h2.357V85.143L83.286,85.143z"/>
	</g>
	<g>
		<path fill="#3BB9C5" d="M87.357,85.857v0.929h-0.928v-0.929H87.357 M88.071,85.143h-2.357V87.5h2.357V85.143L88.071,85.143z"/>
	</g>
	<g>
		<path fill="#3BB9C5" d="M82.571,89.357v0.929h-0.928v-0.929H82.571 M83.286,88.643h-2.357V91h2.357V88.643L83.286,88.643z"/>
	</g>
	<g>
		<path fill="#3BB9C5" d="M87.357,89.357v0.929h-0.928v-0.929H87.357 M88.071,88.643h-2.357V91h2.357V88.643L88.071,88.643z"/>
	</g>
	<g>
		<path fill="#3BB9C5" d="M82.571,92.929v0.928h-0.928v-0.928H82.571 M83.286,92.214h-2.357v2.357h2.357V92.214L83.286,92.214z"/>
	</g>
	<g>
		<path fill="#3BB9C5" d="M87.357,92.929v0.928h-0.928v-0.928H87.357 M88.071,92.214h-2.357v2.357h2.357V92.214L88.071,92.214z"/>
	</g>
	<g>
		<path fill="#3BB9C5" d="M82.571,96.429v0.928h-0.928v-0.928H82.571 M83.286,95.714h-2.357v2.357h2.357V95.714L83.286,95.714z"/>
	</g>
	<g>
		<path fill="#3BB9C5" d="M87.357,96.429v0.928h-0.928v-0.928H87.357 M88.071,95.714h-2.357v2.357h2.357V95.714L88.071,95.714z"/>
	</g>
	<g>
		<path fill="#3BB9C5" d="M82.571,99.929v0.929h-0.928v-0.929H82.571 M83.286,99.214h-2.357v2.357h2.357V99.214L83.286,99.214z"/>
	</g>
	<g>
		<path fill="#3BB9C5" d="M87.357,99.929v0.929h-0.928v-0.929H87.357 M88.071,99.214h-2.357v2.357h2.357V99.214L88.071,99.214z"/>
	</g>
	<g>
		<path fill="#3BB9C5" d="M82.571,103.5v0.929h-0.928V103.5H82.571 M83.286,102.785h-2.357v2.357h2.357V102.785L83.286,102.785z"/>
	</g>
	<g>
		<path fill="#3BB9C5" d="M87.357,103.5v0.929h-0.928V103.5H87.357 M88.071,102.785h-2.357v2.357h2.357V102.785L88.071,102.785z"/>
	</g>
	<g>
		<path fill="#3BB9C5" d="M82.571,107v0.929h-0.928V107H82.571 M83.286,106.285h-2.357v2.357h2.357V106.285L83.286,106.285z"/>
	</g>
	<g>
		<path fill="#3BB9C5" d="M87.357,107v0.929h-0.928V107H87.357 M88.071,106.285h-2.357v2.357h2.357V106.285L88.071,106.285z"/>
	</g>
	<g>
		<path fill="#3BB9C5" d="M82.571,109.643v0.929h-0.928v-0.929H82.571 M83.286,108.929h-2.357v2.356h2.357V108.929L83.286,108.929z"
			/>
	</g>
	<g>
		<path fill="#3BB9C5" d="M87.357,109.643v0.929h-0.928v-0.929H87.357 M88.071,108.929h-2.357v2.356h2.357V108.929L88.071,108.929z"
			/>
	</g>
	<g>
		<path fill="#3BB9C5" d="M82.571,113.143v0.929h-0.928v-0.929H82.571 M83.286,112.429h-2.357v2.356h2.357V112.429L83.286,112.429z"
			/>
	</g>
	<g>
		<path fill="#3BB9C5" d="M87.357,113.143v0.929h-0.928v-0.929H87.357 M88.071,112.429h-2.357v2.356h2.357V112.429L88.071,112.429z"
			/>
	</g>
	<g>
		<path fill="#3BB9C5" d="M92.143,113.143v0.929h-0.929v-0.929H92.143 M92.857,112.429H90.5v2.356h2.357V112.429L92.857,112.429z"/>
	</g>
	<g>
		<path fill="#3BB9C5" d="M82.571,116.643v0.929h-0.928v-0.929H82.571 M83.286,115.929h-2.357v2.356h2.357V115.929L83.286,115.929z"
			/>
	</g>
	<g>
		<path fill="#3BB9C5" d="M87.357,116.643v0.929h-0.928v-0.929H87.357 M88.071,115.929h-2.357v2.356h2.357V115.929L88.071,115.929z"
			/>
	</g>
	<g>
		<path fill="#3BB9C5" d="M82.571,120.215v0.928h-0.928v-0.928H82.571 M83.286,119.5h-2.357v2.357h2.357V119.5L83.286,119.5z"/>
	</g>
	<g>
		<path fill="#3BB9C5" d="M82.571,123.715v0.928h-0.928v-0.928H82.571 M83.286,123h-2.357v2.357h2.357V123L83.286,123z"/>
	</g>
	<g>
		<path fill="#3BB9C5" d="M82.571,127.215v0.928h-0.928v-0.928H82.571 M83.286,126.5h-2.357v2.357h2.357V126.5L83.286,126.5z"/>
	</g>
	<polyline fill="none" stroke="#3BB9C5" stroke-miterlimit="10" points="83.286,131.143 83.286,131.143 83.286,130.071 
		80.857,130.071 80.857,132.429 82.571,132.429 	"/>
	<g>
		<path fill="#3BB9C5" d="M87.357,120.215v0.928h-0.928v-0.928H87.357 M88.071,119.5h-2.357v2.357h2.357V119.5L88.071,119.5z"/>
	</g>
	<g>
		<path fill="#3BB9C5" d="M63.429,75.286v0.929H62.5v-0.929H63.429 M64.143,74.571h-2.357v2.357h2.357V74.571L64.143,74.571z"/>
	</g>
	<g>
		<path fill="#3BB9C5" d="M68.214,75.286v0.929h-0.929v-0.929H68.214 M68.929,74.571h-2.357v2.357h2.357V74.571L68.929,74.571z"/>
	</g>
	<g>
		<path fill="#3BB9C5" d="M63.429,78.786v0.929H62.5v-0.929H63.429 M64.143,78.071h-2.357v2.357h2.357V78.071L64.143,78.071z"/>
	</g>
	<g>
		<path fill="#3BB9C5" d="M68.214,78.786v0.929h-0.929v-0.929H68.214 M68.929,78.071h-2.357v2.357h2.357V78.071L68.929,78.071z"/>
	</g>
	<g>
		<path fill="#3BB9C5" d="M63.429,82.357v0.929H62.5v-0.929H63.429 M64.143,81.643h-2.357V84h2.357V81.643L64.143,81.643z"/>
	</g>
	<g>
		<path fill="#3BB9C5" d="M68.214,82.357v0.929h-0.929v-0.929H68.214 M68.929,81.643h-2.357V84h2.357V81.643L68.929,81.643z"/>
	</g>
	<g>
		<path fill="#3BB9C5" d="M63.429,85.857v0.929H62.5v-0.929H63.429 M64.143,85.143h-2.357V87.5h2.357V85.143L64.143,85.143z"/>
	</g>
	<g>
		<path fill="#3BB9C5" d="M58.714,85.857v0.929h-0.929v-0.929H58.714 M59.429,85.143h-2.357V87.5h2.357V85.143L59.429,85.143z"/>
	</g>
	<g>
		<path fill="#3BB9C5" d="M68.214,85.857v0.929h-0.929v-0.929H68.214 M68.929,85.143h-2.357V87.5h2.357V85.143L68.929,85.143z"/>
	</g>
	<g>
		<path fill="#3BB9C5" d="M63.429,89.357v0.929H62.5v-0.929H63.429 M64.143,88.643h-2.357V91h2.357V88.643L64.143,88.643z"/>
	</g>
	<g>
		<path fill="#3BB9C5" d="M68.214,89.357v0.929h-0.929v-0.929H68.214 M68.929,88.643h-2.357V91h2.357V88.643L68.929,88.643z"/>
	</g>
	<g>
		<path fill="#3BB9C5" d="M63.429,92.929v0.928H62.5v-0.928H63.429 M64.143,92.214h-2.357v2.357h2.357V92.214L64.143,92.214z"/>
	</g>
	<g>
		<path fill="#3BB9C5" d="M68.214,92.929v0.928h-0.929v-0.928H68.214 M68.929,92.214h-2.357v2.357h2.357V92.214L68.929,92.214z"/>
	</g>
	<g>
		<path fill="#3BB9C5" d="M63.429,96.429v0.928H62.5v-0.928H63.429 M64.143,95.714h-2.357v2.357h2.357V95.714L64.143,95.714z"/>
	</g>
	<g>
		<path fill="#3BB9C5" d="M68.214,96.429v0.928h-0.929v-0.928H68.214 M68.929,95.714h-2.357v2.357h2.357V95.714L68.929,95.714z"/>
	</g>
	<g>
		<path fill="#3BB9C5" d="M63.429,99.929v0.929H62.5v-0.929H63.429 M64.143,99.214h-2.357v2.357h2.357V99.214L64.143,99.214z"/>
	</g>
	<g>
		<path fill="#3BB9C5" d="M68.214,99.929v0.929h-0.929v-0.929H68.214 M68.929,99.214h-2.357v2.357h2.357V99.214L68.929,99.214z"/>
	</g>
	<g>
		<path fill="#3BB9C5" d="M63.429,103.5v0.929H62.5V103.5H63.429 M64.143,102.785h-2.357v2.357h2.357V102.785L64.143,102.785z"/>
	</g>
	<g>
		<path fill="#3BB9C5" d="M68.214,103.5v0.929h-0.929V103.5H68.214 M68.929,102.785h-2.357v2.357h2.357V102.785L68.929,102.785z"/>
	</g>
	<g>
		<path fill="#3BB9C5" d="M63.429,107v0.929H62.5V107H63.429 M64.143,106.285h-2.357v2.357h2.357V106.285L64.143,106.285z"/>
	</g>
	<g>
		<path fill="#3BB9C5" d="M68.214,107v0.929h-0.929V107H68.214 M68.929,106.285h-2.357v2.357h2.357V106.285L68.929,106.285z"/>
	</g>
	<g>
		<path fill="#3BB9C5" d="M63.429,109.643v0.929H62.5v-0.929H63.429 M64.143,108.929h-2.357v2.356h2.357V108.929L64.143,108.929z"/>
	</g>
	<g>
		<path fill="#3BB9C5" d="M68.214,109.643v0.929h-0.929v-0.929H68.214 M68.929,108.929h-2.357v2.356h2.357V108.929L68.929,108.929z"
			/>
	</g>
	<g>
		<path fill="#3BB9C5" d="M92.143,85.857v0.929h-0.929v-0.929H92.143 M92.857,85.143H90.5V87.5h2.357V85.143L92.857,85.143z"/>
	</g>
	<g>
		<path fill="#3BB9C5" d="M92.143,89.357v0.929h-0.929v-0.929H92.143 M92.857,88.643H90.5V91h2.357V88.643L92.857,88.643z"/>
	</g>
	<g>
		<path fill="#3BB9C5" d="M92.143,92.929v0.928h-0.929v-0.928H92.143 M92.857,92.214H90.5v2.357h2.357V92.214L92.857,92.214z"/>
	</g>
	<g>
		<path fill="#3BB9C5" d="M96.857,92.929v0.928h-0.928v-0.928H96.857 M97.571,92.214h-2.357v2.357h2.357V92.214L97.571,92.214z"/>
	</g>
	<g>
		<path fill="#3BB9C5" d="M92.143,96.429v0.928h-0.929v-0.928H92.143 M92.857,95.714H90.5v2.357h2.357V95.714L92.857,95.714z"/>
	</g>
	<g>
		<path fill="#3BB9C5" d="M96.857,96.429v0.928h-0.928v-0.928H96.857 M97.571,95.714h-2.357v2.357h2.357V95.714L97.571,95.714z"/>
	</g>
	<g>
		<path fill="#3BB9C5" d="M92.143,99.929v0.929h-0.929v-0.929H92.143 M92.857,99.214H90.5v2.357h2.357V99.214L92.857,99.214z"/>
	</g>
	<g>
		<path fill="#3BB9C5" d="M96.857,99.929v0.929h-0.928v-0.929H96.857 M97.571,99.214h-2.357v2.357h2.357V99.214L97.571,99.214z"/>
	</g>
	<g>
		<path fill="#3BB9C5" d="M92.143,103.5v0.929h-0.929V103.5H92.143 M92.857,102.785H90.5v2.357h2.357V102.785L92.857,102.785z"/>
	</g>
	<g>
		<path fill="#3BB9C5" d="M96.857,103.5v0.929h-0.928V103.5H96.857 M97.571,102.785h-2.357v2.357h2.357V102.785L97.571,102.785z"/>
	</g>
	<g>
		<path fill="#3BB9C5" d="M92.143,107v0.929h-0.929V107H92.143 M92.857,106.285H90.5v2.357h2.357V106.285L92.857,106.285z"/>
	</g>
	<polyline fill="none" stroke="#3BB9C5" stroke-miterlimit="10" points="97.571,107.285 97.571,106.285 95.214,106.285 
		95.214,108.571 95.214,108.715 96.214,108.715 96.786,108.715 	"/>
	<g>
		<path fill="#3BB9C5" d="M92.143,109.643v0.929h-0.929v-0.929H92.143 M92.857,108.929H90.5v2.356h2.357V108.929L92.857,108.929z"/>
	</g>
	<g>
		<path fill="#3BB9C5" d="M58.714,89.357v0.929h-0.929v-0.929H58.714 M59.429,88.643h-2.357V91h2.357V88.643L59.429,88.643z"/>
	</g>
	<g>
		<path fill="#3BB9C5" d="M53.929,92.929v0.928H53v-0.928H53.929 M54.643,92.214h-2.357v2.357h2.357V92.214L54.643,92.214z"/>
	</g>
	<g>
		<path fill="#3BB9C5" d="M58.714,92.929v0.928h-0.929v-0.928H58.714 M59.429,92.214h-2.357v2.357h2.357V92.214L59.429,92.214z"/>
	</g>
	<g>
		<path fill="#3BB9C5" d="M53.929,96.429v0.928H53v-0.928H53.929 M54.643,95.714h-2.357v2.357h2.357V95.714L54.643,95.714z"/>
	</g>
	<g>
		<path fill="#3BB9C5" d="M58.714,96.429v0.928h-0.929v-0.928H58.714 M59.429,95.714h-2.357v2.357h2.357V95.714L59.429,95.714z"/>
	</g>
	<g>
		<path fill="#3BB9C5" d="M53.929,99.929v0.929H53v-0.929H53.929 M54.643,99.214h-2.357v2.357h2.357V99.214L54.643,99.214z"/>
	</g>
	<g>
		<path fill="#3BB9C5" d="M58.714,99.929v0.929h-0.929v-0.929H58.714 M59.429,99.214h-2.357v2.357h2.357V99.214L59.429,99.214z"/>
	</g>
	<g>
		<path fill="#3BB9C5" d="M53.929,103.5v0.929H53V103.5H53.929 M54.643,102.785h-2.357v2.357h2.357V102.785L54.643,102.785z"/>
	</g>
	<g>
		<path fill="#3BB9C5" d="M58.714,103.5v0.929h-0.929V103.5H58.714 M59.429,102.785h-2.357v2.357h2.357V102.785L59.429,102.785z"/>
	</g>
	<g>
		<path fill="#3BB9C5" d="M58.714,107v0.929h-0.929V107H58.714 M59.429,106.285h-2.357v2.357h2.357V106.285L59.429,106.285z"/>
	</g>
	<g>
		<path fill="#3BB9C5" d="M58.714,109.643v0.929h-0.929v-0.929H58.714 M59.429,108.929h-2.357v2.356h2.357V108.929L59.429,108.929z"
			/>
	</g>
	<g>
		<path fill="#3BB9C5" d="M63.429,113.143v0.929H62.5v-0.929H63.429 M64.143,112.429h-2.357v2.356h2.357V112.429L64.143,112.429z"/>
	</g>
	<g>
		<path fill="#3BB9C5" d="M68.214,113.143v0.929h-0.929v-0.929H68.214 M68.929,112.429h-2.357v2.356h2.357V112.429L68.929,112.429z"
			/>
	</g>
	<g>
		<path fill="#3BB9C5" d="M63.429,116.643v0.929H62.5v-0.929H63.429 M64.143,115.929h-2.357v2.356h2.357V115.929L64.143,115.929z"/>
	</g>
	<polyline fill="none" stroke="#3BB9C5" stroke-miterlimit="10" points="57.643,114.857 59.429,114.857 59.429,112.429 57,112.429 
		57,113.785 	"/>
	<g>
		<path fill="#3BB9C5" d="M68.214,116.643v0.929h-0.929v-0.929H68.214 M68.929,115.929h-2.357v2.356h2.357V115.929L68.929,115.929z"
			/>
	</g>
	<g>
		<path fill="#3BB9C5" d="M63.429,120.215v0.928H62.5v-0.928H63.429 M64.143,119.5h-2.357v2.357h2.357V119.5L64.143,119.5z"/>
	</g>
	<g>
		<path fill="#3BB9C5" d="M68.214,120.215v0.928h-0.929v-0.928H68.214 M68.929,119.5h-2.357v2.357h2.357V119.5L68.929,119.5z"/>
	</g>
	<g>
		<path fill="#3BB9C5" d="M68.214,123.715v0.928h-0.929v-0.928H68.214 M68.929,123h-2.357v2.357h2.357V123L68.929,123z"/>
	</g>
	<polyline fill="none" stroke="#3BB9C5" stroke-miterlimit="10" points="62.357,123 64.143,123 64.143,125.429 63.714,125.429 	"/>
	<g>
		<path fill="#3BB9C5" d="M68.214,127.215v0.928h-0.929v-0.928H68.214 M68.929,126.5h-2.357v2.357h2.357V126.5L68.929,126.5z"/>
	</g>
	<g>
		<path fill="#3BB9C5" d="M68.214,130.785v0.93h-0.929v-0.93H68.214 M68.929,130.071h-2.357v2.357h2.357V130.071L68.929,130.071z"/>
	</g>
	<g>
		<path fill="#3BB9C5" d="M73,123.715v0.928h-0.929v-0.928H73 M73.714,123h-2.357v2.357h2.357V123L73.714,123z"/>
	</g>
	<g>
		<path fill="#3BB9C5" d="M77.786,123.715v0.928h-0.929v-0.928H77.786 M78.5,123h-2.357v2.357H78.5V123L78.5,123z"/>
	</g>
	<g>
		<path fill="#3BB9C5" d="M73,127.215v0.928h-0.929v-0.928H73 M73.714,126.5h-2.357v2.357h2.357V126.5L73.714,126.5z"/>
	</g>
	<g>
		<path fill="#3BB9C5" d="M77.786,127.215v0.928h-0.929v-0.928H77.786 M78.5,126.5h-2.357v2.357H78.5V126.5L78.5,126.5z"/>
	</g>
	<g>
		<path fill="#3BB9C5" d="M73,130.785v0.93h-0.929v-0.93H73 M73.714,130.071h-2.357v2.357h2.357V130.071L73.714,130.071z"/>
	</g>
	<g>
		<path fill="#3BB9C5" d="M77.786,130.785v0.93h-0.929v-0.93H77.786 M78.5,130.071h-2.357v2.357H78.5V130.071L78.5,130.071z"/>
	</g>
	<g>
		<path fill="#3BB9C5" d="M73,134.285v0.93h-0.929v-0.93H73 M73.714,133.571h-2.357v2.357h2.357V133.571L73.714,133.571z"/>
	</g>
	<g>
		<path fill="#3BB9C5" d="M77.786,134.285v0.93h-0.929v-0.93H77.786 M78.5,133.571h-2.357v2.357H78.5V133.571L78.5,133.571z"/>
	</g>
	<g>
		<path fill="#3BB9C5" d="M73,137.857v0.928h-0.929v-0.928H73 M73.714,137.143h-2.357v2.357h2.357V137.143L73.714,137.143z"/>
	</g>
	<g>
		<path fill="#3BB9C5" d="M77.786,137.857v0.928h-0.929v-0.928H77.786 M78.5,137.143h-2.357v2.357H78.5V137.143L78.5,137.143z"/>
	</g>
	<g>
		<circle fill="#3BB9C5" cx="86.857" cy="58.428" r="3.072"/>
	</g>
	<g>
		<path fill="#3BB9C5" d="M82.071,58.429c0,1.214-0.714,2.286-1.786,2.786l-3-5.214c0.5-0.357,1.143-0.571,1.786-0.571
			C80.714,55.357,82.071,56.786,82.071,58.429z"/>
	</g>
	<g>
		<circle fill="#3BB9C5" cx="94.714" cy="58.428" r="3.072"/>
	</g>
	<g>
		<circle fill="#3BB9C5" cx="102.5" cy="58.428" r="3.072"/>
	</g>
	<g>
		<circle fill="#3BB9C5" cx="110.357" cy="58.428" r="3.072"/>
	</g>
	<g>
		<circle fill="#3BB9C5" cx="118.143" cy="58.428" r="3.072"/>
	</g>
	<g>
		<path fill="#3BB9C5" d="M126.929,55.571l-3,5.143c-1.286-1.143-1.357-3.071-0.286-4.286C124.5,55.5,125.785,55.143,126.929,55.571
			z"/>
	</g>
	<g>
		<circle fill="#3BB9C5" cx="86.857" cy="65.5" r="3.071"/>
	</g>
	<g>
		<circle fill="#3BB9C5" cx="94.714" cy="65.5" r="3.071"/>
	</g>
	<g>
		<circle fill="#3BB9C5" cx="102.5" cy="65.5" r="3.071"/>
	</g>
	<g>
		<circle fill="#3BB9C5" cx="110.357" cy="65.5" r="3.071"/>
	</g>
	<g>
		<path fill="#3BB9C5" d="M121.215,65.5L121.215,65.5c0,1.071-0.572,2.071-1.5,2.643l0,0C118.285,69,116.429,68.5,115.571,67
			c-0.856-1.429-0.356-3.286,1.144-4.143C118.143,62,120,62.5,120.857,64C121.071,64.429,121.215,64.929,121.215,65.5L121.215,65.5z
			"/>
	</g>
	<g>
		<path fill="#3BB9C5" d="M89.929,73.429c0,1.071-0.572,2.143-1.572,2.643l-0.286-0.5l-0.571-1l-2.143-3.786
			c0.5-0.286,1-0.429,1.572-0.429C88.571,70.429,89.929,71.786,89.929,73.429z"/>
	</g>
	<g>
		<circle fill="#3BB9C5" cx="94.714" cy="73.428" r="3.072"/>
	</g>
	<g>
		<circle fill="#3BB9C5" cx="102.5" cy="73.428" r="3.072"/>
	</g>
	<g>
		<circle fill="#3BB9C5" cx="110.357" cy="73.428" r="3.072"/>
	</g>
	<g>
		<path fill="#3BB9C5" d="M115.929,75.5c-1.144-1.214-1.144-3.143,0.071-4.286c0.571-0.571,1.357-0.857,2.143-0.857
			c0.215,0,0.5,0,0.715,0.072L115.929,75.5z"/>
	</g>
	<g>
		<path fill="#3BB9C5" d="M107.357,90.5c-1.143-1.214-1.143-3.143,0.071-4.286c0.571-0.571,1.356-0.857,2.143-0.857
			c0.214,0,0.5,0,0.714,0.072L107.357,90.5z"/>
	</g>
	<g>
		<circle fill="#3BB9C5" cx="94.714" cy="80.428" r="3.072"/>
	</g>
	<g>
		<circle fill="#3BB9C5" cx="102.5" cy="80.428" r="3.072"/>
	</g>
	<g>
		<path fill="#3BB9C5" d="M113.357,80L113.357,80c-0.286-1.643-1.786-2.786-3.5-2.571c-1.643,0.286-2.786,1.786-2.572,3.5
			c0.215,1.5,1.5,2.571,3,2.571c0.357,0,0.786-0.071,1.144-0.214L113.357,80z"/>
	</g>
	<g>
		<path fill="#3BB9C5" d="M97.714,87.5c0,1-0.5,1.929-1.357,2.5l-0.786-1.357l-2.286-3.929c0.429-0.214,0.857-0.286,1.357-0.286
			C96.357,84.429,97.714,85.786,97.714,87.5L97.714,87.5z"/>
	</g>
	<g>
		<circle fill="#3BB9C5" cx="102.5" cy="87.5" r="3.071"/>
	</g>
	<g>
		<path fill="#3BB9C5" d="M105.429,93.714l-2.214,3.786c-0.215,0.071-0.5,0.071-0.715,0.071c-1,0-1.929-0.5-2.5-1.286l0,0l0,0
			l-0.214-0.357l0,0C99.571,95.5,99.5,95.071,99.5,94.571c0-1.714,1.357-3.071,3-3.071C103.857,91.5,105.071,92.357,105.429,93.714
			L105.429,93.714z"/>
	</g>
	<line fill="none" stroke="#3BB9C5" stroke-miterlimit="10" x1="155.429" y1="99.929" x2="155.429" y2="99.429"/>
	<line fill="none" stroke="#3BB9C5" stroke-miterlimit="10" x1="152.143" y1="105.715" x2="152.143" y2="93.714"/>
	<line fill="none" stroke="#3BB9C5" stroke-miterlimit="10" x1="148.785" y1="111.429" x2="148.785" y2="87.929"/>
	<line fill="none" stroke="#3BB9C5" stroke-miterlimit="10" x1="145.5" y1="117.215" x2="145.5" y2="82.143"/>
	<line fill="none" stroke="#3BB9C5" stroke-miterlimit="10" x1="142.143" y1="123" x2="142.143" y2="76.429"/>
	<line fill="none" stroke="#3BB9C5" stroke-miterlimit="10" x1="138.857" y1="128.715" x2="138.857" y2="70.643"/>
	<line fill="none" stroke="#3BB9C5" stroke-miterlimit="10" x1="135.5" y1="134.5" x2="135.5" y2="64.857"/>
	<line fill="none" stroke="#3BB9C5" stroke-miterlimit="10" x1="132.215" y1="140.285" x2="132.215" y2="59.143"/>
	<line fill="none" stroke="#3BB9C5" stroke-miterlimit="10" x1="128.857" y1="145.785" x2="128.857" y2="53.571"/>
	<line fill="none" stroke="#3BB9C5" stroke-miterlimit="10" x1="125.5" y1="140.5" x2="125.5" y2="58.857"/>
	<line fill="none" stroke="#3BB9C5" stroke-miterlimit="10" x1="122.215" y1="134.715" x2="122.215" y2="64.643"/>
	<line fill="none" stroke="#3BB9C5" stroke-miterlimit="10" x1="118.857" y1="129" x2="118.857" y2="70.429"/>
	<line fill="none" stroke="#3BB9C5" stroke-miterlimit="10" x1="115.571" y1="123.215" x2="115.571" y2="76.143"/>
	<line fill="none" stroke="#3BB9C5" stroke-miterlimit="10" x1="112.215" y1="117.429" x2="112.215" y2="81.929"/>
	<line fill="none" stroke="#3BB9C5" stroke-miterlimit="10" x1="108.929" y1="111.715" x2="108.929" y2="87.714"/>
	<line fill="none" stroke="#3BB9C5" stroke-miterlimit="10" x1="105.571" y1="105.929" x2="105.571" y2="93.429"/>
	<polyline fill="none" stroke="#3BB9C5" stroke-miterlimit="10" points="97.571,106.571 97.571,112.429 103.5,112.429 
		103.5,106.715 97.571,112.429 	"/>
	<polyline fill="none" stroke="#3BB9C5" stroke-miterlimit="10" points="97.571,113.357 97.571,119.215 103.5,119.215 103.5,113.5 
		97.571,119.215 	"/>
	<polyline fill="none" stroke="#3BB9C5" stroke-miterlimit="10" points="97.571,120.143 97.571,126 103.5,126 103.5,120.357 
		97.571,126 	"/>
	<polyline fill="none" stroke="#3BB9C5" stroke-miterlimit="10" points="97.571,127 97.571,132.857 103.5,132.857 103.5,127.143 
		97.571,132.857 	"/>
	<polyline fill="none" stroke="#3BB9C5" stroke-miterlimit="10" points="97.571,133.785 97.571,139.643 103.5,139.643 
		103.5,133.929 97.571,139.643 	"/>
	<polyline fill="none" stroke="#3BB9C5" stroke-miterlimit="10" points="97.571,140.571 97.571,146.429 103.5,146.429 
		103.5,140.715 97.571,146.429 	"/>
	<line fill="none" stroke="#3BB9C5" stroke-miterlimit="10" x1="108.071" y1="109.357" x2="104.929" y2="112.429"/>
	<polyline fill="none" stroke="#3BB9C5" stroke-miterlimit="10" points="109.857,112.429 104.929,112.429 104.929,106.571 	"/>
	<polyline fill="none" stroke="#3BB9C5" stroke-miterlimit="10" points="104.929,113.357 104.929,119.215 110.857,119.215 
		110.857,113.5 104.929,119.215 	"/>
	<polyline fill="none" stroke="#3BB9C5" stroke-miterlimit="10" points="104.929,120.143 104.929,126 110.857,126 110.857,120.357 
		104.929,126 	"/>
	<polyline fill="none" stroke="#3BB9C5" stroke-miterlimit="10" points="104.929,127 104.929,132.857 110.857,132.857 
		110.857,127.143 104.929,132.857 	"/>
	<polyline fill="none" stroke="#3BB9C5" stroke-miterlimit="10" points="104.929,133.785 104.929,139.643 110.857,139.643 
		110.857,133.929 104.929,139.643 	"/>
	<polyline fill="none" stroke="#3BB9C5" stroke-miterlimit="10" points="104.929,140.571 104.929,146.429 110.857,146.429 
		110.857,140.715 104.929,146.429 	"/>
	<line fill="none" stroke="#3BB9C5" stroke-miterlimit="10" x1="113.215" y1="118.285" x2="112.215" y2="119.215"/>
	<polyline fill="none" stroke="#3BB9C5" stroke-miterlimit="10" points="112.215,113.357 112.215,116.571 112.215,119.215 
		113.785,119.215 	"/>
	<line fill="none" stroke="#3BB9C5" stroke-miterlimit="10" x1="115.715" y1="122.643" x2="112.215" y2="126"/>
	<polyline fill="none" stroke="#3BB9C5" stroke-miterlimit="10" points="117.715,126 112.215,126 112.215,120.143 	"/>
	<polyline fill="none" stroke="#3BB9C5" stroke-miterlimit="10" points="112.215,127 112.215,132.857 118.143,132.857 
		118.143,127.143 112.215,132.857 	"/>
	<polyline fill="none" stroke="#3BB9C5" stroke-miterlimit="10" points="112.215,133.785 112.215,139.643 118.143,139.643 
		118.143,133.929 112.215,139.643 	"/>
	<line fill="none" stroke="#3BB9C5" stroke-miterlimit="10" x1="123.429" y1="135.929" x2="119.571" y2="139.643"/>
	<polyline fill="none" stroke="#3BB9C5" stroke-miterlimit="10" points="125.429,139.429 125.429,139.643 119.571,139.643 
		119.571,133.785 	"/>
	<polyline fill="none" stroke="#3BB9C5" stroke-miterlimit="10" points="112.215,140.571 112.215,146.429 118.143,146.429 
		118.143,140.715 112.215,146.429 	"/>
	<polyline fill="none" stroke="#3BB9C5" stroke-miterlimit="10" points="119.643,140.571 119.643,146.429 125.5,146.429 
		125.5,140.715 119.643,146.429 	"/>
	<line fill="none" stroke="#3BB9C5" stroke-miterlimit="10" x1="92.857" y1="112.429" x2="90.429" y2="112.429"/>
	<polyline fill="none" stroke="#3BB9C5" stroke-miterlimit="10" points="96.214,108.785 96.214,112.429 94.071,112.429 	"/>
	<polyline fill="none" stroke="#3BB9C5" stroke-miterlimit="10" points="90.286,119.215 96.214,113.5 96.214,119.215 
		90.286,119.215 90.286,119 	"/>
	<polyline fill="none" stroke="#3BB9C5" stroke-miterlimit="10" points="90.286,120.143 90.286,126 96.214,126 96.214,120.357 
		90.286,126 	"/>
	<polyline fill="none" stroke="#3BB9C5" stroke-miterlimit="10" points="90.286,127 90.286,132.857 96.214,132.857 96.214,127.143 
		90.286,132.857 	"/>
	<polyline fill="none" stroke="#3BB9C5" stroke-miterlimit="10" points="90.286,133.785 90.286,139.643 96.214,139.643 
		96.214,133.929 90.286,139.643 	"/>
	<polyline fill="none" stroke="#3BB9C5" stroke-miterlimit="10" points="90.286,140.571 90.286,146.429 96.214,146.429 
		96.214,140.715 90.286,146.429 	"/>
	<g>
		<path fill="#3BB9C5" d="M88.143,128.785v3.286h-3.429L88.143,128.785 M88.857,127.143l-5.928,5.715h5.928V127.143L88.857,127.143z
			"/>
	</g>
	<polyline fill="none" stroke="#3BB9C5" stroke-miterlimit="10" points="83,133.785 83,139.643 88.857,139.643 88.857,133.929 
		83,139.643 	"/>
	<polyline fill="none" stroke="#3BB9C5" stroke-miterlimit="10" points="83,140.571 83,146.429 88.857,146.429 88.857,140.715 
		83,146.429 	"/>
	<line fill="none" stroke="#3BB9C5" stroke-miterlimit="10" x1="75.643" y1="146.429" x2="75.643" y2="145.215"/>
	<polyline fill="none" stroke="#3BB9C5" stroke-miterlimit="10" points="81.571,145.215 81.571,146.429 75.643,146.429 
		76.929,145.215 81.571,140.715 81.571,145.215 	"/>
</g>
</svg>
