<?xml version="1.0" encoding="utf-8"?>
<!-- Generator: Adobe Illustrator 19.2.1, SVG Export Plug-In . SVG Version: 6.00 Build 0)  -->
<svg version="1.1" id="Layer_1" xmlns="http://www.w3.org/2000/svg" xmlns:xlink="http://www.w3.org/1999/xlink" x="0px" y="0px"
	 viewBox="0 0 108.9 102.9" style="enable-background:new 0 0 108.9 102.9;" xml:space="preserve">
<style type="text/css">
	.st0{fill:none;stroke:#FFFFFF;stroke-width:6;stroke-linecap:round;stroke-linejoin:round;stroke-miterlimit:10;}
	.st1{fill:none;stroke:#3BB9C5;stroke-miterlimit:10;}
	.st2{fill:#3BB9C5;}
	.st3{fill:none;stroke:#3BB9C5;stroke-miterlimit:10;stroke-dasharray:6.5587,6.5587;}
	.st4{fill:none;stroke:#3BB9C5;stroke-miterlimit:10;stroke-dasharray:6.3062,6.3062;}
	.st5{fill:none;stroke:#3BB9C5;stroke-miterlimit:10;stroke-dasharray:5.76,5.76;}
	.st6{fill:none;stroke:#3BB9C5;stroke-miterlimit:10;stroke-dasharray:6.2812,6.2812;}
	.st7{fill:none;stroke:#3BB9C5;stroke-miterlimit:10;stroke-dasharray:6.5502,6.5502;}
	.st8{fill:none;stroke:#3BB9C5;stroke-miterlimit:10;stroke-dasharray:6;}
</style>
<g>
	<line class="st0" x1="27.7" y1="97.9" x2="27.8" y2="97.9"/>
	<polyline class="st1" points="0.9,51.4 25.2,9.2 27.7,5 27.8,5 32.8,5 75.9,5 80.8,5 81.2,5 83.9,9.6 108,51.4 	"/>
	<line class="st0" x1="81.2" y1="97.9" x2="80.8" y2="97.9"/>
	<g>
		<circle class="st2" cx="80.8" cy="5.8" r="5"/>
	</g>
	<g>
		<circle class="st2" cx="80.8" cy="97.2" r="5"/>
	</g>
	<g>
		<circle class="st2" cx="27.8" cy="5" r="5"/>
	</g>
	<g>
		<circle class="st2" cx="27.7" cy="97.9" r="5"/>
	</g>
	<line class="st1" x1="27.8" y1="5" x2="27.8" y2="51.4"/>
	<line class="st1" x1="80.8" y1="5" x2="80.8" y2="51.4"/>
	<g>
		<g>
			<line class="st1" x1="80.8" y1="51.4" x2="80.8" y2="53.6"/>
			<line class="st3" x1="80.8" y1="58.3" x2="80.8" y2="93.4"/>
			<polyline class="st1" points="80.8,95.7 80.8,97.9 81.9,96 			"/>
			<line class="st4" x1="84.2" y1="92.1" x2="105.8" y2="55.2"/>
			<polyline class="st1" points="106.9,53.3 108,51.4 105.9,51.4 			"/>
			<line class="st5" x1="101.7" y1="51.4" x2="5.1" y2="51.4"/>
			<polyline class="st1" points="3,51.4 0.9,51.4 1.9,53.3 			"/>
			<line class="st6" x1="4.2" y1="57.1" x2="25.6" y2="94"/>
			<polyline class="st1" points="26.7,96 27.8,97.9 27.8,95.7 			"/>
			<line class="st7" x1="27.8" y1="91" x2="27.8" y2="55.9"/>
			<line class="st1" x1="27.8" y1="53.6" x2="27.8" y2="51.4"/>
		</g>
	</g>
	<line class="st1" x1="32.8" y1="86" x2="32.8" y2="90.1"/>
	<line class="st1" x1="35" y1="86" x2="35" y2="90.1"/>
	<line class="st1" x1="32.8" y1="11.7" x2="32.8" y2="15.9"/>
	<line class="st1" x1="75.9" y1="13.8" x2="71.7" y2="13.8"/>
	<line class="st1" x1="75.9" y1="86.9" x2="71.7" y2="86.9"/>
	<line class="st1" x1="75.9" y1="89.6" x2="71.7" y2="89.6"/>
	<line class="st8" x1="27.8" y1="97.9" x2="80.8" y2="97.9"/>
	<line class="st1" x1="0.9" y1="51.4" x2="108" y2="51.4"/>
</g>
</svg>
