<?xml version="1.0" encoding="utf-8"?>
<!-- Generator: Adobe Illustrator 19.2.1, SVG Export Plug-In . SVG Version: 6.00 Build 0)  -->
<svg version="1.1" id="Layer_1" xmlns="http://www.w3.org/2000/svg" xmlns:xlink="http://www.w3.org/1999/xlink" x="0px" y="0px"
	 viewBox="0 0 107.1 94.1" style="enable-background:new 0 0 107.1 94.1;" xml:space="preserve">
<style type="text/css">
	.st0{fill:none;}
	.st1{clip-path:url(#SVGID_2_);fill:#00A9B7;}
	.st2{clip-path:url(#SVGID_4_);fill:#00A9B7;}
	.st3{clip-path:url(#SVGID_6_);fill:#00A9B7;}
	.st4{clip-path:url(#SVGID_8_);fill:#00A9B7;}
	.st5{clip-path:url(#SVGID_10_);fill:#00A9B7;}
	.st6{clip-path:url(#SVGID_12_);fill:#00A9B7;}
	.st7{clip-path:url(#SVGID_14_);fill:#00A9B7;}
	.st8{clip-path:url(#SVGID_16_);fill:#00A9B7;}
	.st9{clip-path:url(#SVGID_18_);fill:#00A9B7;}
	.st10{clip-path:url(#SVGID_20_);fill:#00A9B7;}
	.st11{clip-path:url(#SVGID_22_);fill:#00A9B7;}
	.st12{clip-path:url(#SVGID_24_);fill:#00A9B7;}
	.st13{clip-path:url(#SVGID_26_);fill:#00A9B7;}
	.st14{fill:url(#SVGID_28_);stroke:#00A9B7;stroke-miterlimit:10;}
	.st15{fill:#3BB9C5;}
	.st16{fill:none;stroke:#3BB9C5;stroke-miterlimit:10;}
	.st17{fill:#00A9B7;}
</style>
<pattern  x="-49.3" y="37.3" width="34.3" height="34.3" patternUnits="userSpaceOnUse" id="SVGID_27_" viewBox="2.6 -36.9 34.3 34.3" style="overflow:visible;">
	<g>
		<rect x="2.6" y="-36.9" class="st0" width="34.3" height="34.3"/>
		<g>
			<polygon class="st0" points="2.6,-36.9 36.9,-36.9 36.9,-2.6 2.6,-2.6 			"/>
			<g>
				<polygon class="st0" points="2.6,-36.9 36.9,-36.9 36.9,-2.6 2.6,-2.6 				"/>
				<g>
					<g>
						<g>
							<defs>
								<rect id="SVGID_1_" x="2.6" y="-36.9" width="34.3" height="34.3"/>
							</defs>
							<clipPath id="SVGID_2_">
								<use xlink:href="#SVGID_1_"  style="overflow:visible;"/>
							</clipPath>
							<path class="st1" d="M19.7-39.4c1.4,0,2.6,1.2,2.6,2.6c0,1.4-1.2,2.6-2.6,2.6c-1.4,0-2.6-1.1-2.6-2.6
								C17.1-38.3,18.3-39.4,19.7-39.4z"/>
						</g>
					</g>
					<g>
						<g>
							<defs>
								<rect id="SVGID_3_" x="2.6" y="-36.9" width="34.3" height="34.3"/>
							</defs>
							<clipPath id="SVGID_4_">
								<use xlink:href="#SVGID_3_"  style="overflow:visible;"/>
							</clipPath>
							<path class="st2" d="M36.9-39.4c1.4,0,2.6,1.2,2.6,2.6c0,1.4-1.2,2.6-2.6,2.6c-1.4,0-2.6-1.1-2.6-2.6
								C34.3-38.3,35.4-39.4,36.9-39.4z"/>
						</g>
					</g>
					<g>
						<g>
							<defs>
								<rect id="SVGID_5_" x="2.6" y="-36.9" width="34.3" height="34.3"/>
							</defs>
							<clipPath id="SVGID_6_">
								<use xlink:href="#SVGID_5_"  style="overflow:visible;"/>
							</clipPath>
							<path class="st3" d="M19.7-22.3c1.4,0,2.6,1.2,2.6,2.6s-1.2,2.6-2.6,2.6c-1.4,0-2.6-1.1-2.6-2.6S18.3-22.3,19.7-22.3z"/>
						</g>
					</g>
					<g>
						<g>
							<defs>
								<rect id="SVGID_7_" x="2.6" y="-36.9" width="34.3" height="34.3"/>
							</defs>
							<clipPath id="SVGID_8_">
								<use xlink:href="#SVGID_7_"  style="overflow:visible;"/>
							</clipPath>
							<path class="st4" d="M36.9-22.3c1.4,0,2.6,1.2,2.6,2.6s-1.2,2.6-2.6,2.6c-1.4,0-2.6-1.1-2.6-2.6S35.4-22.3,36.9-22.3z"/>
						</g>
					</g>
					<g>
						<g>
							<defs>
								<rect id="SVGID_9_" x="2.6" y="-36.9" width="34.3" height="34.3"/>
							</defs>
							<clipPath id="SVGID_10_">
								<use xlink:href="#SVGID_9_"  style="overflow:visible;"/>
							</clipPath>
							<path class="st5" d="M28.3-30.9c1.4,0,2.6,1.1,2.6,2.6s-1.2,2.6-2.6,2.6c-1.4,0-2.6-1.2-2.6-2.6S26.9-30.9,28.3-30.9z"/>
						</g>
					</g>
					<g>
						<g>
							<defs>
								<rect id="SVGID_11_" x="2.6" y="-36.9" width="34.3" height="34.3"/>
							</defs>
							<clipPath id="SVGID_12_">
								<use xlink:href="#SVGID_11_"  style="overflow:visible;"/>
							</clipPath>
							<path class="st6" d="M11.1-30.9c1.4,0,2.6,1.1,2.6,2.6s-1.2,2.6-2.6,2.6s-2.6-1.2-2.6-2.6S9.7-30.9,11.1-30.9z"/>
						</g>
					</g>
					<g>
						<g>
							<defs>
								<rect id="SVGID_13_" x="2.6" y="-36.9" width="34.3" height="34.3"/>
							</defs>
							<clipPath id="SVGID_14_">
								<use xlink:href="#SVGID_13_"  style="overflow:visible;"/>
							</clipPath>
							<path class="st7" d="M28.3-13.7c1.4,0,2.6,1.1,2.6,2.6c0,1.4-1.2,2.6-2.6,2.6c-1.4,0-2.6-1.2-2.6-2.6
								C25.7-12.6,26.9-13.7,28.3-13.7z"/>
						</g>
					</g>
					<g>
						<g>
							<defs>
								<rect id="SVGID_15_" x="2.6" y="-36.9" width="34.3" height="34.3"/>
							</defs>
							<clipPath id="SVGID_16_">
								<use xlink:href="#SVGID_15_"  style="overflow:visible;"/>
							</clipPath>
							<path class="st8" d="M11.1-13.7c1.4,0,2.6,1.1,2.6,2.6c0,1.4-1.2,2.6-2.6,2.6s-2.6-1.2-2.6-2.6C8.6-12.6,9.7-13.7,11.1-13.7z
								"/>
						</g>
					</g>
					<g>
						<g>
							<defs>
								<rect id="SVGID_17_" x="2.6" y="-36.9" width="34.3" height="34.3"/>
							</defs>
							<clipPath id="SVGID_18_">
								<use xlink:href="#SVGID_17_"  style="overflow:visible;"/>
							</clipPath>
							<path class="st9" d="M2.6-39.4c1.4,0,2.6,1.2,2.6,2.6c0,1.4-1.2,2.6-2.6,2.6c-1.4,0-2.6-1.1-2.6-2.6
								C0-38.3,1.2-39.4,2.6-39.4z"/>
						</g>
					</g>
					<g>
						<g>
							<defs>
								<rect id="SVGID_19_" x="2.6" y="-36.9" width="34.3" height="34.3"/>
							</defs>
							<clipPath id="SVGID_20_">
								<use xlink:href="#SVGID_19_"  style="overflow:visible;"/>
							</clipPath>
							<path class="st10" d="M2.6-22.3c1.4,0,2.6,1.2,2.6,2.6S4-17.1,2.6-17.1c-1.4,0-2.6-1.1-2.6-2.6S1.2-22.3,2.6-22.3z"/>
						</g>
					</g>
					<g>
						<g>
							<defs>
								<rect id="SVGID_21_" x="2.6" y="-36.9" width="34.3" height="34.3"/>
							</defs>
							<clipPath id="SVGID_22_">
								<use xlink:href="#SVGID_21_"  style="overflow:visible;"/>
							</clipPath>
							<path class="st11" d="M19.7-5.1c1.4,0,2.6,1.2,2.6,2.6S21.1,0,19.7,0c-1.4,0-2.6-1.2-2.6-2.6S18.3-5.1,19.7-5.1z"/>
						</g>
					</g>
					<g>
						<g>
							<defs>
								<rect id="SVGID_23_" x="2.6" y="-36.9" width="34.3" height="34.3"/>
							</defs>
							<clipPath id="SVGID_24_">
								<use xlink:href="#SVGID_23_"  style="overflow:visible;"/>
							</clipPath>
							<path class="st12" d="M36.9-5.1c1.4,0,2.6,1.2,2.6,2.6S38.3,0,36.9,0c-1.4,0-2.6-1.2-2.6-2.6S35.4-5.1,36.9-5.1z"/>
						</g>
					</g>
					<g>
						<g>
							<defs>
								<rect id="SVGID_25_" x="2.6" y="-36.9" width="34.3" height="34.3"/>
							</defs>
							<clipPath id="SVGID_26_">
								<use xlink:href="#SVGID_25_"  style="overflow:visible;"/>
							</clipPath>
							<path class="st13" d="M2.6-5.1C4-5.1,5.1-4,5.1-2.6S4,0,2.6,0C1.2,0,0-1.2,0-2.6S1.2-5.1,2.6-5.1z"/>
						</g>
					</g>
				</g>
			</g>
		</g>
	</g>
</pattern>
<g>
	<pattern  id="SVGID_28_" xlink:href="#SVGID_27_" patternTransform="matrix(0.7143 0 0 0.7143 -4579.3608 11670.6572)">
	</pattern>
	<circle class="st14" cx="53.5" cy="46.1" r="33.6"/>
	<g>
		<path class="st15" d="M77.8,5.3l24.1,41.8L77.8,88.9H29.5L5.4,47.1L29.5,5.3L77.8,5.3 M78.2,4.6H29.1L4.6,47.1l24.6,42.5h49.1
			l24.6-42.5L78.2,4.6L78.2,4.6z"/>
	</g>
	<polyline class="st16" points="45.7,33.4 46.1,33.9 51.3,43 53.6,47.1 53.6,47.1 51.4,51 45.5,61.2 45.3,61.6 	"/>
	<polyline class="st16" points="42.8,66 36.6,76.6 31.4,85.6 29.1,89.6 	"/>
	<polyline class="st16" points="43.2,28.9 37.2,18.6 31.4,8.6 29.1,4.6 	"/>
	<polyline class="st16" points="61.6,33.4 61.4,33.7 55.9,43.1 53.6,47.1 53.7,47.1 55.9,50.9 62,61.4 62.1,61.7 	"/>
	<polyline class="st16" points="64.7,66.1 70.9,76.7 75.9,85.6 78.2,89.5 	"/>
	<polyline class="st16" points="64.1,28.9 70.2,18.4 75.9,8.5 78.1,4.6 78.2,4.4 	"/>
	<circle class="st17" cx="78.2" cy="89.5" r="4.6"/>
	<circle class="st17" cx="102.6" cy="47" r="4.6"/>
	<circle class="st17" cx="53.5" cy="47" r="4.6"/>
	<circle class="st17" cx="78.2" cy="4.6" r="4.6"/>
	<circle class="st17" cx="29.3" cy="4.6" r="4.6"/>
	<circle class="st17" cx="4.6" cy="47" r="4.6"/>
	<circle class="st17" cx="29.1" cy="89.5" r="4.6"/>
	<polyline class="st16" points="4.6,47.1 9.1,47.1 20.3,47.1 32.4,47.1 	"/>
	<polyline class="st16" points="102.8,47.1 98,47.1 87.5,47.1 75.3,47.1 	"/>
	<polyline class="st16" points="70.2,47.1 69.7,47.1 58.1,47.1 53.7,47.1 53.6,47.1 48.9,47.1 38,47.1 37.5,47.1 	"/>
	<polyline class="st16" points="64.1,28.9 67.6,31 65.1,35.4 61.6,33.4 	"/>
	<polyline class="st16" points="70.2,47.1 70.1,51.2 75.3,51.2 75.3,47.1 	"/>
	<polyline class="st16" points="62.1,61.7 58.6,63.6 61,68.1 64.7,66.1 	"/>
	<polyline class="st16" points="42.8,66 39.2,63.9 41.8,59.5 45.3,61.6 	"/>
	<polyline class="st16" points="37.5,47.1 37.5,43 32.4,43 32.4,47.1 	"/>
	<polyline class="st16" points="43.2,28.9 46.7,27 49.2,31.4 45.7,33.4 	"/>
</g>
</svg>
