<?xml version="1.0" encoding="utf-8"?>
<!-- Generator: Adobe Illustrator 19.2.1, SVG Export Plug-In . SVG Version: 6.00 Build 0)  -->
<svg version="1.1" id="Layer_1" xmlns="http://www.w3.org/2000/svg" xmlns:xlink="http://www.w3.org/1999/xlink" x="0px" y="0px"
	 viewBox="0 0 107.7 94.7" style="enable-background:new 0 0 107.7 94.7;" xml:space="preserve">
<style type="text/css">
	.st0{fill:none;stroke:#3BB9C5;stroke-miterlimit:10;}
	.st1{fill:#3BB9C5;}
</style>
<g>
	<polyline class="st0" points="53.9,10.5 66,5.2 54.3,0.5 	"/>
	<polyline class="st0" points="91.9,65.2 90.4,78.3 100.4,70.6 	"/>
	<polyline class="st0" points="22.3,69.2 11.6,61.4 13.3,74 	"/>
	<path class="st1" d="M9.5,49.8c0,1.8-0.9,3.3-2.4,4.1c-0.7,0.4-1.5,0.6-2.4,0.6c-2.6,0-4.8-2.1-4.8-4.8C0,47.2,2.1,45,4.8,45
		c0.9,0,1.6,0.2,2.4,0.6c1.4,0.8,2.4,2.3,2.4,4C9.5,49.7,9.5,49.8,9.5,49.8z"/>
	<path class="st1" d="M35.9,5.5L35.9,5.5c0,2.7-2.1,4.9-4.8,4.9c-1.1,0-2.2-0.4-3-1.1c-1.1-0.9-1.7-2.2-1.7-3.7
		c0-2.6,2.1-4.8,4.8-4.8C33.8,0.8,35.9,2.9,35.9,5.5z"/>
	<g>
		<polyline class="st0" points="35.9,5.5 81.6,5.5 107.1,49.8 81.6,94.2 30.4,94.2 7.1,54 		"/>
	</g>
</g>
</svg>
