<svg id="Layer_1" data-name="Layer 1" xmlns="http://www.w3.org/2000/svg" viewBox="0 0 536.82 329.98"><defs><style>.cls-1{fill:none;stroke:#fff;stroke-miterlimit:10;}</style></defs><title>symbiosis_box</title><polygon class="cls-1" points="0.5 83.53 45.59 65.72 89.92 83.53 89.92 142.25 45.87 165.74 0.5 141.87 0.5 83.53"/><polyline class="cls-1" points="0.5 83.53 45.97 104.36 89.92 83.53"/><line class="cls-1" x1="45.97" y1="104.36" x2="45.87" y2="165.74"/><polygon class="cls-1" points="53.54 117.63 98.63 99.82 142.96 117.63 142.96 176.35 98.91 199.84 53.54 175.97 53.54 117.63"/><polyline class="cls-1" points="53.54 117.63 99.01 138.46 142.96 117.63"/><line class="cls-1" x1="99.01" y1="138.46" x2="98.91" y2="199.84"/><polygon class="cls-1" points="87.64 50.94 132.73 33.14 177.06 50.94 177.06 109.67 133.01 133.16 87.64 109.29 87.64 50.94"/><polyline class="cls-1" points="87.64 50.94 133.11 71.78 177.06 50.94"/><line class="cls-1" x1="133.11" y1="71.78" x2="133.01" y2="133.16"/><polygon class="cls-1" points="157.35 47.15 202.44 29.35 246.77 47.15 246.77 105.88 202.72 129.37 157.35 105.5 157.35 47.15"/><polyline class="cls-1" points="157.35 47.15 202.82 67.99 246.77 47.15"/><line class="cls-1" x1="202.82" y1="67.99" x2="202.73" y2="129.37"/><polygon class="cls-1" points="204.34 225.63 216.18 220.88 227.83 225.63 227.83 241.31 216.26 247.58 204.34 241.21 204.34 225.63"/><polyline class="cls-1" points="204.34 225.63 216.47 231.19 228.21 225.63"/><line class="cls-1" x1="216.47" y1="231.19" x2="216.45" y2="247.58"/><polygon class="cls-1" points="98.25 197.19 143.34 179.38 187.66 197.19 187.66 255.91 143.62 279.4 98.25 255.54 98.25 197.19"/><polyline class="cls-1" points="98.25 197.19 143.72 218.03 187.66 197.19"/><line class="cls-1" x1="143.72" y1="218.03" x2="143.62" y2="279.41"/><polygon class="cls-1" points="49.36 198.05 78.57 189.37 105.36 202.96 102.14 239.75 73.26 252.04 46.15 234.6 49.36 198.05"/><polyline class="cls-1" points="49.36 198.05 76.69 213.6 105.36 202.96"/><line class="cls-1" x1="76.69" y1="213.6" x2="73.26" y2="252.04"/><polygon class="cls-1" points="179.33 229.22 207.68 218.03 235.55 229.22 235.55 266.15 207.86 280.92 179.33 265.91 179.33 229.22"/><polyline class="cls-1" points="179.33 229.22 207.92 242.33 235.55 229.22"/><line class="cls-1" x1="207.92" y1="242.33" x2="207.86" y2="280.92"/><polygon class="cls-1" points="185.39 271.94 216.42 259.49 246.91 271.94 246.91 312.99 216.62 329.42 185.39 312.73 185.39 271.94"/><polyline class="cls-1" points="185.39 271.94 217.18 286.5 247.91 271.94"/><line class="cls-1" x1="217.18" y1="286.5" x2="217.11" y2="329.42"/><polygon class="cls-1" points="233.13 133.94 244.98 129.19 256.62 133.94 256.62 149.62 245.05 155.89 233.13 149.52 233.13 133.94"/><polyline class="cls-1" points="233.13 133.94 245.27 139.51 257 133.94"/><line class="cls-1" x1="245.27" y1="139.51" x2="245.24" y2="155.89"/><polygon class="cls-1" points="167.21 122.58 179.05 117.82 190.7 122.58 190.7 138.25 179.13 144.53 167.21 138.15 167.21 122.58"/><polyline class="cls-1" points="167.21 122.58 179.34 128.14 191.07 122.58"/><line class="cls-1" x1="179.34" y1="128.14" x2="179.32" y2="144.53"/><polygon class="cls-1" points="167.21 107.42 179.05 102.67 190.7 107.42 190.7 123.1 179.13 129.37 167.21 123 167.21 107.42"/><polyline class="cls-1" points="167.21 107.42 179.34 112.98 191.07 107.42"/><line class="cls-1" x1="179.34" y1="112.99" x2="179.32" y2="129.37"/><polygon class="cls-1" points="236.16 299.89 248.01 295.14 259.65 299.89 259.65 315.57 248.08 321.84 236.16 315.47 236.16 299.89"/><polyline class="cls-1" points="236.16 299.89 248.3 305.45 260.03 299.89"/><line class="cls-1" x1="248.3" y1="305.45" x2="248.27" y2="321.84"/><polygon class="cls-1" points="247.53 281.71 259.37 276.95 271.02 281.71 271.02 297.38 259.45 303.65 247.53 297.28 247.53 281.71"/><polyline class="cls-1" points="247.53 281.71 259.67 287.27 271.4 281.71"/><line class="cls-1" x1="259.66" y1="287.27" x2="259.64" y2="303.65"/><polygon class="cls-1" points="260.41 181.68 272.26 176.93 283.9 181.68 283.9 197.36 272.33 203.63 260.41 197.26 260.41 181.68"/><polyline class="cls-1" points="260.41 181.68 272.55 187.25 284.28 181.68"/><line class="cls-1" x1="272.55" y1="187.25" x2="272.52" y2="203.63"/><polygon class="cls-1" points="27.78 71.21 45.27 64.19 62.46 71.21 62.46 94.35 45.38 103.61 27.78 94.2 27.78 71.21"/><polyline class="cls-1" points="27.78 71.21 45.7 79.42 63.02 71.21"/><line class="cls-1" x1="45.7" y1="79.42" x2="45.66" y2="103.61"/><polygon class="cls-1" points="114.92 34.84 132.41 27.82 149.6 34.84 149.6 57.98 132.52 67.23 114.92 57.83 114.92 34.84"/><polyline class="cls-1" points="114.92 34.84 132.84 43.05 150.16 34.84"/><line class="cls-1" x1="132.84" y1="43.05" x2="132.8" y2="67.23"/><polygon class="cls-1" points="117.19 177.29 134.68 170.28 151.87 177.29 151.87 200.44 134.79 209.69 117.19 200.29 117.19 177.29"/><polyline class="cls-1" points="117.19 177.29 135.11 185.5 152.43 177.29"/><line class="cls-1" x1="135.11" y1="185.5" x2="135.07" y2="209.69"/><polygon class="cls-1" points="263.44 231.09 280.93 224.08 298.12 231.09 298.12 254.24 281.04 263.49 263.44 254.09 263.44 231.09"/><polyline class="cls-1" points="263.44 231.09 281.36 239.31 298.68 231.09"/><line class="cls-1" x1="281.36" y1="239.31" x2="281.32" y2="263.49"/><polygon class="cls-1" points="367.25 11.35 384.74 4.33 401.93 11.35 401.93 34.49 384.85 43.74 367.25 34.34 367.25 11.35"/><polyline class="cls-1" points="367.25 11.35 385.17 19.56 402.49 11.35"/><line class="cls-1" x1="385.17" y1="19.56" x2="385.13" y2="43.74"/><polygon class="cls-1" points="436.97 7.56 454.45 0.54 471.64 7.56 471.64 30.7 454.56 39.95 436.97 30.55 436.97 7.56"/><polyline class="cls-1" points="436.97 7.56 454.88 15.77 472.2 7.56"/><line class="cls-1" x1="454.88" y1="15.77" x2="454.85" y2="39.96"/><polygon class="cls-1" points="246.01 34.84 263.5 27.82 280.69 34.84 280.69 57.98 263.61 67.23 246.01 57.83 246.01 34.84"/><polyline class="cls-1" points="246.01 34.84 263.93 43.05 281.25 34.84"/><line class="cls-1" x1="263.93" y1="43.05" x2="263.89" y2="67.23"/><polyline class="cls-1" points="190.6 211.97 145.23 188.1 145.23 129.75 190.32 111.94 235.03 130.89"/><polyline class="cls-1" points="145.23 129.75 190.7 150.59 235.03 130.89"/><path class="cls-1" d="M192.44,157.32" transform="translate(-1.75 -6.74)"/><polygon class="cls-1" points="189.18 151.34 233.51 131.64 277.84 149.45 277.84 208.18 233.79 231.67 189.09 212.72 189.18 151.34"/><polyline class="cls-1" points="277.84 149.45 233.89 170.29 189.18 151.34 233.89 170.29 233.79 231.67 277.84 208.18"/><polygon class="cls-1" points="252.83 69.89 297.92 52.08 342.25 69.89 342.25 128.61 298.2 152.1 252.83 128.23 252.83 69.89"/><polyline class="cls-1" points="252.83 69.89 298.3 90.72 342.25 69.89"/><line class="cls-1" x1="298.3" y1="90.72" x2="298.2" y2="152.1"/><polygon class="cls-1" points="305.87 103.98 350.96 86.18 395.29 103.98 395.29 162.71 351.25 186.2 305.87 162.33 305.87 103.98"/><polyline class="cls-1" points="305.87 103.98 351.34 124.82 395.29 103.98"/><line class="cls-1" x1="351.34" y1="124.82" x2="351.25" y2="186.2"/><polygon class="cls-1" points="339.97 37.3 385.06 19.5 429.39 37.3 429.39 96.03 385.34 119.52 339.97 95.65 339.97 37.3"/><polyline class="cls-1" points="339.97 37.3 385.44 58.14 429.39 37.3"/><line class="cls-1" x1="385.44" y1="58.14" x2="385.34" y2="119.52"/><polygon class="cls-1" points="409.69 33.51 454.77 15.71 499.1 33.51 499.1 92.24 455.06 115.73 409.69 91.86 409.69 33.51"/><polyline class="cls-1" points="409.69 33.51 455.15 54.35 499.1 33.51"/><line class="cls-1" x1="455.15" y1="54.35" x2="455.06" y2="115.73"/><polygon class="cls-1" points="456.67 211.99 468.51 207.24 480.16 211.99 480.16 227.67 468.59 233.94 456.67 227.57 456.67 211.99"/><polyline class="cls-1" points="456.67 211.99 468.81 217.56 480.54 211.99"/><line class="cls-1" x1="468.8" y1="217.56" x2="468.78" y2="233.94"/><polygon class="cls-1" points="350.58 183.55 395.67 165.74 440 183.55 440 242.28 395.95 265.77 350.58 241.9 350.58 183.55"/><polyline class="cls-1" points="350.58 183.55 396.05 204.39 440 183.55"/><line class="cls-1" x1="396.05" y1="204.39" x2="395.95" y2="265.77"/><polygon class="cls-1" points="301.69 184.41 330.91 175.73 357.7 189.32 354.47 226.11 325.59 238.4 298.49 220.96 301.69 184.41"/><polyline class="cls-1" points="301.69 184.41 329.02 199.96 357.7 189.32"/><line class="cls-1" x1="329.02" y1="199.96" x2="325.59" y2="238.4"/><polygon class="cls-1" points="431.66 215.59 460.01 204.39 487.88 215.59 487.88 252.51 460.19 267.28 431.66 252.27 431.66 215.59"/><polyline class="cls-1" points="431.66 215.59 460.25 228.69 487.88 215.59"/><line class="cls-1" x1="460.25" y1="228.69" x2="460.19" y2="267.28"/><polygon class="cls-1" points="437.72 258.3 468.75 245.85 499.25 258.3 499.25 299.35 468.95 315.78 437.72 299.09 437.72 258.3"/><polyline class="cls-1" points="437.72 258.3 469.51 272.87 500.24 258.3"/><line class="cls-1" x1="469.51" y1="272.86" x2="469.45" y2="315.78"/><polygon class="cls-1" points="485.46 120.3 497.31 115.55 508.95 120.3 508.95 135.98 497.38 142.25 485.46 135.88 485.46 120.3"/><polyline class="cls-1" points="485.46 120.3 497.6 125.87 509.33 120.3"/><line class="cls-1" x1="497.6" y1="125.87" x2="497.57" y2="142.25"/><polygon class="cls-1" points="419.54 108.94 431.38 104.19 443.03 108.94 443.03 124.61 431.46 130.89 419.54 124.51 419.54 108.94"/><polyline class="cls-1" points="419.54 108.94 431.68 114.5 443.41 108.94"/><line class="cls-1" x1="431.67" y1="114.5" x2="431.65" y2="130.89"/><polygon class="cls-1" points="419.54 93.78 431.38 89.03 443.03 93.78 443.03 109.46 431.46 115.73 419.54 109.36 419.54 93.78"/><polyline class="cls-1" points="419.54 93.78 431.68 99.35 443.41 93.78"/><line class="cls-1" x1="431.67" y1="99.35" x2="431.65" y2="115.73"/><polygon class="cls-1" points="488.49 286.25 500.34 281.5 511.98 286.25 511.98 301.93 500.42 308.2 488.49 301.83 488.49 286.25"/><polyline class="cls-1" points="488.49 286.25 500.63 291.81 512.36 286.25"/><line class="cls-1" x1="500.63" y1="291.82" x2="500.61" y2="308.2"/><polygon class="cls-1" points="499.86 268.07 511.71 263.31 523.35 268.07 523.35 283.74 511.78 290.01 499.86 283.64 499.86 268.07"/><polyline class="cls-1" points="499.86 268.07 512 273.63 523.73 268.07"/><line class="cls-1" x1="512" y1="273.63" x2="511.97" y2="290.01"/><polygon class="cls-1" points="512.74 168.04 524.59 163.29 536.23 168.04 536.23 183.72 524.66 189.99 512.74 183.62 512.74 168.04"/><polyline class="cls-1" points="512.74 168.04 524.88 173.61 536.61 168.04"/><line class="cls-1" x1="524.88" y1="173.61" x2="524.85" y2="189.99"/><polygon class="cls-1" points="280.11 57.57 297.6 50.55 314.79 57.57 314.79 80.71 297.71 89.97 280.11 80.56 280.11 57.57"/><polyline class="cls-1" points="280.11 57.57 298.03 65.78 315.35 57.57"/><line class="cls-1" x1="298.03" y1="65.78" x2="297.99" y2="89.97"/><polyline class="cls-1" points="442.93 198.33 397.56 174.46 397.56 116.11 442.65 98.3 487.36 117.25"/><polyline class="cls-1" points="397.56 116.11 443.03 136.95 487.36 117.25"/><path class="cls-1" d="M444.78,143.69" transform="translate(-1.75 -6.74)"/><polygon class="cls-1" points="441.51 137.71 485.84 118 530.17 135.81 530.17 194.54 486.13 218.03 441.42 199.08 441.51 137.71"/><polyline class="cls-1" points="530.17 135.81 486.22 156.65 441.51 137.71 486.22 156.65 486.13 218.03 530.17 194.54"/></svg>